<svg width="122" height="13" viewBox="0 0 122 13" fill="none" xmlns="http://www.w3.org/2000/svg">
<path d="M16.7859 12.3827L10.5405 1.13087C10.2784 0.665353 9.85668 0.279316 9.33244 0.109006C8.30673 -0.220261 7.25824 0.222547 6.77958 1.08545L0.5 12.3827H2.90471L8.63724 2.0619L10.928 6.18341H9.8343C8.93397 6.18341 7.7943 6.86466 7.7943 8.20443V8.23849H10.5865H12.079L14.3698 12.36L16.7859 12.3827Z" fill="#454F64"/>
<path d="M37.5606 0H36.3412C35.6118 0 35.7987 0.00010319 35.1128 9.06298e-05L29.4234 10.2754L23.6532 8.92342e-05C23.1531 0.000102841 23.235 0 22.5056 0H21.2861V12.3645H23.3261V3.656L28.2113 12.2396C28.751 12.2396 28.5542 12.2396 28.751 12.2396C30.0546 12.2396 29.8688 12.2396 30.8548 12.2396L35.5434 3.656V12.3645H37.5834L37.5606 0Z" fill="#454F64"/>
<path d="M44.2028 12.3759H42.083V0H53.0809C55.0525 0 56.7848 1.44196 56.9102 3.36079C57.0583 5.46129 55.3374 7.22117 53.2062 7.22117H43.9735C43.9735 6.09712 43.9735 5.15473 43.9735 5.15473H53.1606C53.9242 5.15473 54.608 4.65516 54.7676 3.9285C54.9727 2.92934 54.1977 2.05508 53.2062 2.05508H44.1914V7.22117L44.2028 12.3759Z" fill="#454F64"/>
<path d="M72.5421 7.22117C74.6733 7.22117 76.3942 5.46129 76.2461 3.36079C76.1093 1.44196 74.3884 0 72.4168 0H61.4189V12.3759H63.5387V2.05508H72.5079C73.2715 2.05508 73.9553 2.55466 74.1149 3.28131C74.32 4.28047 73.545 5.15473 72.5535 5.15473H63.3109C63.3109 6.23336 63.3109 6.06505 63.3109 7.22117H69.3055L73.545 12.3759H76.2574L72.0179 7.22117H72.5421Z" fill="#454F64"/>
<path d="M81.4416 12.3759H80.7578V1.436C80.7578 0.642912 81.4007 4.60222e-05 82.1938 4.60222e-05V4.60222e-05H82.8776V12.3759C82.2661 12.3759 82.2394 12.3759 81.4416 12.3759Z" fill="#454F64"/>
<path d="M98.5125 12.3759H87.378V11.706C87.378 10.9339 87.3779 10.8772 87.3779 10.3095H98.5125C99.3901 10.3095 100.108 9.61687 100.108 8.76531C100.108 7.91376 99.4015 7.22117 98.5125 7.22117H91.0933C89.0419 7.22117 87.378 5.60889 87.378 3.61058C87.378 1.61227 89.0419 0 91.0933 0H102.228V0.669887C102.228 1.44196 102.228 1.70319 102.228 2.06644H91.0933C90.2158 2.06644 89.4978 2.75903 89.4978 3.61058C89.4978 4.46214 90.2044 5.15473 91.0933 5.15473H98.5125C100.564 5.15473 102.228 6.767 102.228 8.76531C102.228 10.7636 100.564 12.3759 98.5125 12.3759Z" fill="#454F64"/>
<path fill-rule="evenodd" clip-rule="evenodd" d="M106.738 2.06643H121.577V0.669887V0H106.738L106.738 1.39655V2.06643ZM110.443 12.3755H121.577V11.7056V10.309H110.443H108.847V7.22073H121.566V5.82419V5.1543H106.728V12.3755H110.443Z" fill="#454F64"/>
</svg>
