<svg width="125" height="17" viewBox="0 0 125 17" fill="none" xmlns="http://www.w3.org/2000/svg">
<path d="M17.7859 14.7938L11.5405 3.542C11.2784 3.07649 10.8567 2.69045 10.3324 2.52014C9.30673 2.19087 8.25824 2.63368 7.77958 3.49659L1.5 14.7938H3.90471L9.63724 4.47303L11.928 8.59455H10.8343C9.93397 8.59455 8.7943 9.27579 8.7943 10.6156V10.6496H11.5865H13.079L15.3698 14.7711L17.7859 14.7938Z" fill="#777F8F"/>
<path d="M38.5606 2.41113H37.3412C36.6118 2.41113 36.7987 2.41124 36.1128 2.41122L30.4234 12.6865L24.6532 2.41122C24.1531 2.41124 24.235 2.41113 23.5056 2.41113H22.2861V14.7757H24.3261V6.06713L29.2113 14.6508C29.751 14.6508 29.5542 14.6508 29.751 14.6508C31.0546 14.6508 30.8688 14.6508 31.8548 14.6508L36.5434 6.06713V14.7757H38.5834L38.5606 2.41113Z" fill="#777F8F"/>
<path d="M45.2028 14.787H43.083V2.41113H54.0809C56.0525 2.41113 57.7848 3.8531 57.9102 5.77193C58.0583 7.87242 56.3374 9.6323 54.2062 9.6323H44.9735C44.9735 8.50825 44.9735 7.56586 44.9735 7.56586H54.1606C54.9242 7.56586 55.608 7.06629 55.7676 6.33963C55.9727 5.34047 55.1977 4.46621 54.2062 4.46621H45.1914V9.6323L45.2028 14.787Z" fill="#777F8F"/>
<path d="M73.5421 9.6323C75.6733 9.6323 77.3942 7.87242 77.2461 5.77193C77.1093 3.8531 75.3884 2.41113 73.4168 2.41113H62.4189V14.787H64.5387V4.46621H73.5079C74.2715 4.46621 74.9553 4.96579 75.1149 5.69245C75.32 6.6916 74.545 7.56586 73.5535 7.56586H64.3109C64.3109 8.6445 64.3109 8.47618 64.3109 9.6323H70.3055L74.545 14.787H77.2574L73.0179 9.6323H73.5421Z" fill="#777F8F"/>
<path d="M82.4416 14.7871H81.7578V3.84714C81.7578 3.05404 82.4007 2.41118 83.1938 2.41118V2.41118H83.8776V14.7871C83.2661 14.7871 83.2394 14.7871 82.4416 14.7871Z" fill="#777F8F"/>
<path d="M99.5125 14.787H88.378V14.1171C88.378 13.3451 88.3779 13.2883 88.3779 12.7206H99.5125C100.39 12.7206 101.108 12.028 101.108 11.1764C101.108 10.3249 100.401 9.6323 99.5125 9.6323H92.0933C90.0419 9.6323 88.378 8.02003 88.378 6.02172C88.378 4.02341 90.0419 2.41113 92.0933 2.41113H103.228V3.08102C103.228 3.85309 103.228 4.11432 103.228 4.47757H92.0933C91.2158 4.47757 90.4978 5.17016 90.4978 6.02172C90.4978 6.87327 91.2044 7.56586 92.0933 7.56586H99.5125C101.564 7.56586 103.228 9.17814 103.228 11.1764C103.228 13.1748 101.564 14.787 99.5125 14.787Z" fill="#777F8F"/>
<path fill-rule="evenodd" clip-rule="evenodd" d="M107.738 4.47757H122.577V3.08102V2.41113H107.738L107.738 3.80768V4.47757ZM111.443 14.7866H122.577V14.1167V12.7202H111.443H109.847V9.63187H122.566V8.23532V7.56543H107.728V14.7866H111.443Z" fill="#777F8F"/>
</svg>
