<svg width="360" height="562" viewBox="0 0 360 562" fill="none" xmlns="http://www.w3.org/2000/svg">
<g clip-path="url(#clip0_138_2652)">
<g style="mix-blend-mode:screen">
<line x1="77.5" y1="457" x2="77.5" y2="497" stroke="white" stroke-opacity="0.12"/>
</g>
<g style="mix-blend-mode:screen">
<path d="M65.7068 522H67.2258L67.9608 519.725H72.0978L72.8468 522H74.3658L71.0898 511.92H68.9828L65.7068 522ZM68.4088 518.353L70.0188 513.383L71.6498 518.353H68.4088ZM75.6146 525.36H77.0846V521.468C77.3506 521.706 77.6563 521.888 78.0016 522.014C78.3516 522.145 78.7413 522.21 79.1706 522.21C79.8753 522.21 80.4819 522.035 80.9906 521.685C81.5039 521.33 81.8983 520.852 82.1736 520.25C82.4536 519.648 82.5936 518.969 82.5936 518.213C82.5936 517.452 82.4536 516.773 82.1736 516.176C81.8936 515.574 81.4946 515.1 80.9766 514.755C80.4633 514.405 79.8519 514.23 79.1426 514.23C78.6759 514.23 78.2559 514.309 77.8826 514.468C77.5093 514.622 77.1873 514.839 76.9166 515.119V514.44H75.6146V525.36ZM78.9676 520.887C78.2489 520.887 77.7263 520.637 77.3996 520.138C77.0776 519.639 76.9166 518.997 76.9166 518.213C76.9166 517.429 77.0776 516.79 77.3996 516.295C77.7216 515.8 78.2279 515.553 78.9186 515.553C79.4039 515.553 79.8029 515.672 80.1156 515.91C80.4283 516.148 80.6593 516.468 80.8086 516.869C80.9626 517.27 81.0396 517.718 81.0396 518.213C81.0396 518.712 80.9649 519.165 80.8156 519.571C80.6663 519.972 80.4376 520.292 80.1296 520.53C79.8263 520.768 79.4389 520.887 78.9676 520.887ZM84.1392 522H85.6162V518.185C85.6162 517.742 85.6862 517.331 85.8262 516.953C85.9662 516.575 86.2135 516.272 86.5682 516.043C86.8202 515.88 87.0978 515.784 87.4012 515.756C87.7045 515.728 87.9775 515.747 88.2202 515.812V514.44C87.8795 514.375 87.5178 514.377 87.1352 514.447C86.7572 514.517 86.4258 514.657 86.1412 514.867C85.8612 515.054 85.6278 515.313 85.4412 515.644V514.44H84.1392V522Z" fill="white"/>
<rect x="55.5" y="497.5" width="43" height="39" rx="11.5" stroke="white" stroke-opacity="0.12"/>
</g>
<g style="mix-blend-mode:screen">
<path d="M63.7016 559.994H69.4436V558.974H65.3456L68.1296 556.472C68.4256 556.208 68.6696 555.96 68.8616 555.728C69.0576 555.492 69.2036 555.236 69.2996 554.96C69.3956 554.684 69.4436 554.358 69.4436 553.982C69.4436 553.45 69.3196 552.974 69.0716 552.554C68.8276 552.13 68.4936 551.796 68.0696 551.552C67.6456 551.304 67.1656 551.18 66.6296 551.18C66.0776 551.18 65.5836 551.3 65.1476 551.54C64.7116 551.776 64.3676 552.104 64.1156 552.524C63.8676 552.94 63.7436 553.42 63.7436 553.964H64.8356C64.8316 553.648 64.9056 553.358 65.0576 553.094C65.2136 552.826 65.4256 552.61 65.6936 552.446C65.9616 552.282 66.2676 552.2 66.6116 552.2C66.9436 552.2 67.2396 552.278 67.4996 552.434C67.7636 552.59 67.9716 552.802 68.1236 553.07C68.2756 553.338 68.3516 553.638 68.3516 553.97C68.3516 554.242 68.2956 554.508 68.1836 554.768C68.0756 555.028 67.8616 555.3 67.5416 555.584L63.7076 559.034L63.7016 559.994ZM73.7951 560.18C74.3551 560.18 74.8551 560.054 75.2951 559.802C75.7351 559.55 76.0811 559.204 76.3331 558.764C76.5851 558.324 76.7111 557.824 76.7111 557.264V554.096C76.7111 553.536 76.5851 553.036 76.3331 552.596C76.0811 552.156 75.7351 551.81 75.2951 551.558C74.8551 551.306 74.3551 551.18 73.7951 551.18C73.2351 551.18 72.7351 551.306 72.2951 551.558C71.8551 551.81 71.5091 552.156 71.2571 552.596C71.0051 553.036 70.8791 553.536 70.8791 554.096V557.264C70.8791 557.824 71.0051 558.324 71.2571 558.764C71.5091 559.204 71.8551 559.55 72.2951 559.802C72.7351 560.054 73.2351 560.18 73.7951 560.18ZM73.7951 559.154C73.4591 559.154 73.1511 559.072 72.8711 558.908C72.5951 558.744 72.3751 558.524 72.2111 558.248C72.0471 557.968 71.9651 557.66 71.9651 557.324V554.03C71.9651 553.69 72.0471 553.382 72.2111 553.106C72.3751 552.83 72.5951 552.61 72.8711 552.446C73.1511 552.282 73.4591 552.2 73.7951 552.2C74.1351 552.2 74.4431 552.282 74.7191 552.446C74.9951 552.61 75.2151 552.83 75.3791 553.106C75.5431 553.382 75.6251 553.69 75.6251 554.03V557.324C75.6251 557.66 75.5431 557.968 75.3791 558.248C75.2151 558.524 74.9951 558.744 74.7191 558.908C74.4431 559.072 74.1351 559.154 73.7951 559.154ZM78.1508 559.994H83.8928V558.974H79.7948L82.5788 556.472C82.8748 556.208 83.1188 555.96 83.3108 555.728C83.5068 555.492 83.6528 555.236 83.7488 554.96C83.8448 554.684 83.8928 554.358 83.8928 553.982C83.8928 553.45 83.7688 552.974 83.5208 552.554C83.2768 552.13 82.9428 551.796 82.5188 551.552C82.0948 551.304 81.6148 551.18 81.0788 551.18C80.5268 551.18 80.0328 551.3 79.5968 551.54C79.1608 551.776 78.8168 552.104 78.5648 552.524C78.3168 552.94 78.1928 553.42 78.1928 553.964H79.2848C79.2808 553.648 79.3548 553.358 79.5068 553.094C79.6628 552.826 79.8748 552.61 80.1428 552.446C80.4108 552.282 80.7168 552.2 81.0608 552.2C81.3928 552.2 81.6888 552.278 81.9488 552.434C82.2128 552.59 82.4208 552.802 82.5728 553.07C82.7248 553.338 82.8008 553.638 82.8008 553.97C82.8008 554.242 82.7448 554.508 82.6328 554.768C82.5248 555.028 82.3108 555.3 81.9908 555.584L78.1568 559.034L78.1508 559.994ZM88.2443 560.18C88.8043 560.18 89.3043 560.054 89.7443 559.802C90.1843 559.55 90.5303 559.204 90.7823 558.764C91.0343 558.324 91.1603 557.824 91.1603 557.264V554.096C91.1603 553.536 91.0343 553.036 90.7823 552.596C90.5303 552.156 90.1843 551.81 89.7443 551.558C89.3043 551.306 88.8043 551.18 88.2443 551.18C87.6843 551.18 87.1843 551.306 86.7443 551.558C86.3043 551.81 85.9583 552.156 85.7063 552.596C85.4543 553.036 85.3283 553.536 85.3283 554.096V557.264C85.3283 557.824 85.4543 558.324 85.7063 558.764C85.9583 559.204 86.3043 559.55 86.7443 559.802C87.1843 560.054 87.6843 560.18 88.2443 560.18ZM88.2443 559.154C87.9083 559.154 87.6003 559.072 87.3203 558.908C87.0443 558.744 86.8243 558.524 86.6603 558.248C86.4963 557.968 86.4143 557.66 86.4143 557.324V554.03C86.4143 553.69 86.4963 553.382 86.6603 553.106C86.8243 552.83 87.0443 552.61 87.3203 552.446C87.6003 552.282 87.9083 552.2 88.2443 552.2C88.5843 552.2 88.8923 552.282 89.1683 552.446C89.4443 552.61 89.6643 552.83 89.8283 553.106C89.9923 553.382 90.0743 553.69 90.0743 554.03V557.324C90.0743 557.66 89.9923 557.968 89.8283 558.248C89.6643 558.524 89.4443 558.744 89.1683 558.908C88.8923 559.072 88.5843 559.154 88.2443 559.154Z" fill="white" fill-opacity="0.16"/>
</g>
<path d="M23.0358 435H24.3028V424.92H23.0358L21.1388 426.054V427.447L23.0358 426.299V435ZM29.7621 435H30.8751V434.146C31.1504 434.477 31.4841 434.739 31.8761 434.93C32.2727 435.117 32.7277 435.21 33.2411 435.21C33.9457 435.21 34.5501 435.035 35.0541 434.685C35.5627 434.33 35.9524 433.852 36.2231 433.25C36.4937 432.648 36.6291 431.969 36.6291 431.213C36.6291 430.457 36.4937 429.778 36.2231 429.176C35.9524 428.574 35.5627 428.1 35.0541 427.755C34.5501 427.405 33.9481 427.23 33.2481 427.23C32.7767 427.23 32.3544 427.309 31.9811 427.468C31.6077 427.627 31.2857 427.846 31.0151 428.126V424.92H29.7621V435ZM33.0871 434.069C32.3264 434.069 31.7664 433.801 31.4071 433.264C31.0524 432.727 30.8751 432.044 30.8751 431.213C30.8751 430.378 31.0524 429.696 31.4071 429.169C31.7664 428.637 32.3147 428.371 33.0521 428.371C33.5654 428.371 33.9877 428.497 34.3191 428.749C34.6551 429.001 34.9024 429.342 35.0611 429.771C35.2244 430.2 35.3061 430.681 35.3061 431.213C35.3061 431.75 35.2244 432.235 35.0611 432.669C34.8977 433.098 34.6527 433.439 34.3261 433.691C33.9994 433.943 33.5864 434.069 33.0871 434.069ZM38.3036 426.103H39.5496V424.815H38.3036V426.103ZM38.3036 435H39.5496V427.44H38.3036V435ZM41.7899 435H43.0359V424.71H41.7899V435ZM45.2763 435H46.5223V424.71H45.2763V435ZM48.7626 426.103H50.0086V424.815H48.7626V426.103ZM48.7626 435H50.0086V427.44H48.7626V435ZM55.3289 435.21C56.0802 435.21 56.7266 435.042 57.2679 434.706C57.8139 434.37 58.2339 433.901 58.5279 433.299C58.8266 432.697 58.9759 432.002 58.9759 431.213C58.9759 430.434 58.8289 429.745 58.5349 429.148C58.2456 428.546 57.8279 428.077 57.2819 427.741C56.7359 427.4 56.0849 427.23 55.3289 427.23C54.5916 427.23 53.9499 427.398 53.4039 427.734C52.8579 428.065 52.4356 428.53 52.1369 429.127C51.8382 429.724 51.6889 430.42 51.6889 431.213C51.6889 431.992 51.8336 432.683 52.1229 433.285C52.4169 433.887 52.8369 434.358 53.3829 434.699C53.9289 435.04 54.5776 435.21 55.3289 435.21ZM55.3289 434.027C54.5682 434.027 53.9919 433.773 53.5999 433.264C53.2079 432.751 53.0119 432.067 53.0119 431.213C53.0119 430.387 53.2009 429.715 53.5789 429.197C53.9569 428.674 54.5402 428.413 55.3289 428.413C56.1036 428.413 56.6846 428.667 57.0719 429.176C57.4592 429.685 57.6529 430.364 57.6529 431.213C57.6529 432.044 57.4592 432.72 57.0719 433.243C56.6892 433.766 56.1082 434.027 55.3289 434.027ZM60.5101 435H61.7701V431.017C61.7701 430.14 61.9591 429.489 62.3371 429.064C62.7198 428.639 63.2238 428.427 63.8491 428.427C64.3811 428.427 64.7964 428.56 65.0951 428.826C65.3938 429.092 65.6014 429.437 65.7181 429.862C65.8394 430.287 65.9001 430.737 65.9001 431.213V435H67.1601V430.821C67.1601 430.462 67.1158 430.077 67.0271 429.666C66.9431 429.251 66.7891 428.861 66.5651 428.497C66.3458 428.128 66.0401 427.827 65.6481 427.594C65.2608 427.361 64.7614 427.244 64.1501 427.244C63.0488 427.244 62.2088 427.634 61.6301 428.413V427.44H60.5101V435Z" fill="white"/>
<path d="M23.0358 435H24.3028V424.92H23.0358L21.1388 426.054V427.447L23.0358 426.299V435ZM29.7621 435H30.8751V434.146C31.1504 434.477 31.4841 434.739 31.8761 434.93C32.2727 435.117 32.7277 435.21 33.2411 435.21C33.9457 435.21 34.5501 435.035 35.0541 434.685C35.5627 434.33 35.9524 433.852 36.2231 433.25C36.4937 432.648 36.6291 431.969 36.6291 431.213C36.6291 430.457 36.4937 429.778 36.2231 429.176C35.9524 428.574 35.5627 428.1 35.0541 427.755C34.5501 427.405 33.9481 427.23 33.2481 427.23C32.7767 427.23 32.3544 427.309 31.9811 427.468C31.6077 427.627 31.2857 427.846 31.0151 428.126V424.92H29.7621V435ZM33.0871 434.069C32.3264 434.069 31.7664 433.801 31.4071 433.264C31.0524 432.727 30.8751 432.044 30.8751 431.213C30.8751 430.378 31.0524 429.696 31.4071 429.169C31.7664 428.637 32.3147 428.371 33.0521 428.371C33.5654 428.371 33.9877 428.497 34.3191 428.749C34.6551 429.001 34.9024 429.342 35.0611 429.771C35.2244 430.2 35.3061 430.681 35.3061 431.213C35.3061 431.75 35.2244 432.235 35.0611 432.669C34.8977 433.098 34.6527 433.439 34.3261 433.691C33.9994 433.943 33.5864 434.069 33.0871 434.069ZM38.3036 426.103H39.5496V424.815H38.3036V426.103ZM38.3036 435H39.5496V427.44H38.3036V435ZM41.7899 435H43.0359V424.71H41.7899V435ZM45.2763 435H46.5223V424.71H45.2763V435ZM48.7626 426.103H50.0086V424.815H48.7626V426.103ZM48.7626 435H50.0086V427.44H48.7626V435ZM55.3289 435.21C56.0802 435.21 56.7266 435.042 57.2679 434.706C57.8139 434.37 58.2339 433.901 58.5279 433.299C58.8266 432.697 58.9759 432.002 58.9759 431.213C58.9759 430.434 58.8289 429.745 58.5349 429.148C58.2456 428.546 57.8279 428.077 57.2819 427.741C56.7359 427.4 56.0849 427.23 55.3289 427.23C54.5916 427.23 53.9499 427.398 53.4039 427.734C52.8579 428.065 52.4356 428.53 52.1369 429.127C51.8382 429.724 51.6889 430.42 51.6889 431.213C51.6889 431.992 51.8336 432.683 52.1229 433.285C52.4169 433.887 52.8369 434.358 53.3829 434.699C53.9289 435.04 54.5776 435.21 55.3289 435.21ZM55.3289 434.027C54.5682 434.027 53.9919 433.773 53.5999 433.264C53.2079 432.751 53.0119 432.067 53.0119 431.213C53.0119 430.387 53.2009 429.715 53.5789 429.197C53.9569 428.674 54.5402 428.413 55.3289 428.413C56.1036 428.413 56.6846 428.667 57.0719 429.176C57.4592 429.685 57.6529 430.364 57.6529 431.213C57.6529 432.044 57.4592 432.72 57.0719 433.243C56.6892 433.766 56.1082 434.027 55.3289 434.027ZM60.5101 435H61.7701V431.017C61.7701 430.14 61.9591 429.489 62.3371 429.064C62.7198 428.639 63.2238 428.427 63.8491 428.427C64.3811 428.427 64.7964 428.56 65.0951 428.826C65.3938 429.092 65.6014 429.437 65.7181 429.862C65.8394 430.287 65.9001 430.737 65.9001 431.213V435H67.1601V430.821C67.1601 430.462 67.1158 430.077 67.0271 429.666C66.9431 429.251 66.7891 428.861 66.5651 428.497C66.3458 428.128 66.0401 427.827 65.6481 427.594C65.2608 427.361 64.7614 427.244 64.1501 427.244C63.0488 427.244 62.2088 427.634 61.6301 428.413V427.44H60.5101V435Z" fill="url(#paint0_linear_138_2652)"/>
<g style="mix-blend-mode:screen">
<line x1="133.5" y1="411" x2="133.5" y2="497" stroke="white" stroke-opacity="0.12"/>
</g>
<g style="mix-blend-mode:screen">
<path d="M120.607 522H122.126L122.861 519.725H126.998L127.747 522H129.266L125.99 511.92H123.883L120.607 522ZM123.309 518.353L124.919 513.383L126.55 518.353H123.309ZM133.371 522.203C133.917 522.203 134.4 522.105 134.82 521.909C135.245 521.713 135.595 521.442 135.87 521.097V522H137.172V514.44H135.695V518.374C135.695 518.971 135.609 519.45 135.436 519.809C135.263 520.164 135.03 520.42 134.736 520.579C134.447 520.738 134.127 520.817 133.777 520.817C133.376 520.817 133.049 520.735 132.797 520.572C132.545 520.409 132.351 520.194 132.216 519.928C132.081 519.662 131.987 519.375 131.936 519.067C131.889 518.754 131.866 518.451 131.866 518.157V514.44H130.382V518.64C130.382 518.873 130.403 519.144 130.445 519.452C130.487 519.76 130.566 520.075 130.683 520.397C130.8 520.719 130.968 521.018 131.187 521.293C131.411 521.564 131.7 521.783 132.055 521.951C132.41 522.119 132.848 522.203 133.371 522.203ZM142.138 522.21C142.568 522.21 142.955 522.145 143.3 522.014C143.646 521.888 143.951 521.708 144.217 521.475V522.189C144.227 522.838 144.059 523.328 143.713 523.659C143.373 523.995 142.89 524.163 142.264 524.163C141.928 524.163 141.609 524.088 141.305 523.939C141.002 523.79 140.769 523.554 140.605 523.232L139.254 523.918C139.562 524.455 139.987 524.863 140.528 525.143C141.07 525.428 141.644 525.57 142.25 525.57C143.132 525.57 143.87 525.386 144.462 525.017C145.055 524.653 145.431 524.088 145.589 523.323C145.627 523.146 145.652 522.964 145.666 522.777C145.68 522.595 145.687 522.404 145.687 522.203V514.44H144.392V515.119C144.122 514.839 143.8 514.622 143.426 514.468C143.053 514.309 142.633 514.23 142.166 514.23C141.457 514.23 140.843 514.405 140.325 514.755C139.812 515.1 139.415 515.574 139.135 516.176C138.855 516.773 138.715 517.452 138.715 518.213C138.715 518.969 138.853 519.648 139.128 520.25C139.408 520.852 139.805 521.33 140.318 521.685C140.832 522.035 141.438 522.21 142.138 522.21ZM142.341 520.887C141.875 520.887 141.487 520.768 141.179 520.53C140.871 520.292 140.643 519.972 140.493 519.571C140.344 519.165 140.269 518.712 140.269 518.213C140.269 517.718 140.344 517.27 140.493 516.869C140.647 516.468 140.881 516.148 141.193 515.91C141.506 515.672 141.905 515.553 142.39 515.553C143.081 515.553 143.587 515.8 143.909 516.295C144.231 516.79 144.392 517.429 144.392 518.213C144.392 518.997 144.231 519.639 143.909 520.138C143.587 520.637 143.065 520.887 142.341 520.887Z" fill="white"/>
<rect x="111.5" y="497.5" width="43" height="39" rx="11.5" stroke="white" stroke-opacity="0.12"/>
</g>
<g style="mix-blend-mode:screen">
<path d="M119.702 559.994H125.444V558.974H121.346L124.13 556.472C124.426 556.208 124.67 555.96 124.862 555.728C125.058 555.492 125.204 555.236 125.3 554.96C125.396 554.684 125.444 554.358 125.444 553.982C125.444 553.45 125.32 552.974 125.072 552.554C124.828 552.13 124.494 551.796 124.07 551.552C123.646 551.304 123.166 551.18 122.63 551.18C122.078 551.18 121.584 551.3 121.148 551.54C120.712 551.776 120.368 552.104 120.116 552.524C119.868 552.94 119.744 553.42 119.744 553.964H120.836C120.832 553.648 120.906 553.358 121.058 553.094C121.214 552.826 121.426 552.61 121.694 552.446C121.962 552.282 122.268 552.2 122.612 552.2C122.944 552.2 123.24 552.278 123.5 552.434C123.764 552.59 123.972 552.802 124.124 553.07C124.276 553.338 124.352 553.638 124.352 553.97C124.352 554.242 124.296 554.508 124.184 554.768C124.076 555.028 123.862 555.3 123.542 555.584L119.708 559.034L119.702 559.994ZM129.795 560.18C130.355 560.18 130.855 560.054 131.295 559.802C131.735 559.55 132.081 559.204 132.333 558.764C132.585 558.324 132.711 557.824 132.711 557.264V554.096C132.711 553.536 132.585 553.036 132.333 552.596C132.081 552.156 131.735 551.81 131.295 551.558C130.855 551.306 130.355 551.18 129.795 551.18C129.235 551.18 128.735 551.306 128.295 551.558C127.855 551.81 127.509 552.156 127.257 552.596C127.005 553.036 126.879 553.536 126.879 554.096V557.264C126.879 557.824 127.005 558.324 127.257 558.764C127.509 559.204 127.855 559.55 128.295 559.802C128.735 560.054 129.235 560.18 129.795 560.18ZM129.795 559.154C129.459 559.154 129.151 559.072 128.871 558.908C128.595 558.744 128.375 558.524 128.211 558.248C128.047 557.968 127.965 557.66 127.965 557.324V554.03C127.965 553.69 128.047 553.382 128.211 553.106C128.375 552.83 128.595 552.61 128.871 552.446C129.151 552.282 129.459 552.2 129.795 552.2C130.135 552.2 130.443 552.282 130.719 552.446C130.995 552.61 131.215 552.83 131.379 553.106C131.543 553.382 131.625 553.69 131.625 554.03V557.324C131.625 557.66 131.543 557.968 131.379 558.248C131.215 558.524 130.995 558.744 130.719 558.908C130.443 559.072 130.135 559.154 129.795 559.154ZM134.151 559.994H139.893V558.974H135.795L138.579 556.472C138.875 556.208 139.119 555.96 139.311 555.728C139.507 555.492 139.653 555.236 139.749 554.96C139.845 554.684 139.893 554.358 139.893 553.982C139.893 553.45 139.769 552.974 139.521 552.554C139.277 552.13 138.943 551.796 138.519 551.552C138.095 551.304 137.615 551.18 137.079 551.18C136.527 551.18 136.033 551.3 135.597 551.54C135.161 551.776 134.817 552.104 134.565 552.524C134.317 552.94 134.193 553.42 134.193 553.964H135.285C135.281 553.648 135.355 553.358 135.507 553.094C135.663 552.826 135.875 552.61 136.143 552.446C136.411 552.282 136.717 552.2 137.061 552.2C137.393 552.2 137.689 552.278 137.949 552.434C138.213 552.59 138.421 552.802 138.573 553.07C138.725 553.338 138.801 553.638 138.801 553.97C138.801 554.242 138.745 554.508 138.633 554.768C138.525 555.028 138.311 555.3 137.991 555.584L134.157 559.034L134.151 559.994ZM144.244 560.18C144.804 560.18 145.304 560.054 145.744 559.802C146.184 559.55 146.53 559.204 146.782 558.764C147.034 558.324 147.16 557.824 147.16 557.264V554.096C147.16 553.536 147.034 553.036 146.782 552.596C146.53 552.156 146.184 551.81 145.744 551.558C145.304 551.306 144.804 551.18 144.244 551.18C143.684 551.18 143.184 551.306 142.744 551.558C142.304 551.81 141.958 552.156 141.706 552.596C141.454 553.036 141.328 553.536 141.328 554.096V557.264C141.328 557.824 141.454 558.324 141.706 558.764C141.958 559.204 142.304 559.55 142.744 559.802C143.184 560.054 143.684 560.18 144.244 560.18ZM144.244 559.154C143.908 559.154 143.6 559.072 143.32 558.908C143.044 558.744 142.824 558.524 142.66 558.248C142.496 557.968 142.414 557.66 142.414 557.324V554.03C142.414 553.69 142.496 553.382 142.66 553.106C142.824 552.83 143.044 552.61 143.32 552.446C143.6 552.282 143.908 552.2 144.244 552.2C144.584 552.2 144.892 552.282 145.168 552.446C145.444 552.61 145.664 552.83 145.828 553.106C145.992 553.382 146.074 553.69 146.074 554.03V557.324C146.074 557.66 145.992 557.968 145.828 558.248C145.664 558.524 145.444 558.744 145.168 558.908C144.892 559.072 144.584 559.154 144.244 559.154Z" fill="white" fill-opacity="0.16"/>
</g>
<path d="M78.9805 389H80.2405V387.145H81.2905V385.962H80.2405V383.127H78.9805V385.962H75.7605L79.0855 378.92H77.6715L74.3465 385.962V387.145H78.9805V389ZM85.7621 389H86.8751V388.146C87.1504 388.477 87.4841 388.739 87.8761 388.93C88.2727 389.117 88.7277 389.21 89.2411 389.21C89.9457 389.21 90.5501 389.035 91.0541 388.685C91.5627 388.33 91.9524 387.852 92.2231 387.25C92.4937 386.648 92.6291 385.969 92.6291 385.213C92.6291 384.457 92.4937 383.778 92.2231 383.176C91.9524 382.574 91.5627 382.1 91.0541 381.755C90.5501 381.405 89.9481 381.23 89.2481 381.23C88.7767 381.23 88.3544 381.309 87.9811 381.468C87.6077 381.627 87.2857 381.846 87.0151 382.126V378.92H85.7621V389ZM89.0871 388.069C88.3264 388.069 87.7664 387.801 87.4071 387.264C87.0524 386.727 86.8751 386.044 86.8751 385.213C86.8751 384.378 87.0524 383.696 87.4071 383.169C87.7664 382.637 88.3147 382.371 89.0521 382.371C89.5654 382.371 89.9877 382.497 90.3191 382.749C90.6551 383.001 90.9024 383.342 91.0611 383.771C91.2244 384.2 91.3061 384.681 91.3061 385.213C91.3061 385.75 91.2244 386.235 91.0611 386.669C90.8977 387.098 90.6527 387.439 90.3261 387.691C89.9994 387.943 89.5864 388.069 89.0871 388.069ZM94.3036 380.103H95.5496V378.815H94.3036V380.103ZM94.3036 389H95.5496V381.44H94.3036V389ZM97.7899 389H99.0359V378.71H97.7899V389ZM101.276 389H102.522V378.71H101.276V389ZM104.763 380.103H106.009V378.815H104.763V380.103ZM104.763 389H106.009V381.44H104.763V389ZM111.329 389.21C112.08 389.21 112.727 389.042 113.268 388.706C113.814 388.37 114.234 387.901 114.528 387.299C114.827 386.697 114.976 386.002 114.976 385.213C114.976 384.434 114.829 383.745 114.535 383.148C114.246 382.546 113.828 382.077 113.282 381.741C112.736 381.4 112.085 381.23 111.329 381.23C110.592 381.23 109.95 381.398 109.404 381.734C108.858 382.065 108.436 382.53 108.137 383.127C107.838 383.724 107.689 384.42 107.689 385.213C107.689 385.992 107.834 386.683 108.123 387.285C108.417 387.887 108.837 388.358 109.383 388.699C109.929 389.04 110.578 389.21 111.329 389.21ZM111.329 388.027C110.568 388.027 109.992 387.773 109.6 387.264C109.208 386.751 109.012 386.067 109.012 385.213C109.012 384.387 109.201 383.715 109.579 383.197C109.957 382.674 110.54 382.413 111.329 382.413C112.104 382.413 112.685 382.667 113.072 383.176C113.459 383.685 113.653 384.364 113.653 385.213C113.653 386.044 113.459 386.72 113.072 387.243C112.689 387.766 112.108 388.027 111.329 388.027ZM116.51 389H117.77V385.017C117.77 384.14 117.959 383.489 118.337 383.064C118.72 382.639 119.224 382.427 119.849 382.427C120.381 382.427 120.796 382.56 121.095 382.826C121.394 383.092 121.601 383.437 121.718 383.862C121.839 384.287 121.9 384.737 121.9 385.213V389H123.16V384.821C123.16 384.462 123.116 384.077 123.027 383.666C122.943 383.251 122.789 382.861 122.565 382.497C122.346 382.128 122.04 381.827 121.648 381.594C121.261 381.361 120.761 381.244 120.15 381.244C119.049 381.244 118.209 381.634 117.63 382.413V381.44H116.51V389Z" fill="white"/>
<path d="M78.9805 389H80.2405V387.145H81.2905V385.962H80.2405V383.127H78.9805V385.962H75.7605L79.0855 378.92H77.6715L74.3465 385.962V387.145H78.9805V389ZM85.7621 389H86.8751V388.146C87.1504 388.477 87.4841 388.739 87.8761 388.93C88.2727 389.117 88.7277 389.21 89.2411 389.21C89.9457 389.21 90.5501 389.035 91.0541 388.685C91.5627 388.33 91.9524 387.852 92.2231 387.25C92.4937 386.648 92.6291 385.969 92.6291 385.213C92.6291 384.457 92.4937 383.778 92.2231 383.176C91.9524 382.574 91.5627 382.1 91.0541 381.755C90.5501 381.405 89.9481 381.23 89.2481 381.23C88.7767 381.23 88.3544 381.309 87.9811 381.468C87.6077 381.627 87.2857 381.846 87.0151 382.126V378.92H85.7621V389ZM89.0871 388.069C88.3264 388.069 87.7664 387.801 87.4071 387.264C87.0524 386.727 86.8751 386.044 86.8751 385.213C86.8751 384.378 87.0524 383.696 87.4071 383.169C87.7664 382.637 88.3147 382.371 89.0521 382.371C89.5654 382.371 89.9877 382.497 90.3191 382.749C90.6551 383.001 90.9024 383.342 91.0611 383.771C91.2244 384.2 91.3061 384.681 91.3061 385.213C91.3061 385.75 91.2244 386.235 91.0611 386.669C90.8977 387.098 90.6527 387.439 90.3261 387.691C89.9994 387.943 89.5864 388.069 89.0871 388.069ZM94.3036 380.103H95.5496V378.815H94.3036V380.103ZM94.3036 389H95.5496V381.44H94.3036V389ZM97.7899 389H99.0359V378.71H97.7899V389ZM101.276 389H102.522V378.71H101.276V389ZM104.763 380.103H106.009V378.815H104.763V380.103ZM104.763 389H106.009V381.44H104.763V389ZM111.329 389.21C112.08 389.21 112.727 389.042 113.268 388.706C113.814 388.37 114.234 387.901 114.528 387.299C114.827 386.697 114.976 386.002 114.976 385.213C114.976 384.434 114.829 383.745 114.535 383.148C114.246 382.546 113.828 382.077 113.282 381.741C112.736 381.4 112.085 381.23 111.329 381.23C110.592 381.23 109.95 381.398 109.404 381.734C108.858 382.065 108.436 382.53 108.137 383.127C107.838 383.724 107.689 384.42 107.689 385.213C107.689 385.992 107.834 386.683 108.123 387.285C108.417 387.887 108.837 388.358 109.383 388.699C109.929 389.04 110.578 389.21 111.329 389.21ZM111.329 388.027C110.568 388.027 109.992 387.773 109.6 387.264C109.208 386.751 109.012 386.067 109.012 385.213C109.012 384.387 109.201 383.715 109.579 383.197C109.957 382.674 110.54 382.413 111.329 382.413C112.104 382.413 112.685 382.667 113.072 383.176C113.459 383.685 113.653 384.364 113.653 385.213C113.653 386.044 113.459 386.72 113.072 387.243C112.689 387.766 112.108 388.027 111.329 388.027ZM116.51 389H117.77V385.017C117.77 384.14 117.959 383.489 118.337 383.064C118.72 382.639 119.224 382.427 119.849 382.427C120.381 382.427 120.796 382.56 121.095 382.826C121.394 383.092 121.601 383.437 121.718 383.862C121.839 384.287 121.9 384.737 121.9 385.213V389H123.16V384.821C123.16 384.462 123.116 384.077 123.027 383.666C122.943 383.251 122.789 382.861 122.565 382.497C122.346 382.128 122.04 381.827 121.648 381.594C121.261 381.361 120.761 381.244 120.15 381.244C119.049 381.244 118.209 381.634 117.63 382.413V381.44H116.51V389Z" fill="url(#paint1_linear_138_2652)"/>
<g style="mix-blend-mode:screen">
<line x1="189.5" y1="380" x2="189.5" y2="497" stroke="white" stroke-opacity="0.12"/>
</g>
<g style="mix-blend-mode:screen">
<path d="M180.796 522.21C181.491 522.21 182.131 522.093 182.714 521.86C183.302 521.627 183.773 521.281 184.128 520.824C184.483 520.367 184.66 519.8 184.66 519.123C184.66 518.633 184.569 518.227 184.387 517.905C184.205 517.578 183.974 517.317 183.694 517.121C183.419 516.925 183.132 516.773 182.833 516.666C182.539 516.554 182.275 516.465 182.042 516.4L180.18 515.875C179.942 515.81 179.702 515.728 179.459 515.63C179.221 515.527 179.02 515.39 178.857 515.217C178.694 515.044 178.612 514.818 178.612 514.538C178.612 514.249 178.703 513.997 178.885 513.782C179.072 513.563 179.319 513.392 179.627 513.271C179.94 513.15 180.283 513.094 180.656 513.103C181.235 513.108 181.746 513.273 182.189 513.6C182.637 513.922 182.915 514.368 183.022 514.937L184.59 514.671C184.385 513.742 183.937 513.021 183.246 512.508C182.555 511.99 181.699 511.726 180.677 511.717C180 511.712 179.389 511.822 178.843 512.046C178.297 512.27 177.863 512.597 177.541 513.026C177.224 513.455 177.065 513.983 177.065 514.608C177.065 515.149 177.179 515.588 177.408 515.924C177.637 516.26 177.921 516.521 178.262 516.708C178.607 516.895 178.948 517.037 179.284 517.135L181.867 517.898C182.24 518.01 182.544 518.169 182.777 518.374C183.015 518.575 183.134 518.857 183.134 519.221C183.134 519.557 183.029 519.846 182.819 520.089C182.614 520.327 182.341 520.511 182 520.642C181.659 520.768 181.286 520.831 180.88 520.831C180.227 520.831 179.655 520.661 179.165 520.32C178.675 519.979 178.353 519.499 178.199 518.878L176.673 519.109C176.785 519.748 177.028 520.301 177.401 520.768C177.774 521.23 178.253 521.587 178.836 521.839C179.419 522.086 180.073 522.21 180.796 522.21ZM189.505 522.21C190.238 522.21 190.903 522.026 191.5 521.657C192.097 521.284 192.543 520.759 192.837 520.082L191.402 519.627C191.019 520.43 190.364 520.831 189.435 520.831C188.8 520.831 188.301 520.64 187.937 520.257C187.573 519.874 187.361 519.333 187.3 518.633H192.935C192.986 517.728 192.879 516.946 192.613 516.288C192.347 515.63 191.943 515.124 191.402 514.769C190.861 514.41 190.205 514.23 189.435 514.23C188.698 514.23 188.051 514.396 187.496 514.727C186.941 515.058 186.507 515.527 186.194 516.134C185.886 516.741 185.732 517.457 185.732 518.283C185.732 519.062 185.888 519.748 186.201 520.341C186.518 520.929 186.959 521.389 187.524 521.72C188.093 522.047 188.754 522.21 189.505 522.21ZM189.491 515.525C190.634 515.525 191.283 516.181 191.437 517.492H187.335C187.428 516.853 187.655 516.365 188.014 516.029C188.373 515.693 188.866 515.525 189.491 515.525ZM194.293 525.36H195.763V521.468C196.029 521.706 196.335 521.888 196.68 522.014C197.03 522.145 197.42 522.21 197.849 522.21C198.554 522.21 199.161 522.035 199.669 521.685C200.183 521.33 200.577 520.852 200.852 520.25C201.132 519.648 201.272 518.969 201.272 518.213C201.272 517.452 201.132 516.773 200.852 516.176C200.572 515.574 200.173 515.1 199.655 514.755C199.142 514.405 198.531 514.23 197.821 514.23C197.355 514.23 196.935 514.309 196.561 514.468C196.188 514.622 195.866 514.839 195.595 515.119V514.44H194.293V525.36ZM197.646 520.887C196.928 520.887 196.405 520.637 196.078 520.138C195.756 519.639 195.595 518.997 195.595 518.213C195.595 517.429 195.756 516.79 196.078 516.295C196.4 515.8 196.907 515.553 197.597 515.553C198.083 515.553 198.482 515.672 198.794 515.91C199.107 516.148 199.338 516.468 199.487 516.869C199.641 517.27 199.718 517.718 199.718 518.213C199.718 518.712 199.644 519.165 199.494 519.571C199.345 519.972 199.116 520.292 198.808 520.53C198.505 520.768 198.118 520.887 197.646 520.887Z" fill="white"/>
<rect x="167.5" y="497.5" width="43" height="39" rx="11.5" stroke="white" stroke-opacity="0.12"/>
</g>
<g style="mix-blend-mode:screen">
<path d="M175.702 559.994H181.444V558.974H177.346L180.13 556.472C180.426 556.208 180.67 555.96 180.862 555.728C181.058 555.492 181.204 555.236 181.3 554.96C181.396 554.684 181.444 554.358 181.444 553.982C181.444 553.45 181.32 552.974 181.072 552.554C180.828 552.13 180.494 551.796 180.07 551.552C179.646 551.304 179.166 551.18 178.63 551.18C178.078 551.18 177.584 551.3 177.148 551.54C176.712 551.776 176.368 552.104 176.116 552.524C175.868 552.94 175.744 553.42 175.744 553.964H176.836C176.832 553.648 176.906 553.358 177.058 553.094C177.214 552.826 177.426 552.61 177.694 552.446C177.962 552.282 178.268 552.2 178.612 552.2C178.944 552.2 179.24 552.278 179.5 552.434C179.764 552.59 179.972 552.802 180.124 553.07C180.276 553.338 180.352 553.638 180.352 553.97C180.352 554.242 180.296 554.508 180.184 554.768C180.076 555.028 179.862 555.3 179.542 555.584L175.708 559.034L175.702 559.994ZM185.795 560.18C186.355 560.18 186.855 560.054 187.295 559.802C187.735 559.55 188.081 559.204 188.333 558.764C188.585 558.324 188.711 557.824 188.711 557.264V554.096C188.711 553.536 188.585 553.036 188.333 552.596C188.081 552.156 187.735 551.81 187.295 551.558C186.855 551.306 186.355 551.18 185.795 551.18C185.235 551.18 184.735 551.306 184.295 551.558C183.855 551.81 183.509 552.156 183.257 552.596C183.005 553.036 182.879 553.536 182.879 554.096V557.264C182.879 557.824 183.005 558.324 183.257 558.764C183.509 559.204 183.855 559.55 184.295 559.802C184.735 560.054 185.235 560.18 185.795 560.18ZM185.795 559.154C185.459 559.154 185.151 559.072 184.871 558.908C184.595 558.744 184.375 558.524 184.211 558.248C184.047 557.968 183.965 557.66 183.965 557.324V554.03C183.965 553.69 184.047 553.382 184.211 553.106C184.375 552.83 184.595 552.61 184.871 552.446C185.151 552.282 185.459 552.2 185.795 552.2C186.135 552.2 186.443 552.282 186.719 552.446C186.995 552.61 187.215 552.83 187.379 553.106C187.543 553.382 187.625 553.69 187.625 554.03V557.324C187.625 557.66 187.543 557.968 187.379 558.248C187.215 558.524 186.995 558.744 186.719 558.908C186.443 559.072 186.135 559.154 185.795 559.154ZM190.151 559.994H195.893V558.974H191.795L194.579 556.472C194.875 556.208 195.119 555.96 195.311 555.728C195.507 555.492 195.653 555.236 195.749 554.96C195.845 554.684 195.893 554.358 195.893 553.982C195.893 553.45 195.769 552.974 195.521 552.554C195.277 552.13 194.943 551.796 194.519 551.552C194.095 551.304 193.615 551.18 193.079 551.18C192.527 551.18 192.033 551.3 191.597 551.54C191.161 551.776 190.817 552.104 190.565 552.524C190.317 552.94 190.193 553.42 190.193 553.964H191.285C191.281 553.648 191.355 553.358 191.507 553.094C191.663 552.826 191.875 552.61 192.143 552.446C192.411 552.282 192.717 552.2 193.061 552.2C193.393 552.2 193.689 552.278 193.949 552.434C194.213 552.59 194.421 552.802 194.573 553.07C194.725 553.338 194.801 553.638 194.801 553.97C194.801 554.242 194.745 554.508 194.633 554.768C194.525 555.028 194.311 555.3 193.991 555.584L190.157 559.034L190.151 559.994ZM200.244 560.18C200.804 560.18 201.304 560.054 201.744 559.802C202.184 559.55 202.53 559.204 202.782 558.764C203.034 558.324 203.16 557.824 203.16 557.264V554.096C203.16 553.536 203.034 553.036 202.782 552.596C202.53 552.156 202.184 551.81 201.744 551.558C201.304 551.306 200.804 551.18 200.244 551.18C199.684 551.18 199.184 551.306 198.744 551.558C198.304 551.81 197.958 552.156 197.706 552.596C197.454 553.036 197.328 553.536 197.328 554.096V557.264C197.328 557.824 197.454 558.324 197.706 558.764C197.958 559.204 198.304 559.55 198.744 559.802C199.184 560.054 199.684 560.18 200.244 560.18ZM200.244 559.154C199.908 559.154 199.6 559.072 199.32 558.908C199.044 558.744 198.824 558.524 198.66 558.248C198.496 557.968 198.414 557.66 198.414 557.324V554.03C198.414 553.69 198.496 553.382 198.66 553.106C198.824 552.83 199.044 552.61 199.32 552.446C199.6 552.282 199.908 552.2 200.244 552.2C200.584 552.2 200.892 552.282 201.168 552.446C201.444 552.61 201.664 552.83 201.828 553.106C201.992 553.382 202.074 553.69 202.074 554.03V557.324C202.074 557.66 201.992 557.968 201.828 558.248C201.664 558.524 201.444 558.744 201.168 558.908C200.892 559.072 200.584 559.154 200.244 559.154Z" fill="white" fill-opacity="0.16"/>
</g>
<path d="M126.272 358H127.539V347.92H126.272L124.375 349.054V350.447L126.272 349.299V358ZM133.605 358.21C134.258 358.21 134.841 358.063 135.355 357.769C135.868 357.475 136.272 357.071 136.566 356.558C136.86 356.045 137.007 355.461 137.007 354.808V351.112C137.007 350.459 136.86 349.875 136.566 349.362C136.272 348.849 135.868 348.445 135.355 348.151C134.841 347.857 134.258 347.71 133.605 347.71C132.951 347.71 132.368 347.857 131.855 348.151C131.341 348.445 130.938 348.849 130.644 349.362C130.35 349.875 130.203 350.459 130.203 351.112V354.808C130.203 355.461 130.35 356.045 130.644 356.558C130.938 357.071 131.341 357.475 131.855 357.769C132.368 358.063 132.951 358.21 133.605 358.21ZM133.605 357.013C133.213 357.013 132.853 356.917 132.527 356.726C132.205 356.535 131.948 356.278 131.757 355.956C131.565 355.629 131.47 355.27 131.47 354.878V351.035C131.47 350.638 131.565 350.279 131.757 349.957C131.948 349.635 132.205 349.378 132.527 349.187C132.853 348.996 133.213 348.9 133.605 348.9C134.001 348.9 134.361 348.996 134.683 349.187C135.005 349.378 135.261 349.635 135.453 349.957C135.644 350.279 135.74 350.638 135.74 351.035V354.878C135.74 355.27 135.644 355.629 135.453 355.956C135.261 356.278 135.005 356.535 134.683 356.726C134.361 356.917 134.001 357.013 133.605 357.013ZM141.762 358H142.875V357.146C143.15 357.477 143.484 357.739 143.876 357.93C144.273 358.117 144.728 358.21 145.241 358.21C145.946 358.21 146.55 358.035 147.054 357.685C147.563 357.33 147.952 356.852 148.223 356.25C148.494 355.648 148.629 354.969 148.629 354.213C148.629 353.457 148.494 352.778 148.223 352.176C147.952 351.574 147.563 351.1 147.054 350.755C146.55 350.405 145.948 350.23 145.248 350.23C144.777 350.23 144.354 350.309 143.981 350.468C143.608 350.627 143.286 350.846 143.015 351.126V347.92H141.762V358ZM145.087 357.069C144.326 357.069 143.766 356.801 143.407 356.264C143.052 355.727 142.875 355.044 142.875 354.213C142.875 353.378 143.052 352.696 143.407 352.169C143.766 351.637 144.315 351.371 145.052 351.371C145.565 351.371 145.988 351.497 146.319 351.749C146.655 352.001 146.902 352.342 147.061 352.771C147.224 353.2 147.306 353.681 147.306 354.213C147.306 354.75 147.224 355.235 147.061 355.669C146.898 356.098 146.653 356.439 146.326 356.691C145.999 356.943 145.586 357.069 145.087 357.069ZM150.304 349.103H151.55V347.815H150.304V349.103ZM150.304 358H151.55V350.44H150.304V358ZM153.79 358H155.036V347.71H153.79V358ZM157.276 358H158.522V347.71H157.276V358ZM160.763 349.103H162.009V347.815H160.763V349.103ZM160.763 358H162.009V350.44H160.763V358ZM167.329 358.21C168.08 358.21 168.727 358.042 169.268 357.706C169.814 357.37 170.234 356.901 170.528 356.299C170.827 355.697 170.976 355.002 170.976 354.213C170.976 353.434 170.829 352.745 170.535 352.148C170.246 351.546 169.828 351.077 169.282 350.741C168.736 350.4 168.085 350.23 167.329 350.23C166.592 350.23 165.95 350.398 165.404 350.734C164.858 351.065 164.436 351.53 164.137 352.127C163.838 352.724 163.689 353.42 163.689 354.213C163.689 354.992 163.834 355.683 164.123 356.285C164.417 356.887 164.837 357.358 165.383 357.699C165.929 358.04 166.578 358.21 167.329 358.21ZM167.329 357.027C166.568 357.027 165.992 356.773 165.6 356.264C165.208 355.751 165.012 355.067 165.012 354.213C165.012 353.387 165.201 352.715 165.579 352.197C165.957 351.674 166.54 351.413 167.329 351.413C168.104 351.413 168.685 351.667 169.072 352.176C169.459 352.685 169.653 353.364 169.653 354.213C169.653 355.044 169.459 355.72 169.072 356.243C168.689 356.766 168.108 357.027 167.329 357.027ZM172.51 358H173.77V354.017C173.77 353.14 173.959 352.489 174.337 352.064C174.72 351.639 175.224 351.427 175.849 351.427C176.381 351.427 176.796 351.56 177.095 351.826C177.394 352.092 177.601 352.437 177.718 352.862C177.839 353.287 177.9 353.737 177.9 354.213V358H179.16V353.821C179.16 353.462 179.116 353.077 179.027 352.666C178.943 352.251 178.789 351.861 178.565 351.497C178.346 351.128 178.04 350.827 177.648 350.594C177.261 350.361 176.761 350.244 176.15 350.244C175.049 350.244 174.209 350.634 173.63 351.413V350.44H172.51V358Z" fill="white"/>
<path d="M126.272 358H127.539V347.92H126.272L124.375 349.054V350.447L126.272 349.299V358ZM133.605 358.21C134.258 358.21 134.841 358.063 135.355 357.769C135.868 357.475 136.272 357.071 136.566 356.558C136.86 356.045 137.007 355.461 137.007 354.808V351.112C137.007 350.459 136.86 349.875 136.566 349.362C136.272 348.849 135.868 348.445 135.355 348.151C134.841 347.857 134.258 347.71 133.605 347.71C132.951 347.71 132.368 347.857 131.855 348.151C131.341 348.445 130.938 348.849 130.644 349.362C130.35 349.875 130.203 350.459 130.203 351.112V354.808C130.203 355.461 130.35 356.045 130.644 356.558C130.938 357.071 131.341 357.475 131.855 357.769C132.368 358.063 132.951 358.21 133.605 358.21ZM133.605 357.013C133.213 357.013 132.853 356.917 132.527 356.726C132.205 356.535 131.948 356.278 131.757 355.956C131.565 355.629 131.47 355.27 131.47 354.878V351.035C131.47 350.638 131.565 350.279 131.757 349.957C131.948 349.635 132.205 349.378 132.527 349.187C132.853 348.996 133.213 348.9 133.605 348.9C134.001 348.9 134.361 348.996 134.683 349.187C135.005 349.378 135.261 349.635 135.453 349.957C135.644 350.279 135.74 350.638 135.74 351.035V354.878C135.74 355.27 135.644 355.629 135.453 355.956C135.261 356.278 135.005 356.535 134.683 356.726C134.361 356.917 134.001 357.013 133.605 357.013ZM141.762 358H142.875V357.146C143.15 357.477 143.484 357.739 143.876 357.93C144.273 358.117 144.728 358.21 145.241 358.21C145.946 358.21 146.55 358.035 147.054 357.685C147.563 357.33 147.952 356.852 148.223 356.25C148.494 355.648 148.629 354.969 148.629 354.213C148.629 353.457 148.494 352.778 148.223 352.176C147.952 351.574 147.563 351.1 147.054 350.755C146.55 350.405 145.948 350.23 145.248 350.23C144.777 350.23 144.354 350.309 143.981 350.468C143.608 350.627 143.286 350.846 143.015 351.126V347.92H141.762V358ZM145.087 357.069C144.326 357.069 143.766 356.801 143.407 356.264C143.052 355.727 142.875 355.044 142.875 354.213C142.875 353.378 143.052 352.696 143.407 352.169C143.766 351.637 144.315 351.371 145.052 351.371C145.565 351.371 145.988 351.497 146.319 351.749C146.655 352.001 146.902 352.342 147.061 352.771C147.224 353.2 147.306 353.681 147.306 354.213C147.306 354.75 147.224 355.235 147.061 355.669C146.898 356.098 146.653 356.439 146.326 356.691C145.999 356.943 145.586 357.069 145.087 357.069ZM150.304 349.103H151.55V347.815H150.304V349.103ZM150.304 358H151.55V350.44H150.304V358ZM153.79 358H155.036V347.71H153.79V358ZM157.276 358H158.522V347.71H157.276V358ZM160.763 349.103H162.009V347.815H160.763V349.103ZM160.763 358H162.009V350.44H160.763V358ZM167.329 358.21C168.08 358.21 168.727 358.042 169.268 357.706C169.814 357.37 170.234 356.901 170.528 356.299C170.827 355.697 170.976 355.002 170.976 354.213C170.976 353.434 170.829 352.745 170.535 352.148C170.246 351.546 169.828 351.077 169.282 350.741C168.736 350.4 168.085 350.23 167.329 350.23C166.592 350.23 165.95 350.398 165.404 350.734C164.858 351.065 164.436 351.53 164.137 352.127C163.838 352.724 163.689 353.42 163.689 354.213C163.689 354.992 163.834 355.683 164.123 356.285C164.417 356.887 164.837 357.358 165.383 357.699C165.929 358.04 166.578 358.21 167.329 358.21ZM167.329 357.027C166.568 357.027 165.992 356.773 165.6 356.264C165.208 355.751 165.012 355.067 165.012 354.213C165.012 353.387 165.201 352.715 165.579 352.197C165.957 351.674 166.54 351.413 167.329 351.413C168.104 351.413 168.685 351.667 169.072 352.176C169.459 352.685 169.653 353.364 169.653 354.213C169.653 355.044 169.459 355.72 169.072 356.243C168.689 356.766 168.108 357.027 167.329 357.027ZM172.51 358H173.77V354.017C173.77 353.14 173.959 352.489 174.337 352.064C174.72 351.639 175.224 351.427 175.849 351.427C176.381 351.427 176.796 351.56 177.095 351.826C177.394 352.092 177.601 352.437 177.718 352.862C177.839 353.287 177.9 353.737 177.9 354.213V358H179.16V353.821C179.16 353.462 179.116 353.077 179.027 352.666C178.943 352.251 178.789 351.861 178.565 351.497C178.346 351.128 178.04 350.827 177.648 350.594C177.261 350.361 176.761 350.244 176.15 350.244C175.049 350.244 174.209 350.634 173.63 351.413V350.44H172.51V358Z" fill="url(#paint2_linear_138_2652)"/>
<g style="mix-blend-mode:screen">
<line x1="245.5" y1="250" x2="245.5" y2="497" stroke="white" stroke-opacity="0.12"/>
</g>
<g style="mix-blend-mode:screen">
<path d="M236.796 522.21C237.491 522.21 238.131 522.093 238.714 521.86C239.302 521.627 239.773 521.281 240.128 520.824C240.483 520.367 240.66 519.8 240.66 519.123C240.66 518.633 240.569 518.227 240.387 517.905C240.205 517.578 239.974 517.317 239.694 517.121C239.419 516.925 239.132 516.773 238.833 516.666C238.539 516.554 238.275 516.465 238.042 516.4L236.18 515.875C235.942 515.81 235.702 515.728 235.459 515.63C235.221 515.527 235.02 515.39 234.857 515.217C234.694 515.044 234.612 514.818 234.612 514.538C234.612 514.249 234.703 513.997 234.885 513.782C235.072 513.563 235.319 513.392 235.627 513.271C235.94 513.15 236.283 513.094 236.656 513.103C237.235 513.108 237.746 513.273 238.189 513.6C238.637 513.922 238.915 514.368 239.022 514.937L240.59 514.671C240.385 513.742 239.937 513.021 239.246 512.508C238.555 511.99 237.699 511.726 236.677 511.717C236 511.712 235.389 511.822 234.843 512.046C234.297 512.27 233.863 512.597 233.541 513.026C233.224 513.455 233.065 513.983 233.065 514.608C233.065 515.149 233.179 515.588 233.408 515.924C233.637 516.26 233.921 516.521 234.262 516.708C234.607 516.895 234.948 517.037 235.284 517.135L237.867 517.898C238.24 518.01 238.544 518.169 238.777 518.374C239.015 518.575 239.134 518.857 239.134 519.221C239.134 519.557 239.029 519.846 238.819 520.089C238.614 520.327 238.341 520.511 238 520.642C237.659 520.768 237.286 520.831 236.88 520.831C236.227 520.831 235.655 520.661 235.165 520.32C234.675 519.979 234.353 519.499 234.199 518.878L232.673 519.109C232.785 519.748 233.028 520.301 233.401 520.768C233.774 521.23 234.253 521.587 234.836 521.839C235.419 522.086 236.073 522.21 236.796 522.21ZM245.505 522.21C246.238 522.21 246.903 522.026 247.5 521.657C248.097 521.284 248.543 520.759 248.837 520.082L247.402 519.627C247.019 520.43 246.364 520.831 245.435 520.831C244.8 520.831 244.301 520.64 243.937 520.257C243.573 519.874 243.361 519.333 243.3 518.633H248.935C248.986 517.728 248.879 516.946 248.613 516.288C248.347 515.63 247.943 515.124 247.402 514.769C246.861 514.41 246.205 514.23 245.435 514.23C244.698 514.23 244.051 514.396 243.496 514.727C242.941 515.058 242.507 515.527 242.194 516.134C241.886 516.741 241.732 517.457 241.732 518.283C241.732 519.062 241.888 519.748 242.201 520.341C242.518 520.929 242.959 521.389 243.524 521.72C244.093 522.047 244.754 522.21 245.505 522.21ZM245.491 515.525C246.634 515.525 247.283 516.181 247.437 517.492H243.335C243.428 516.853 243.655 516.365 244.014 516.029C244.373 515.693 244.866 515.525 245.491 515.525ZM250.293 525.36H251.763V521.468C252.029 521.706 252.335 521.888 252.68 522.014C253.03 522.145 253.42 522.21 253.849 522.21C254.554 522.21 255.161 522.035 255.669 521.685C256.183 521.33 256.577 520.852 256.852 520.25C257.132 519.648 257.272 518.969 257.272 518.213C257.272 517.452 257.132 516.773 256.852 516.176C256.572 515.574 256.173 515.1 255.655 514.755C255.142 514.405 254.531 514.23 253.821 514.23C253.355 514.23 252.935 514.309 252.561 514.468C252.188 514.622 251.866 514.839 251.595 515.119V514.44H250.293V525.36ZM253.646 520.887C252.928 520.887 252.405 520.637 252.078 520.138C251.756 519.639 251.595 518.997 251.595 518.213C251.595 517.429 251.756 516.79 252.078 516.295C252.4 515.8 252.907 515.553 253.597 515.553C254.083 515.553 254.482 515.672 254.794 515.91C255.107 516.148 255.338 516.468 255.487 516.869C255.641 517.27 255.718 517.718 255.718 518.213C255.718 518.712 255.644 519.165 255.494 519.571C255.345 519.972 255.116 520.292 254.808 520.53C254.505 520.768 254.118 520.887 253.646 520.887Z" fill="white"/>
<rect x="223.5" y="497.5" width="43" height="39" rx="11.5" stroke="white" stroke-opacity="0.12"/>
</g>
<g style="mix-blend-mode:screen">
<path d="M234.338 559.994H240.08V558.974H235.982L238.766 556.472C239.062 556.208 239.306 555.96 239.498 555.728C239.694 555.492 239.84 555.236 239.936 554.96C240.032 554.684 240.08 554.358 240.08 553.982C240.08 553.45 239.956 552.974 239.708 552.554C239.464 552.13 239.13 551.796 238.706 551.552C238.282 551.304 237.802 551.18 237.266 551.18C236.714 551.18 236.22 551.3 235.784 551.54C235.348 551.776 235.004 552.104 234.752 552.524C234.504 552.94 234.38 553.42 234.38 553.964H235.472C235.468 553.648 235.542 553.358 235.694 553.094C235.85 552.826 236.062 552.61 236.33 552.446C236.598 552.282 236.904 552.2 237.248 552.2C237.58 552.2 237.876 552.278 238.136 552.434C238.4 552.59 238.608 552.802 238.76 553.07C238.912 553.338 238.988 553.638 238.988 553.97C238.988 554.242 238.932 554.508 238.82 554.768C238.712 555.028 238.498 555.3 238.178 555.584L234.344 559.034L234.338 559.994ZM244.432 560.18C244.992 560.18 245.492 560.054 245.932 559.802C246.372 559.55 246.718 559.204 246.97 558.764C247.222 558.324 247.348 557.824 247.348 557.264V554.096C247.348 553.536 247.222 553.036 246.97 552.596C246.718 552.156 246.372 551.81 245.932 551.558C245.492 551.306 244.992 551.18 244.432 551.18C243.872 551.18 243.372 551.306 242.932 551.558C242.492 551.81 242.146 552.156 241.894 552.596C241.642 553.036 241.516 553.536 241.516 554.096V557.264C241.516 557.824 241.642 558.324 241.894 558.764C242.146 559.204 242.492 559.55 242.932 559.802C243.372 560.054 243.872 560.18 244.432 560.18ZM244.432 559.154C244.096 559.154 243.788 559.072 243.508 558.908C243.232 558.744 243.012 558.524 242.848 558.248C242.684 557.968 242.602 557.66 242.602 557.324V554.03C242.602 553.69 242.684 553.382 242.848 553.106C243.012 552.83 243.232 552.61 243.508 552.446C243.788 552.282 244.096 552.2 244.432 552.2C244.772 552.2 245.08 552.282 245.356 552.446C245.632 552.61 245.852 552.83 246.016 553.106C246.18 553.382 246.262 553.69 246.262 554.03V557.324C246.262 557.66 246.18 557.968 246.016 558.248C245.852 558.524 245.632 558.744 245.356 558.908C245.08 559.072 244.772 559.154 244.432 559.154ZM248.788 559.994H254.53V558.974H250.432L253.216 556.472C253.512 556.208 253.756 555.96 253.948 555.728C254.144 555.492 254.29 555.236 254.385 554.96C254.482 554.684 254.53 554.358 254.53 553.982C254.53 553.45 254.406 552.974 254.158 552.554C253.914 552.13 253.58 551.796 253.156 551.552C252.732 551.304 252.252 551.18 251.715 551.18C251.164 551.18 250.67 551.3 250.234 551.54C249.798 551.776 249.454 552.104 249.202 552.524C248.954 552.94 248.83 553.42 248.83 553.964H249.922C249.918 553.648 249.992 553.358 250.144 553.094C250.3 552.826 250.512 552.61 250.78 552.446C251.048 552.282 251.354 552.2 251.698 552.2C252.03 552.2 252.326 552.278 252.586 552.434C252.85 552.59 253.058 552.802 253.21 553.07C253.362 553.338 253.438 553.638 253.438 553.97C253.438 554.242 253.382 554.508 253.27 554.768C253.162 555.028 252.948 555.3 252.628 555.584L248.794 559.034L248.788 559.994ZM257.471 560H258.557V551.36H257.471L255.845 552.332V553.526L257.471 552.542V560Z" fill="white" fill-opacity="0.16"/>
</g>
<path d="M176.585 228H177.852V217.92H176.585L174.688 219.054V220.447L176.585 219.299V228ZM182.272 228H183.539V217.92H182.272L180.375 219.054V220.447L182.272 219.299V228ZM189.605 228.21C190.258 228.21 190.841 228.063 191.355 227.769C191.868 227.475 192.272 227.071 192.566 226.558C192.86 226.045 193.007 225.461 193.007 224.808V221.112C193.007 220.459 192.86 219.875 192.566 219.362C192.272 218.849 191.868 218.445 191.355 218.151C190.841 217.857 190.258 217.71 189.605 217.71C188.951 217.71 188.368 217.857 187.855 218.151C187.341 218.445 186.938 218.849 186.644 219.362C186.35 219.875 186.203 220.459 186.203 221.112V224.808C186.203 225.461 186.35 226.045 186.644 226.558C186.938 227.071 187.341 227.475 187.855 227.769C188.368 228.063 188.951 228.21 189.605 228.21ZM189.605 227.013C189.213 227.013 188.853 226.917 188.527 226.726C188.205 226.535 187.948 226.278 187.757 225.956C187.565 225.629 187.47 225.27 187.47 224.878V221.035C187.47 220.638 187.565 220.279 187.757 219.957C187.948 219.635 188.205 219.378 188.527 219.187C188.853 218.996 189.213 218.9 189.605 218.9C190.001 218.9 190.361 218.996 190.683 219.187C191.005 219.378 191.261 219.635 191.453 219.957C191.644 220.279 191.74 220.638 191.74 221.035V224.878C191.74 225.27 191.644 225.629 191.453 225.956C191.261 226.278 191.005 226.535 190.683 226.726C190.361 226.917 190.001 227.013 189.605 227.013ZM197.762 228H198.875V227.146C199.15 227.477 199.484 227.739 199.876 227.93C200.273 228.117 200.728 228.21 201.241 228.21C201.946 228.21 202.55 228.035 203.054 227.685C203.563 227.33 203.952 226.852 204.223 226.25C204.494 225.648 204.629 224.969 204.629 224.213C204.629 223.457 204.494 222.778 204.223 222.176C203.952 221.574 203.563 221.1 203.054 220.755C202.55 220.405 201.948 220.23 201.248 220.23C200.777 220.23 200.354 220.309 199.981 220.468C199.608 220.627 199.286 220.846 199.015 221.126V217.92H197.762V228ZM201.087 227.069C200.326 227.069 199.766 226.801 199.407 226.264C199.052 225.727 198.875 225.044 198.875 224.213C198.875 223.378 199.052 222.696 199.407 222.169C199.766 221.637 200.315 221.371 201.052 221.371C201.565 221.371 201.988 221.497 202.319 221.749C202.655 222.001 202.902 222.342 203.061 222.771C203.224 223.2 203.306 223.681 203.306 224.213C203.306 224.75 203.224 225.235 203.061 225.669C202.898 226.098 202.653 226.439 202.326 226.691C201.999 226.943 201.586 227.069 201.087 227.069ZM206.304 219.103H207.55V217.815H206.304V219.103ZM206.304 228H207.55V220.44H206.304V228ZM209.79 228H211.036V217.71H209.79V228ZM213.276 228H214.522V217.71H213.276V228ZM216.763 219.103H218.009V217.815H216.763V219.103ZM216.763 228H218.009V220.44H216.763V228ZM223.329 228.21C224.08 228.21 224.727 228.042 225.268 227.706C225.814 227.37 226.234 226.901 226.528 226.299C226.827 225.697 226.976 225.002 226.976 224.213C226.976 223.434 226.829 222.745 226.535 222.148C226.246 221.546 225.828 221.077 225.282 220.741C224.736 220.4 224.085 220.23 223.329 220.23C222.592 220.23 221.95 220.398 221.404 220.734C220.858 221.065 220.436 221.53 220.137 222.127C219.838 222.724 219.689 223.42 219.689 224.213C219.689 224.992 219.834 225.683 220.123 226.285C220.417 226.887 220.837 227.358 221.383 227.699C221.929 228.04 222.578 228.21 223.329 228.21ZM223.329 227.027C222.568 227.027 221.992 226.773 221.6 226.264C221.208 225.751 221.012 225.067 221.012 224.213C221.012 223.387 221.201 222.715 221.579 222.197C221.957 221.674 222.54 221.413 223.329 221.413C224.104 221.413 224.685 221.667 225.072 222.176C225.459 222.685 225.653 223.364 225.653 224.213C225.653 225.044 225.459 225.72 225.072 226.243C224.689 226.766 224.108 227.027 223.329 227.027ZM228.51 228H229.77V224.017C229.77 223.14 229.959 222.489 230.337 222.064C230.72 221.639 231.224 221.427 231.849 221.427C232.381 221.427 232.796 221.56 233.095 221.826C233.394 222.092 233.601 222.437 233.718 222.862C233.839 223.287 233.9 223.737 233.9 224.213V228H235.16V223.821C235.16 223.462 235.116 223.077 235.027 222.666C234.943 222.251 234.789 221.861 234.565 221.497C234.346 221.128 234.04 220.827 233.648 220.594C233.261 220.361 232.761 220.244 232.15 220.244C231.049 220.244 230.209 220.634 229.63 221.413V220.44H228.51V228Z" fill="white"/>
<path d="M176.585 228H177.852V217.92H176.585L174.688 219.054V220.447L176.585 219.299V228ZM182.272 228H183.539V217.92H182.272L180.375 219.054V220.447L182.272 219.299V228ZM189.605 228.21C190.258 228.21 190.841 228.063 191.355 227.769C191.868 227.475 192.272 227.071 192.566 226.558C192.86 226.045 193.007 225.461 193.007 224.808V221.112C193.007 220.459 192.86 219.875 192.566 219.362C192.272 218.849 191.868 218.445 191.355 218.151C190.841 217.857 190.258 217.71 189.605 217.71C188.951 217.71 188.368 217.857 187.855 218.151C187.341 218.445 186.938 218.849 186.644 219.362C186.35 219.875 186.203 220.459 186.203 221.112V224.808C186.203 225.461 186.35 226.045 186.644 226.558C186.938 227.071 187.341 227.475 187.855 227.769C188.368 228.063 188.951 228.21 189.605 228.21ZM189.605 227.013C189.213 227.013 188.853 226.917 188.527 226.726C188.205 226.535 187.948 226.278 187.757 225.956C187.565 225.629 187.47 225.27 187.47 224.878V221.035C187.47 220.638 187.565 220.279 187.757 219.957C187.948 219.635 188.205 219.378 188.527 219.187C188.853 218.996 189.213 218.9 189.605 218.9C190.001 218.9 190.361 218.996 190.683 219.187C191.005 219.378 191.261 219.635 191.453 219.957C191.644 220.279 191.74 220.638 191.74 221.035V224.878C191.74 225.27 191.644 225.629 191.453 225.956C191.261 226.278 191.005 226.535 190.683 226.726C190.361 226.917 190.001 227.013 189.605 227.013ZM197.762 228H198.875V227.146C199.15 227.477 199.484 227.739 199.876 227.93C200.273 228.117 200.728 228.21 201.241 228.21C201.946 228.21 202.55 228.035 203.054 227.685C203.563 227.33 203.952 226.852 204.223 226.25C204.494 225.648 204.629 224.969 204.629 224.213C204.629 223.457 204.494 222.778 204.223 222.176C203.952 221.574 203.563 221.1 203.054 220.755C202.55 220.405 201.948 220.23 201.248 220.23C200.777 220.23 200.354 220.309 199.981 220.468C199.608 220.627 199.286 220.846 199.015 221.126V217.92H197.762V228ZM201.087 227.069C200.326 227.069 199.766 226.801 199.407 226.264C199.052 225.727 198.875 225.044 198.875 224.213C198.875 223.378 199.052 222.696 199.407 222.169C199.766 221.637 200.315 221.371 201.052 221.371C201.565 221.371 201.988 221.497 202.319 221.749C202.655 222.001 202.902 222.342 203.061 222.771C203.224 223.2 203.306 223.681 203.306 224.213C203.306 224.75 203.224 225.235 203.061 225.669C202.898 226.098 202.653 226.439 202.326 226.691C201.999 226.943 201.586 227.069 201.087 227.069ZM206.304 219.103H207.55V217.815H206.304V219.103ZM206.304 228H207.55V220.44H206.304V228ZM209.79 228H211.036V217.71H209.79V228ZM213.276 228H214.522V217.71H213.276V228ZM216.763 219.103H218.009V217.815H216.763V219.103ZM216.763 228H218.009V220.44H216.763V228ZM223.329 228.21C224.08 228.21 224.727 228.042 225.268 227.706C225.814 227.37 226.234 226.901 226.528 226.299C226.827 225.697 226.976 225.002 226.976 224.213C226.976 223.434 226.829 222.745 226.535 222.148C226.246 221.546 225.828 221.077 225.282 220.741C224.736 220.4 224.085 220.23 223.329 220.23C222.592 220.23 221.95 220.398 221.404 220.734C220.858 221.065 220.436 221.53 220.137 222.127C219.838 222.724 219.689 223.42 219.689 224.213C219.689 224.992 219.834 225.683 220.123 226.285C220.417 226.887 220.837 227.358 221.383 227.699C221.929 228.04 222.578 228.21 223.329 228.21ZM223.329 227.027C222.568 227.027 221.992 226.773 221.6 226.264C221.208 225.751 221.012 225.067 221.012 224.213C221.012 223.387 221.201 222.715 221.579 222.197C221.957 221.674 222.54 221.413 223.329 221.413C224.104 221.413 224.685 221.667 225.072 222.176C225.459 222.685 225.653 223.364 225.653 224.213C225.653 225.044 225.459 225.72 225.072 226.243C224.689 226.766 224.108 227.027 223.329 227.027ZM228.51 228H229.77V224.017C229.77 223.14 229.959 222.489 230.337 222.064C230.72 221.639 231.224 221.427 231.849 221.427C232.381 221.427 232.796 221.56 233.095 221.826C233.394 222.092 233.601 222.437 233.718 222.862C233.839 223.287 233.9 223.737 233.9 224.213V228H235.16V223.821C235.16 223.462 235.116 223.077 235.027 222.666C234.943 222.251 234.789 221.861 234.565 221.497C234.346 221.128 234.04 220.827 233.648 220.594C233.261 220.361 232.761 220.244 232.15 220.244C231.049 220.244 230.209 220.634 229.63 221.413V220.44H228.51V228Z" fill="url(#paint3_linear_138_2652)"/>
<g style="mix-blend-mode:screen">
<line x1="301.5" y1="113" x2="301.5" y2="497" stroke="#28E7C5"/>
</g>
<g style="mix-blend-mode:screen">
<rect x="279" y="497" width="44" height="40" rx="12" fill="#28E7C5"/>
<path d="M287.378 522H288.862V514.503L293.825 522H295.309V511.92H293.825V519.41L288.862 511.92H287.378V522ZM300.546 522.21C301.298 522.21 301.951 522.042 302.506 521.706C303.062 521.365 303.491 520.896 303.794 520.299C304.102 519.697 304.256 519.002 304.256 518.213C304.256 517.434 304.105 516.745 303.801 516.148C303.498 515.546 303.069 515.077 302.513 514.741C301.958 514.4 301.302 514.23 300.546 514.23C299.804 514.23 299.156 514.398 298.6 514.734C298.045 515.07 297.613 515.537 297.305 516.134C296.997 516.731 296.843 517.424 296.843 518.213C296.843 518.992 296.995 519.683 297.298 520.285C297.602 520.887 298.029 521.358 298.579 521.699C299.135 522.04 299.79 522.21 300.546 522.21ZM300.546 520.831C299.842 520.831 299.307 520.595 298.943 520.124C298.579 519.648 298.397 519.011 298.397 518.213C298.397 517.443 298.572 516.818 298.922 516.337C299.272 515.852 299.814 515.609 300.546 515.609C301.26 515.609 301.797 515.845 302.156 516.316C302.52 516.787 302.702 517.42 302.702 518.213C302.702 518.988 302.523 519.618 302.163 520.103C301.809 520.588 301.27 520.831 300.546 520.831ZM307.131 522H308.307L310.078 516.526L311.842 522H313.018L315.328 514.44H313.886L312.304 519.627L310.708 514.44H309.448L307.852 519.627L306.27 514.44L304.821 514.433L307.131 522Z" fill="white"/>
</g>
<path d="M230.247 91H231.514V80.92H230.247L228.35 82.054V83.447L230.247 82.299V91ZM237.614 91.21C238.24 91.21 238.811 91.0607 239.329 90.762C239.852 90.4587 240.27 90.0527 240.582 89.544C240.895 89.0307 241.051 88.4613 241.051 87.836C241.051 87.2107 240.907 86.6483 240.617 86.149C240.333 85.645 239.941 85.246 239.441 84.952C238.947 84.658 238.387 84.511 237.761 84.511C237.309 84.511 236.882 84.6043 236.48 84.791C236.084 84.9777 235.738 85.232 235.444 85.554V84.182C235.444 83.7807 235.54 83.4073 235.731 83.062C235.927 82.712 236.198 82.432 236.543 82.222C236.889 82.0073 237.283 81.9 237.726 81.9C238.1 81.9 238.447 81.9887 238.769 82.166C239.091 82.3387 239.353 82.5697 239.553 82.859L240.484 82.033C240.158 81.6083 239.754 81.284 239.273 81.06C238.797 80.8313 238.282 80.717 237.726 80.717C237.036 80.717 236.424 80.871 235.892 81.179C235.36 81.487 234.94 81.9117 234.632 82.453C234.329 82.9943 234.177 83.6173 234.177 84.322V87.675C234.177 88.347 234.329 88.9513 234.632 89.488C234.94 90.02 235.353 90.44 235.871 90.748C236.394 91.056 236.975 91.21 237.614 91.21ZM237.614 90.006C237.213 90.006 236.847 89.908 236.515 89.712C236.189 89.516 235.927 89.2547 235.731 88.928C235.54 88.5967 235.444 88.2327 235.444 87.836C235.444 87.4347 235.542 87.0707 235.738 86.744C235.934 86.4127 236.196 86.149 236.522 85.953C236.854 85.757 237.22 85.659 237.621 85.659C238.023 85.659 238.387 85.757 238.713 85.953C239.045 86.149 239.306 86.4127 239.497 86.744C239.693 87.0707 239.791 87.4347 239.791 87.836C239.791 88.2373 239.693 88.6037 239.497 88.935C239.301 89.2617 239.038 89.523 238.706 89.719C238.38 89.9103 238.016 90.006 237.614 90.006ZM242.593 90.993H249.292V89.803H244.511L247.759 86.884C248.104 86.576 248.389 86.2867 248.613 86.016C248.841 85.7407 249.012 85.442 249.124 85.12C249.236 84.798 249.292 84.4177 249.292 83.979C249.292 83.3583 249.147 82.803 248.858 82.313C248.573 81.8183 248.183 81.4287 247.689 81.144C247.194 80.8547 246.634 80.71 246.009 80.71C245.365 80.71 244.788 80.85 244.28 81.13C243.771 81.4053 243.37 81.788 243.076 82.278C242.786 82.7633 242.642 83.3233 242.642 83.958H243.916C243.911 83.5893 243.997 83.251 244.175 82.943C244.357 82.6303 244.604 82.3783 244.917 82.187C245.229 81.9957 245.586 81.9 245.988 81.9C246.375 81.9 246.72 81.991 247.024 82.173C247.332 82.355 247.574 82.6023 247.752 82.915C247.929 83.2277 248.018 83.5777 248.018 83.965C248.018 84.2823 247.952 84.5927 247.822 84.896C247.696 85.1993 247.446 85.5167 247.073 85.848L242.6 89.873L242.593 90.993ZM253.762 91H254.875V90.146C255.15 90.4773 255.484 90.7387 255.876 90.93C256.273 91.1167 256.728 91.21 257.241 91.21C257.946 91.21 258.55 91.035 259.054 90.685C259.563 90.3303 259.952 89.852 260.223 89.25C260.494 88.648 260.629 87.969 260.629 87.213C260.629 86.457 260.494 85.778 260.223 85.176C259.952 84.574 259.563 84.1003 259.054 83.755C258.55 83.405 257.948 83.23 257.248 83.23C256.777 83.23 256.354 83.3093 255.981 83.468C255.608 83.6267 255.286 83.846 255.015 84.126V80.92H253.762V91ZM257.087 90.069C256.326 90.069 255.766 89.8007 255.407 89.264C255.052 88.7273 254.875 88.0437 254.875 87.213C254.875 86.3777 255.052 85.6963 255.407 85.169C255.766 84.637 256.315 84.371 257.052 84.371C257.565 84.371 257.988 84.497 258.319 84.749C258.655 85.001 258.902 85.3417 259.061 85.771C259.224 86.2003 259.306 86.681 259.306 87.213C259.306 87.7497 259.224 88.235 259.061 88.669C258.898 89.0983 258.653 89.439 258.326 89.691C257.999 89.943 257.586 90.069 257.087 90.069ZM262.304 82.103H263.55V80.815H262.304V82.103ZM262.304 91H263.55V83.44H262.304V91ZM265.79 91H267.036V80.71H265.79V91ZM269.276 91H270.522V80.71H269.276V91ZM272.763 82.103H274.009V80.815H272.763V82.103ZM272.763 91H274.009V83.44H272.763V91ZM279.329 91.21C280.08 91.21 280.727 91.042 281.268 90.706C281.814 90.37 282.234 89.901 282.528 89.299C282.827 88.697 282.976 88.0017 282.976 87.213C282.976 86.4337 282.829 85.7453 282.535 85.148C282.246 84.546 281.828 84.077 281.282 83.741C280.736 83.4003 280.085 83.23 279.329 83.23C278.592 83.23 277.95 83.398 277.404 83.734C276.858 84.0653 276.436 84.5297 276.137 85.127C275.838 85.7243 275.689 86.4197 275.689 87.213C275.689 87.9923 275.834 88.683 276.123 89.285C276.417 89.887 276.837 90.3583 277.383 90.699C277.929 91.0397 278.578 91.21 279.329 91.21ZM279.329 90.027C278.568 90.027 277.992 89.7727 277.6 89.264C277.208 88.7507 277.012 88.067 277.012 87.213C277.012 86.387 277.201 85.715 277.579 85.197C277.957 84.6743 278.54 84.413 279.329 84.413C280.104 84.413 280.685 84.6673 281.072 85.176C281.459 85.6847 281.653 86.3637 281.653 87.213C281.653 88.0437 281.459 88.7203 281.072 89.243C280.689 89.7657 280.108 90.027 279.329 90.027ZM284.51 91H285.77V87.017C285.77 86.1397 285.959 85.4887 286.337 85.064C286.72 84.6393 287.224 84.427 287.849 84.427C288.381 84.427 288.796 84.56 289.095 84.826C289.394 85.092 289.601 85.4373 289.718 85.862C289.839 86.2867 289.9 86.737 289.9 87.213V91H291.16V86.821C291.16 86.4617 291.116 86.0767 291.027 85.666C290.943 85.2507 290.789 84.861 290.565 84.497C290.346 84.1283 290.04 83.8273 289.648 83.594C289.261 83.3607 288.761 83.244 288.15 83.244C287.049 83.244 286.209 83.6337 285.63 84.413V83.44H284.51V91Z" fill="white"/>
<path d="M230.247 91H231.514V80.92H230.247L228.35 82.054V83.447L230.247 82.299V91ZM237.614 91.21C238.24 91.21 238.811 91.0607 239.329 90.762C239.852 90.4587 240.27 90.0527 240.582 89.544C240.895 89.0307 241.051 88.4613 241.051 87.836C241.051 87.2107 240.907 86.6483 240.617 86.149C240.333 85.645 239.941 85.246 239.441 84.952C238.947 84.658 238.387 84.511 237.761 84.511C237.309 84.511 236.882 84.6043 236.48 84.791C236.084 84.9777 235.738 85.232 235.444 85.554V84.182C235.444 83.7807 235.54 83.4073 235.731 83.062C235.927 82.712 236.198 82.432 236.543 82.222C236.889 82.0073 237.283 81.9 237.726 81.9C238.1 81.9 238.447 81.9887 238.769 82.166C239.091 82.3387 239.353 82.5697 239.553 82.859L240.484 82.033C240.158 81.6083 239.754 81.284 239.273 81.06C238.797 80.8313 238.282 80.717 237.726 80.717C237.036 80.717 236.424 80.871 235.892 81.179C235.36 81.487 234.94 81.9117 234.632 82.453C234.329 82.9943 234.177 83.6173 234.177 84.322V87.675C234.177 88.347 234.329 88.9513 234.632 89.488C234.94 90.02 235.353 90.44 235.871 90.748C236.394 91.056 236.975 91.21 237.614 91.21ZM237.614 90.006C237.213 90.006 236.847 89.908 236.515 89.712C236.189 89.516 235.927 89.2547 235.731 88.928C235.54 88.5967 235.444 88.2327 235.444 87.836C235.444 87.4347 235.542 87.0707 235.738 86.744C235.934 86.4127 236.196 86.149 236.522 85.953C236.854 85.757 237.22 85.659 237.621 85.659C238.023 85.659 238.387 85.757 238.713 85.953C239.045 86.149 239.306 86.4127 239.497 86.744C239.693 87.0707 239.791 87.4347 239.791 87.836C239.791 88.2373 239.693 88.6037 239.497 88.935C239.301 89.2617 239.038 89.523 238.706 89.719C238.38 89.9103 238.016 90.006 237.614 90.006ZM242.593 90.993H249.292V89.803H244.511L247.759 86.884C248.104 86.576 248.389 86.2867 248.613 86.016C248.841 85.7407 249.012 85.442 249.124 85.12C249.236 84.798 249.292 84.4177 249.292 83.979C249.292 83.3583 249.147 82.803 248.858 82.313C248.573 81.8183 248.183 81.4287 247.689 81.144C247.194 80.8547 246.634 80.71 246.009 80.71C245.365 80.71 244.788 80.85 244.28 81.13C243.771 81.4053 243.37 81.788 243.076 82.278C242.786 82.7633 242.642 83.3233 242.642 83.958H243.916C243.911 83.5893 243.997 83.251 244.175 82.943C244.357 82.6303 244.604 82.3783 244.917 82.187C245.229 81.9957 245.586 81.9 245.988 81.9C246.375 81.9 246.72 81.991 247.024 82.173C247.332 82.355 247.574 82.6023 247.752 82.915C247.929 83.2277 248.018 83.5777 248.018 83.965C248.018 84.2823 247.952 84.5927 247.822 84.896C247.696 85.1993 247.446 85.5167 247.073 85.848L242.6 89.873L242.593 90.993ZM253.762 91H254.875V90.146C255.15 90.4773 255.484 90.7387 255.876 90.93C256.273 91.1167 256.728 91.21 257.241 91.21C257.946 91.21 258.55 91.035 259.054 90.685C259.563 90.3303 259.952 89.852 260.223 89.25C260.494 88.648 260.629 87.969 260.629 87.213C260.629 86.457 260.494 85.778 260.223 85.176C259.952 84.574 259.563 84.1003 259.054 83.755C258.55 83.405 257.948 83.23 257.248 83.23C256.777 83.23 256.354 83.3093 255.981 83.468C255.608 83.6267 255.286 83.846 255.015 84.126V80.92H253.762V91ZM257.087 90.069C256.326 90.069 255.766 89.8007 255.407 89.264C255.052 88.7273 254.875 88.0437 254.875 87.213C254.875 86.3777 255.052 85.6963 255.407 85.169C255.766 84.637 256.315 84.371 257.052 84.371C257.565 84.371 257.988 84.497 258.319 84.749C258.655 85.001 258.902 85.3417 259.061 85.771C259.224 86.2003 259.306 86.681 259.306 87.213C259.306 87.7497 259.224 88.235 259.061 88.669C258.898 89.0983 258.653 89.439 258.326 89.691C257.999 89.943 257.586 90.069 257.087 90.069ZM262.304 82.103H263.55V80.815H262.304V82.103ZM262.304 91H263.55V83.44H262.304V91ZM265.79 91H267.036V80.71H265.79V91ZM269.276 91H270.522V80.71H269.276V91ZM272.763 82.103H274.009V80.815H272.763V82.103ZM272.763 91H274.009V83.44H272.763V91ZM279.329 91.21C280.08 91.21 280.727 91.042 281.268 90.706C281.814 90.37 282.234 89.901 282.528 89.299C282.827 88.697 282.976 88.0017 282.976 87.213C282.976 86.4337 282.829 85.7453 282.535 85.148C282.246 84.546 281.828 84.077 281.282 83.741C280.736 83.4003 280.085 83.23 279.329 83.23C278.592 83.23 277.95 83.398 277.404 83.734C276.858 84.0653 276.436 84.5297 276.137 85.127C275.838 85.7243 275.689 86.4197 275.689 87.213C275.689 87.9923 275.834 88.683 276.123 89.285C276.417 89.887 276.837 90.3583 277.383 90.699C277.929 91.0397 278.578 91.21 279.329 91.21ZM279.329 90.027C278.568 90.027 277.992 89.7727 277.6 89.264C277.208 88.7507 277.012 88.067 277.012 87.213C277.012 86.387 277.201 85.715 277.579 85.197C277.957 84.6743 278.54 84.413 279.329 84.413C280.104 84.413 280.685 84.6673 281.072 85.176C281.459 85.6847 281.653 86.3637 281.653 87.213C281.653 88.0437 281.459 88.7203 281.072 89.243C280.689 89.7657 280.108 90.027 279.329 90.027ZM284.51 91H285.77V87.017C285.77 86.1397 285.959 85.4887 286.337 85.064C286.72 84.6393 287.224 84.427 287.849 84.427C288.381 84.427 288.796 84.56 289.095 84.826C289.394 85.092 289.601 85.4373 289.718 85.862C289.839 86.2867 289.9 86.737 289.9 87.213V91H291.16V86.821C291.16 86.4617 291.116 86.0767 291.027 85.666C290.943 85.2507 290.789 84.861 290.565 84.497C290.346 84.1283 290.04 83.8273 289.648 83.594C289.261 83.3607 288.761 83.244 288.15 83.244C287.049 83.244 286.209 83.6337 285.63 84.413V83.44H284.51V91Z" fill="url(#paint4_linear_138_2652)"/>
<path d="M53.4426 461.952C40.117 464.705 23.5653 461.952 0 467H302L301.5 113C293.364 178.624 257.173 185.047 246.857 247C236.235 310.789 206.676 311.745 192.229 381.5C178.731 446.665 144.51 376.437 134.509 411C124.549 445.418 110.392 436.712 102.116 447.726C93.8402 458.74 64.3124 459.706 53.4426 461.952Z" fill="url(#paint5_linear_138_2652)" fill-opacity="0.1"/>
<g filter="url(#filter0_f_138_2652)">
<path d="M0 467C23.5653 461.953 40.117 464.706 53.4426 461.953C64.3124 459.708 93.8402 458.742 102.116 447.731C110.392 436.72 129.541 462.409 139.5 428C149.501 393.447 178.003 480.647 191.5 415.5C224.5 316 229.76 362.35 245.5 307.5C262 250 287 205.5 301.5 175.5" stroke="url(#paint6_linear_138_2652)" stroke-opacity="0.58" stroke-width="12" stroke-linecap="round" stroke-linejoin="round"/>
</g>
<path d="M0 467C23.5653 461.952 40.117 464.705 53.4426 461.952C64.3124 459.706 93.8402 458.74 102.116 447.726C110.392 436.712 124.549 444.918 134.509 410.5C144.51 375.937 177.701 445.165 191.198 380C205.646 310.245 234.878 313.789 245.5 250C255.816 188.047 293.364 178.624 301.5 113" stroke="#28E7C5" stroke-width="2" stroke-linecap="round"/>
<circle cx="245" cy="250" r="6" fill="#28E7C5"/>
<circle cx="189" cy="380" r="6" fill="#28E7C5"/>
<circle cx="133" cy="411" r="6" fill="#28E7C5"/>
<circle cx="78" cy="457" r="6" fill="#28E7C5"/>
<g filter="url(#filter1_b_138_2652)">
<circle cx="301" cy="113" r="12" fill="#07071C" fill-opacity="0.1"/>
<circle cx="301" cy="113" r="12" stroke="#28E7C5" stroke-width="2" stroke-linecap="round"/>
</g>
<circle cx="301" cy="113" r="6" fill="#28E7C5"/>
</g>
<defs>
<filter id="filter0_f_138_2652" x="-50.0012" y="125.499" width="401.503" height="391.503" filterUnits="userSpaceOnUse" color-interpolation-filters="sRGB">
<feFlood flood-opacity="0" result="BackgroundImageFix"/>
<feBlend mode="normal" in="SourceGraphic" in2="BackgroundImageFix" result="shape"/>
<feGaussianBlur stdDeviation="22" result="effect1_foregroundBlur_138_2652"/>
</filter>
<filter id="filter1_b_138_2652" x="276" y="88" width="50" height="50" filterUnits="userSpaceOnUse" color-interpolation-filters="sRGB">
<feFlood flood-opacity="0" result="BackgroundImageFix"/>
<feGaussianBlur in="BackgroundImage" stdDeviation="6"/>
<feComposite in2="SourceAlpha" operator="in" result="effect1_backgroundBlur_138_2652"/>
<feBlend mode="normal" in="SourceGraphic" in2="effect1_backgroundBlur_138_2652" result="shape"/>
</filter>
<linearGradient id="paint0_linear_138_2652" x1="69.7049" y1="430.798" x2="21.8361" y2="430.798" gradientUnits="userSpaceOnUse">
<stop offset="0.321627" stop-color="#28E7C5"/>
<stop offset="1" stop-color="#2EBBF7"/>
</linearGradient>
<linearGradient id="paint1_linear_138_2652" x1="125.811" y1="384.798" x2="74.9508" y2="384.798" gradientUnits="userSpaceOnUse">
<stop offset="0.321627" stop-color="#28E7C5"/>
<stop offset="1" stop-color="#2EBBF7"/>
</linearGradient>
<linearGradient id="paint2_linear_138_2652" x1="182.025" y1="353.798" x2="125.18" y2="353.798" gradientUnits="userSpaceOnUse">
<stop offset="0.321627" stop-color="#28E7C5"/>
<stop offset="1" stop-color="#2EBBF7"/>
</linearGradient>
<linearGradient id="paint3_linear_138_2652" x1="238.238" y1="223.798" x2="175.41" y2="223.798" gradientUnits="userSpaceOnUse">
<stop offset="0.321627" stop-color="#28E7C5"/>
<stop offset="1" stop-color="#2EBBF7"/>
</linearGradient>
<linearGradient id="paint4_linear_138_2652" x1="294.309" y1="86.7981" x2="229.486" y2="86.7981" gradientUnits="userSpaceOnUse">
<stop offset="0.321627" stop-color="#28E7C5"/>
<stop offset="1" stop-color="#2EBBF7"/>
</linearGradient>
<linearGradient id="paint5_linear_138_2652" x1="151" y1="37" x2="151" y2="467" gradientUnits="userSpaceOnUse">
<stop stop-color="#28E7C5"/>
<stop offset="1" stop-color="#28E7C5" stop-opacity="0"/>
</linearGradient>
<linearGradient id="paint6_linear_138_2652" x1="188.943" y1="367.904" x2="277.237" y2="374.774" gradientUnits="userSpaceOnUse">
<stop stop-color="#28E7C5" stop-opacity="0"/>
<stop offset="0.828125" stop-color="#4DF2D5"/>
<stop offset="1" stop-color="#76FFE7"/>
</linearGradient>
<clipPath id="clip0_138_2652">
<rect width="360" height="562" fill="white"/>
</clipPath>
</defs>
</svg>
