<svg width="96" height="96" viewBox="0 0 96 96" fill="none" xmlns="http://www.w3.org/2000/svg">
<path d="M82 57.6418C82 71.0945 70.8071 82 57 82C43.1929 82 32 71.0945 32 57.6418C32 39.3731 49.7083 14 57 14C64.2917 14 82 39.3731 82 57.6418Z" fill="url(#paint0_linear_143_2847)"/>
<g opacity="0.5" filter="url(#filter0_f_143_2847)">
<path d="M74 55.3731C74 65.6605 66.3888 74 57 74C47.6112 74 40 65.6605 40 55.3731C40 41.403 52.0417 22 57 22C61.9583 22 74 41.403 74 55.3731Z" fill="#8237FF"/>
</g>
<g filter="url(#filter1_b_143_2847)">
<path d="M70 58.7761C70 73.8115 57.464 86 42 86C26.536 86 14 73.8115 14 58.7761C14 38.3582 33.8333 10 42 10C50.1667 10 70 38.3582 70 58.7761Z" fill="#BA90FF" fill-opacity="0.35"/>
<path d="M42 86.5C57.7268 86.5 70.5 74.1008 70.5 58.7761C70.5 48.4329 65.4881 36.1444 59.4874 26.4678C56.4828 21.6227 53.2145 17.4065 50.1721 14.3947C48.6513 12.8892 47.1767 11.6743 45.81 10.8327C44.4522 9.99642 43.1548 9.5 42 9.5C40.8452 9.5 39.5478 9.99642 38.19 10.8327C36.8233 11.6743 35.3487 12.8892 33.8279 14.3947C30.7855 17.4065 27.5172 21.6227 24.5126 26.4678C18.5119 36.1444 13.5 48.4329 13.5 58.7761C13.5 74.1008 26.2732 86.5 42 86.5Z" stroke="url(#paint1_linear_143_2847)" stroke-linecap="round" stroke-linejoin="round"/>
</g>
<g filter="url(#filter2_bd_143_2847)">
<mask id="path-5-inside-1_143_2847" fill="white">
<path fill-rule="evenodd" clip-rule="evenodd" d="M42.0004 29C43.6572 29 45.0004 30.3431 45.0004 32V33.9151C49.5943 34.9532 52.4325 38.1832 53.5225 39.8756C54.4197 41.2685 54.0177 43.125 52.6248 44.0222C51.2318 44.9193 49.3754 44.5174 48.4782 43.1244C47.7303 41.9631 45.5042 39.585 42.0004 39.585C39.547 39.585 38.08 40.3266 37.2495 41.1144C36.3996 41.9206 36.0004 42.9731 36.0004 44C36.0004 45.1926 36.4408 45.8643 37.458 46.5314C38.7078 47.351 40.4941 47.9143 42.8643 48.6271C42.9327 48.6477 43.0017 48.6684 43.0712 48.6893C45.1677 49.3189 47.7761 50.1023 49.833 51.4513C52.1908 52.9975 54.0004 55.3992 54.0004 59C54.0004 62.1373 52.7415 64.7413 50.2806 66.4211C48.7672 67.4542 46.9496 68.0338 45.0004 68.3054V70.085C45.0004 71.7419 43.6572 73.085 42.0004 73.085C40.3435 73.085 39.0004 71.7419 39.0004 70.085V68.201C36.7705 67.7569 34.811 66.8713 33.2332 65.9073C31.0397 64.5671 29.3024 62.9005 28.4782 61.6208C27.5811 60.2278 27.983 58.3713 29.3759 57.4742C30.7689 56.577 32.6254 56.979 33.5225 58.3719C33.7274 58.69 34.7048 59.7752 36.3615 60.7874C37.9591 61.7635 39.914 62.5 42.0004 62.5C44.5147 62.5 46.0605 62.0372 46.898 61.4656C47.5445 61.0242 48.0004 60.3783 48.0004 59C48.0004 57.8074 47.5599 57.1357 46.5427 56.4686C45.2929 55.649 43.5066 55.0857 41.1364 54.3729C41.068 54.3523 40.999 54.3316 40.9295 54.3107C38.833 53.6811 36.2247 52.8977 34.1677 51.5487C31.8099 50.0025 30.0004 47.6008 30.0004 44C30.0004 41.4145 31.0138 38.7595 33.1203 36.7613C34.6422 35.3176 36.629 34.3131 39.0004 33.8589V32C39.0004 30.3431 40.3435 29 42.0004 29Z"/>
</mask>
<path fill-rule="evenodd" clip-rule="evenodd" d="M42.0004 29C43.6572 29 45.0004 30.3431 45.0004 32V33.9151C49.5943 34.9532 52.4325 38.1832 53.5225 39.8756C54.4197 41.2685 54.0177 43.125 52.6248 44.0222C51.2318 44.9193 49.3754 44.5174 48.4782 43.1244C47.7303 41.9631 45.5042 39.585 42.0004 39.585C39.547 39.585 38.08 40.3266 37.2495 41.1144C36.3996 41.9206 36.0004 42.9731 36.0004 44C36.0004 45.1926 36.4408 45.8643 37.458 46.5314C38.7078 47.351 40.4941 47.9143 42.8643 48.6271C42.9327 48.6477 43.0017 48.6684 43.0712 48.6893C45.1677 49.3189 47.7761 50.1023 49.833 51.4513C52.1908 52.9975 54.0004 55.3992 54.0004 59C54.0004 62.1373 52.7415 64.7413 50.2806 66.4211C48.7672 67.4542 46.9496 68.0338 45.0004 68.3054V70.085C45.0004 71.7419 43.6572 73.085 42.0004 73.085C40.3435 73.085 39.0004 71.7419 39.0004 70.085V68.201C36.7705 67.7569 34.811 66.8713 33.2332 65.9073C31.0397 64.5671 29.3024 62.9005 28.4782 61.6208C27.5811 60.2278 27.983 58.3713 29.3759 57.4742C30.7689 56.577 32.6254 56.979 33.5225 58.3719C33.7274 58.69 34.7048 59.7752 36.3615 60.7874C37.9591 61.7635 39.914 62.5 42.0004 62.5C44.5147 62.5 46.0605 62.0372 46.898 61.4656C47.5445 61.0242 48.0004 60.3783 48.0004 59C48.0004 57.8074 47.5599 57.1357 46.5427 56.4686C45.2929 55.649 43.5066 55.0857 41.1364 54.3729C41.068 54.3523 40.999 54.3316 40.9295 54.3107C38.833 53.6811 36.2247 52.8977 34.1677 51.5487C31.8099 50.0025 30.0004 47.6008 30.0004 44C30.0004 41.4145 31.0138 38.7595 33.1203 36.7613C34.6422 35.3176 36.629 34.3131 39.0004 33.8589V32C39.0004 30.3431 40.3435 29 42.0004 29Z" fill="url(#paint2_linear_143_2847)"/>
<path d="M45.0004 33.9151H44.6004V34.2348L44.9122 34.3052L45.0004 33.9151ZM53.5225 39.8756L53.1862 40.0922L53.5225 39.8756ZM52.6248 44.0222L52.8414 44.3584L52.6248 44.0222ZM48.4782 43.1244L48.1419 43.341L48.4782 43.1244ZM37.2495 41.1144L36.9743 40.8242V40.8242L37.2495 41.1144ZM37.458 46.5314L37.6774 46.1969L37.458 46.5314ZM42.8643 48.6271L42.7491 49.0102L42.8643 48.6271ZM43.0712 48.6893L43.1863 48.3062L43.1863 48.3062L43.0712 48.6893ZM49.833 51.4513L49.6137 51.7858L49.833 51.4513ZM50.2806 66.4211L50.5062 66.7515L50.2806 66.4211ZM45.0004 68.3054L44.9452 67.9093L44.6004 67.9573V68.3054H45.0004ZM39.0004 68.201H39.4004V67.8728L39.0785 67.8087L39.0004 68.201ZM33.2332 65.9073L33.0247 66.2487L33.2332 65.9073ZM28.4782 61.6208L28.8145 61.4042H28.8145L28.4782 61.6208ZM29.3759 57.4742L29.1593 57.1379L29.3759 57.4742ZM33.5225 58.3719L33.1862 58.5885L33.5225 58.3719ZM36.3615 60.7874L36.57 60.446L36.3615 60.7874ZM46.898 61.4656L46.6724 61.1352L46.898 61.4656ZM46.5427 56.4686L46.3233 56.8031L46.5427 56.4686ZM41.1364 54.3729L41.2516 53.9898L41.2516 53.9898L41.1364 54.3729ZM40.9295 54.3107L41.0446 53.9276L41.0446 53.9276L40.9295 54.3107ZM34.1677 51.5487L34.387 51.2142L34.1677 51.5487ZM33.1203 36.7613L33.3956 37.0515L33.1203 36.7613ZM39.0004 33.8589L39.0756 34.2517L39.4004 34.1895V33.8589H39.0004ZM45.4004 32C45.4004 30.1222 43.8781 28.6 42.0004 28.6V29.4C43.4363 29.4 44.6004 30.5641 44.6004 32H45.4004ZM45.4004 33.9151V32H44.6004V33.9151H45.4004ZM53.8588 39.659C52.7357 37.9152 49.8205 34.5942 45.0885 33.5249L44.9122 34.3052C49.368 35.3121 52.1294 38.4513 53.1862 40.0922L53.8588 39.659ZM52.8414 44.3584C54.42 43.3417 54.8756 41.2377 53.8588 39.659L53.1862 40.0922C53.9638 41.2994 53.6154 42.9083 52.4082 43.6859L52.8414 44.3584ZM48.1419 43.341C49.1587 44.9197 51.2627 45.3752 52.8414 44.3584L52.4082 43.6859C51.201 44.4634 49.592 44.1151 48.8145 42.9078L48.1419 43.341ZM42.0004 39.985C45.3142 39.985 47.4326 42.2397 48.1419 43.341L48.8145 42.9078C48.0279 41.6865 45.6941 39.185 42.0004 39.185V39.985ZM37.5248 41.4046C38.2692 40.6985 39.632 39.985 42.0004 39.985V39.185C39.4621 39.185 37.8908 39.9548 36.9743 40.8242L37.5248 41.4046ZM36.4004 44C36.4004 43.0773 36.7585 42.1316 37.5248 41.4046L36.9743 40.8242C36.0408 41.7097 35.6004 42.8689 35.6004 44H36.4004ZM37.6774 46.1969C37.1958 45.8811 36.8861 45.5867 36.6919 45.2588C36.5003 44.9356 36.4004 44.5449 36.4004 44H35.6004C35.6004 44.6477 35.7207 45.1892 36.0036 45.6667C36.2839 46.1396 36.7031 46.5146 37.2387 46.8659L37.6774 46.1969ZM42.9795 48.244C40.5918 47.526 38.8685 46.978 37.6774 46.1969L37.2387 46.8659C38.5472 47.724 40.3964 48.3026 42.7491 49.0102L42.9795 48.244ZM43.1863 48.3062C43.1167 48.2853 43.0478 48.2646 42.9795 48.244L42.7491 49.0102C42.8176 49.0307 42.8866 49.0515 42.9562 49.0724L43.1863 48.3062ZM50.0524 51.1168C47.9383 49.7303 45.2715 48.9325 43.1863 48.3062L42.9562 49.0724C45.0639 49.7054 47.6139 50.4743 49.6137 51.7858L50.0524 51.1168ZM54.4004 59C54.4004 55.2378 52.4988 52.7211 50.0524 51.1168L49.6137 51.7858C51.8829 53.2739 53.6004 55.5605 53.6004 59H54.4004ZM50.5062 66.7515C53.0883 64.9889 54.4004 62.254 54.4004 59H53.6004C53.6004 62.0205 52.3946 64.4938 50.0551 66.0907L50.5062 66.7515ZM45.0556 68.7016C47.0457 68.4243 48.9273 67.8292 50.5062 66.7515L50.0551 66.0907C48.6071 67.0792 46.8534 67.6434 44.9452 67.9093L45.0556 68.7016ZM45.4004 70.085V68.3054H44.6004V70.085H45.4004ZM42.0004 73.485C43.8781 73.485 45.4004 71.9628 45.4004 70.085H44.6004C44.6004 71.5209 43.4363 72.685 42.0004 72.685V73.485ZM38.6004 70.085C38.6004 71.9628 40.1226 73.485 42.0004 73.485V72.685C40.5644 72.685 39.4004 71.5209 39.4004 70.085H38.6004ZM38.6004 68.201V70.085H39.4004V68.201H38.6004ZM33.0247 66.2487C34.6339 67.2319 36.6373 68.1383 38.9222 68.5933L39.0785 67.8087C36.9038 67.3756 34.988 66.5108 33.4418 65.566L33.0247 66.2487ZM28.1419 61.8374C29.0075 63.1812 30.7954 64.8866 33.0247 66.2487L33.4418 65.566C31.284 64.2477 29.5974 62.6198 28.8145 61.4042L28.1419 61.8374ZM29.1593 57.1379C27.5807 58.1547 27.1252 60.2587 28.1419 61.8374L28.8145 61.4042C28.037 60.197 28.3853 58.588 29.5925 57.8105L29.1593 57.1379ZM33.8588 58.1553C32.842 56.5767 30.738 56.1211 29.1593 57.1379L29.5925 57.8105C30.7997 57.033 32.4087 57.3813 33.1862 58.5885L33.8588 58.1553ZM36.57 60.446C34.9492 59.4557 34.0224 58.4093 33.8588 58.1553L33.1862 58.5885C33.4324 58.9707 34.4604 60.0946 36.1529 61.1287L36.57 60.446ZM42.0004 62.1C40.0071 62.1 38.1239 61.3955 36.57 60.446L36.1529 61.1287C37.7943 62.1316 39.8209 62.9 42.0004 62.9V62.1ZM46.6724 61.1352C45.9305 61.6417 44.4785 62.1 42.0004 62.1V62.9C44.5509 62.9 46.1906 62.4327 47.1235 61.7959L46.6724 61.1352ZM47.6004 59C47.6004 59.646 47.4935 60.0865 47.334 60.405C47.1765 60.7194 46.9537 60.9432 46.6724 61.1352L47.1235 61.7959C47.4887 61.5466 47.8171 61.2267 48.0493 60.7632C48.2793 60.3038 48.4004 59.7322 48.4004 59H47.6004ZM46.3233 56.8031C46.8049 57.1189 47.1146 57.4133 47.3089 57.7412C47.5004 58.0644 47.6004 58.4551 47.6004 59H48.4004C48.4004 58.3523 48.2801 57.8108 47.9971 57.3333C47.7168 56.8604 47.2976 56.4854 46.762 56.1341L46.3233 56.8031ZM41.0212 54.756C43.4089 55.474 45.1323 56.022 46.3233 56.8031L46.762 56.1341C45.4535 55.276 43.6044 54.6974 41.2516 53.9898L41.0212 54.756ZM40.8144 54.6938C40.884 54.7147 40.9529 54.7354 41.0212 54.756L41.2516 53.9898C41.1831 53.9693 41.1141 53.9485 41.0446 53.9276L40.8144 54.6938ZM33.9483 51.8832C36.0625 53.2697 38.7292 54.0675 40.8145 54.6938L41.0446 53.9276C38.9368 53.2946 36.3869 52.5257 34.387 51.2142L33.9483 51.8832ZM29.6004 44C29.6004 47.7622 31.5019 50.2789 33.9483 51.8832L34.387 51.2142C32.1178 49.7261 30.4004 47.4395 30.4004 44H29.6004ZM32.845 36.4711C30.6547 38.5488 29.6004 41.3107 29.6004 44H30.4004C30.4004 41.5183 31.373 38.9701 33.3956 37.0515L32.845 36.4711ZM38.9251 33.466C36.486 33.9332 34.4276 34.9698 32.845 36.4711L33.3956 37.0515C34.8568 35.6654 36.772 34.693 39.0756 34.2517L38.9251 33.466ZM38.6004 32V33.8589H39.4004V32H38.6004ZM42.0004 28.6C40.1226 28.6 38.6004 30.1222 38.6004 32H39.4004C39.4004 30.5641 40.5644 29.4 42.0004 29.4V28.6Z" fill="url(#paint3_linear_143_2847)" mask="url(#path-5-inside-1_143_2847)"/>
</g>
<defs>
<filter id="filter0_f_143_2847" x="20" y="2" width="74" height="92" filterUnits="userSpaceOnUse" color-interpolation-filters="sRGB">
<feFlood flood-opacity="0" result="BackgroundImageFix"/>
<feBlend mode="normal" in="SourceGraphic" in2="BackgroundImageFix" result="shape"/>
<feGaussianBlur stdDeviation="10" result="effect1_foregroundBlur_143_2847"/>
</filter>
<filter id="filter1_b_143_2847" x="-11" y="-15" width="106" height="126" filterUnits="userSpaceOnUse" color-interpolation-filters="sRGB">
<feFlood flood-opacity="0" result="BackgroundImageFix"/>
<feGaussianBlur in="BackgroundImage" stdDeviation="12"/>
<feComposite in2="SourceAlpha" operator="in" result="effect1_backgroundBlur_143_2847"/>
<feBlend mode="normal" in="SourceGraphic" in2="effect1_backgroundBlur_143_2847" result="shape"/>
</filter>
<filter id="filter2_bd_143_2847" x="13" y="14" width="56.0007" height="74.085" filterUnits="userSpaceOnUse" color-interpolation-filters="sRGB">
<feFlood flood-opacity="0" result="BackgroundImageFix"/>
<feGaussianBlur in="BackgroundImage" stdDeviation="7.5"/>
<feComposite in2="SourceAlpha" operator="in" result="effect1_backgroundBlur_143_2847"/>
<feColorMatrix in="SourceAlpha" type="matrix" values="0 0 0 0 0 0 0 0 0 0 0 0 0 0 0 0 0 0 127 0" result="hardAlpha"/>
<feOffset dx="5" dy="5"/>
<feGaussianBlur stdDeviation="5"/>
<feColorMatrix type="matrix" values="0 0 0 0 0.577356 0 0 0 0 0.359375 0 0 0 0 0.9375 0 0 0 0.5 0"/>
<feBlend mode="normal" in2="effect1_backgroundBlur_143_2847" result="effect2_dropShadow_143_2847"/>
<feBlend mode="normal" in="SourceGraphic" in2="effect2_dropShadow_143_2847" result="shape"/>
</filter>
<linearGradient id="paint0_linear_143_2847" x1="57" y1="14" x2="57" y2="82" gradientUnits="userSpaceOnUse">
<stop stop-color="#BC94FF"/>
<stop offset="1" stop-color="#9F66FF"/>
</linearGradient>
<linearGradient id="paint1_linear_143_2847" x1="57.3136" y1="32.491" x2="14.4744" y2="41.1496" gradientUnits="userSpaceOnUse">
<stop stop-color="white" stop-opacity="0.25"/>
<stop offset="1" stop-color="white" stop-opacity="0"/>
</linearGradient>
<linearGradient id="paint2_linear_143_2847" x1="52.2255" y1="36.3347" x2="23.1604" y2="36.8699" gradientUnits="userSpaceOnUse">
<stop stop-color="white"/>
<stop offset="1" stop-color="white" stop-opacity="0.2"/>
</linearGradient>
<linearGradient id="paint3_linear_143_2847" x1="32.1389" y1="34.136" x2="59.5436" y2="54.1541" gradientUnits="userSpaceOnUse">
<stop stop-color="white" stop-opacity="0.25"/>
<stop offset="1" stop-color="white" stop-opacity="0"/>
</linearGradient>
</defs>
</svg>
