<svg width="1440" height="1260" viewBox="0 0 1440 1260" fill="none" xmlns="http://www.w3.org/2000/svg">
<g opacity="0.12">
<path d="M397.239 1.00049V742.725L-1.10742 881.855" stroke="#28E7C5" stroke-linecap="round" stroke-linejoin="round"/>
<path d="M461.756 1.00049V742.725L-1.10742 944.792" stroke="#28E7C5" stroke-linecap="round" stroke-linejoin="round"/>
<path d="M526.274 1.00049V742.725L-1.10742 1049.65" stroke="#28E7C5" stroke-linecap="round" stroke-linejoin="round"/>
<path d="M590.795 1.00049V742.725L-0.802246 1259.03" stroke="#28E7C5" stroke-linecap="round" stroke-linejoin="round"/>
<path d="M655.313 1.00049V742.725L359.26 1259.03" stroke="#28E7C5" stroke-linecap="round" stroke-linejoin="round"/>
<path d="M719.828 1.00049V742.725L719.323 1259.03" stroke="#28E7C5" stroke-linecap="round" stroke-linejoin="round"/>
<path d="M784.354 1.00049V742.725L1079.39 1259.03" stroke="#28E7C5" stroke-linecap="round" stroke-linejoin="round"/>
<path d="M848.871 1.00049V742.725L1439.45 1259.03" stroke="#28E7C5" stroke-linecap="round" stroke-linejoin="round"/>
<path d="M913.394 1.00049V742.725L1441 1050.14" stroke="#28E7C5" stroke-linecap="round" stroke-linejoin="round"/>
<path d="M977.909 1.00049V742.725L1441 945.06" stroke="#28E7C5" stroke-linecap="round" stroke-linejoin="round"/>
<path d="M1042.43 1.00049V742.725L1441 882.03" stroke="#28E7C5" stroke-linecap="round" stroke-linejoin="round"/>
<path d="M1106.95 1.00049V742.725L1441 840.014" stroke="#28E7C5" stroke-linecap="round" stroke-linejoin="round"/>
<path d="M1171.47 1.00049V742.725L1441 810.008" stroke="#28E7C5" stroke-linecap="round" stroke-linejoin="round"/>
<path d="M1235.98 1.00049V742.725L1441 787.504" stroke="#28E7C5" stroke-linecap="round" stroke-linejoin="round"/>
<path d="M1300.51 1.00049V742.725L1441 770" stroke="#28E7C5" stroke-linecap="round" stroke-linejoin="round"/>
<path d="M1365.02 1.00049V742.725L1441 756.001" stroke="#28E7C5" stroke-linecap="round" stroke-linejoin="round"/>
<path d="M1429.54 1.00049V742.725L1441 744.543" stroke="#28E7C5" stroke-linecap="round" stroke-linejoin="round"/>
<path d="M-1.10742 809.916L268.199 742.725V1" stroke="#28E7C5" stroke-linecap="round" stroke-linejoin="round"/>
<path d="M332.715 1.00049V742.725L-1.10938 839.894" stroke="#28E7C5" stroke-linecap="round" stroke-linejoin="round"/>
<path d="M203.682 1.00049V742.725L-1.10938 787.438" stroke="#28E7C5" stroke-linecap="round" stroke-linejoin="round"/>
<path d="M139.158 1.00049V742.725L-1.10742 769.944" stroke="#28E7C5" stroke-linecap="round" stroke-linejoin="round"/>
<path d="M74.6407 1.00049V742.725L-1.10938 755.953" stroke="#28E7C5" stroke-linecap="round" stroke-linejoin="round"/>
<path d="M10.1166 1.00049V742.725L-1.10938 744.508" stroke="#28E7C5" stroke-linecap="round" stroke-linejoin="round"/>
<path d="M-1.10742 686.443H1441" stroke="#28E7C5" stroke-linecap="round" stroke-linejoin="round"/>
<path d="M-1.10742 630.156H1441" stroke="#28E7C5" stroke-linecap="round" stroke-linejoin="round"/>
<path d="M-1.10742 573.875H1441" stroke="#28E7C5" stroke-linecap="round" stroke-linejoin="round"/>
<path d="M-1.10742 517.594H1441" stroke="#28E7C5" stroke-linecap="round" stroke-linejoin="round"/>
<path d="M-1.10742 461.306H1441" stroke="#28E7C5" stroke-linecap="round" stroke-linejoin="round"/>
<path d="M-1.10742 405.025H1441" stroke="#28E7C5" stroke-linecap="round" stroke-linejoin="round"/>
<path d="M-1.10742 348.744H1441" stroke="#28E7C5" stroke-linecap="round" stroke-linejoin="round"/>
<path d="M-1.10742 292.456H1441" stroke="#28E7C5" stroke-linecap="round" stroke-linejoin="round"/>
<path d="M-1.10742 236.175H1441" stroke="#28E7C5" stroke-linecap="round" stroke-linejoin="round"/>
<path d="M-1.10742 179.893H1441" stroke="#28E7C5" stroke-linecap="round" stroke-linejoin="round"/>
<path d="M-1.10742 123.605H1441" stroke="#28E7C5" stroke-linecap="round" stroke-linejoin="round"/>
<path d="M-1.10742 67.3246H1441" stroke="#28E7C5" stroke-linecap="round" stroke-linejoin="round"/>
<path d="M-1.10742 11.0375H1441" stroke="#28E7C5" stroke-linecap="round" stroke-linejoin="round"/>
<path d="M1441 990.347H-1.10938" stroke="#28E7C5" stroke-linecap="round" stroke-linejoin="round"/>
<path d="M1441 946.843H-1.10938" stroke="#28E7C5" stroke-linecap="round" stroke-linejoin="round"/>
<path d="M1441 912.716H-1.10938" stroke="#28E7C5" stroke-linecap="round" stroke-linejoin="round"/>
<path d="M1441 1047.7H-1.10938" stroke="#28E7C5" stroke-linecap="round" stroke-linejoin="round"/>
<path d="M1441 885.222H-1.10938" stroke="#28E7C5" stroke-linecap="round" stroke-linejoin="round"/>
<path d="M1441 862.603H-1.10938" stroke="#28E7C5" stroke-linecap="round" stroke-linejoin="round"/>
<path d="M1441 747.783H-1.10938" stroke="#28E7C5" stroke-linecap="round" stroke-linejoin="round"/>
<path d="M1441 742.726H-1.10938" stroke="#28E7C5" stroke-linecap="round" stroke-linejoin="round"/>
<path d="M1441 759.394H-1.10938" stroke="#28E7C5" stroke-linecap="round" stroke-linejoin="round"/>
<path d="M1441 753.317H-1.10938" stroke="#28E7C5" stroke-linecap="round" stroke-linejoin="round"/>
<path d="M1441 813.747H-1.10938" stroke="#28E7C5" stroke-linecap="round" stroke-linejoin="round"/>
<path d="M1441 843.664H-1.10938" stroke="#28E7C5" stroke-linecap="round" stroke-linejoin="round"/>
<path d="M1441 1126.76H-1.10938" stroke="#28E7C5" stroke-linecap="round" stroke-linejoin="round"/>
<path d="M1441 773.55H-1.10938" stroke="#28E7C5" stroke-linecap="round" stroke-linejoin="round"/>
<path d="M1441 766.106H-1.10938" stroke="#28E7C5" stroke-linecap="round" stroke-linejoin="round"/>
<path d="M1441 801.728H-1.10938" stroke="#28E7C5" stroke-linecap="round" stroke-linejoin="round"/>
<path d="M1441 791.178H-1.10938" stroke="#28E7C5" stroke-linecap="round" stroke-linejoin="round"/>
<path d="M1441 781.854H-1.10938" stroke="#28E7C5" stroke-linecap="round" stroke-linejoin="round"/>
<path d="M1441 827.58H-1.10938" stroke="#28E7C5" stroke-linecap="round" stroke-linejoin="round"/>
<path d="M1439.45 1259.03H-0.802246" stroke="#28E7C5" stroke-linecap="round" stroke-linejoin="round"/>
<rect x="-0.999512" y="1061" width="1440" height="199" fill="url(#paint0_linear_143_2750)"/>
<rect x="1439" y="601" width="1440" height="600" transform="rotate(-180 1439 601)" fill="url(#paint1_linear_143_2750)"/>
</g>
<defs>
<linearGradient id="paint0_linear_143_2750" x1="719" y1="1061" x2="719" y2="1260" gradientUnits="userSpaceOnUse">
<stop stop-color="#07071C" stop-opacity="0"/>
<stop offset="0.0666667" stop-color="#07071C" stop-opacity="0.01"/>
<stop offset="0.133333" stop-color="#07071C" stop-opacity="0.03551"/>
<stop offset="0.2" stop-color="#07071C" stop-opacity="0.0816599"/>
<stop offset="0.266667" stop-color="#07071C" stop-opacity="0.147411"/>
<stop offset="0.333333" stop-color="#07071C" stop-opacity="0.231775"/>
<stop offset="0.4" stop-color="#07071C" stop-opacity="0.331884"/>
<stop offset="0.466667" stop-color="#07071C" stop-opacity="0.442691"/>
<stop offset="0.533333" stop-color="#07071C" stop-opacity="0.557309"/>
<stop offset="0.6" stop-color="#07071C" stop-opacity="0.668116"/>
<stop offset="0.666667" stop-color="#07071C" stop-opacity="0.768225"/>
<stop offset="0.733333" stop-color="#07071C" stop-opacity="0.852589"/>
<stop offset="0.8" stop-color="#07071C" stop-opacity="0.91834"/>
<stop offset="0.866667" stop-color="#07071C" stop-opacity="0.96449"/>
<stop offset="0.933333" stop-color="#07071C" stop-opacity="0.991353"/>
<stop offset="1" stop-color="#07071C"/>
</linearGradient>
<linearGradient id="paint1_linear_143_2750" x1="2159" y1="601" x2="2159" y2="1054.27" gradientUnits="userSpaceOnUse">
<stop stop-color="#07071C" stop-opacity="0"/>
<stop offset="0.0666667" stop-color="#07071C" stop-opacity="0.01"/>
<stop offset="0.133333" stop-color="#07071C" stop-opacity="0.03551"/>
<stop offset="0.2" stop-color="#07071C" stop-opacity="0.0816599"/>
<stop offset="0.266667" stop-color="#07071C" stop-opacity="0.147411"/>
<stop offset="0.333333" stop-color="#07071C" stop-opacity="0.231775"/>
<stop offset="0.4" stop-color="#07071C" stop-opacity="0.331884"/>
<stop offset="0.466667" stop-color="#07071C" stop-opacity="0.442691"/>
<stop offset="0.533333" stop-color="#07071C" stop-opacity="0.557309"/>
<stop offset="0.6" stop-color="#07071C" stop-opacity="0.668116"/>
<stop offset="0.666667" stop-color="#07071C" stop-opacity="0.768225"/>
<stop offset="0.733333" stop-color="#07071C" stop-opacity="0.852589"/>
<stop offset="0.8" stop-color="#07071C" stop-opacity="0.91834"/>
<stop offset="0.866667" stop-color="#07071C" stop-opacity="0.96449"/>
<stop offset="0.933333" stop-color="#07071C" stop-opacity="0.991353"/>
<stop offset="1" stop-color="#07071C"/>
</linearGradient>
</defs>
</svg>
