<svg width="86" height="88" viewBox="0 0 86 88" fill="none" xmlns="http://www.w3.org/2000/svg">
<path fill-rule="evenodd" clip-rule="evenodd" d="M12.3154 26.9816C12.3154 35.8293 19.5515 42.9196 28.5811 42.9196C37.6074 42.9196 44.8468 35.8293 44.8468 26.9816C44.8468 18.134 37.6074 11.0437 28.5811 11.0437C19.5515 11.0437 12.3154 18.134 12.3154 26.9816ZM53.1636 60.9652C53.1636 52.7749 41.8398 50.7258 28.5818 50.7258C15.2518 50.7258 3.99997 52.8455 3.99997 61.0421C3.99997 69.2324 15.3238 71.2815 28.5818 71.2815C41.9118 71.2815 53.1636 69.1618 53.1636 60.9652Z" fill="url(#paint0_linear_318_1724)"/>
<g opacity="0.5" filter="url(#filter0_f_318_1724)">
<path d="M33.9205 55.9787C42.0153 55.9787 48.9291 57.3396 48.9291 62.779C48.9291 68.2226 42.0592 69.6304 33.9205 69.6304C25.8257 69.6304 18.9119 68.2695 18.9119 62.8301C18.9119 57.3865 25.7818 55.9787 33.9205 55.9787Z" fill="#30AD31"/>
</g>
<g opacity="0.5" filter="url(#filter1_f_318_1724)">
<path d="M32.5561 35.0461C28.0115 35.0461 24.3695 31.4022 24.3695 26.8551C24.3695 22.3081 28.0115 18.6641 32.5561 18.6641C37.099 18.6641 40.7426 22.3081 40.7426 26.8551C40.7426 31.4022 37.099 35.0461 32.5561 35.0461Z" fill="#30AD31"/>
</g>
<g filter="url(#filter2_b_318_1724)">
<mask id="path-4-outside-1_318_1724" maskUnits="userSpaceOnUse" x="19" y="4" width="67" height="81" fill="black">
<rect fill="white" x="19" y="4" width="67" height="81"/>
<path fill-rule="evenodd" clip-rule="evenodd" d="M31.4312 25.9017C31.4312 37.5049 40.9209 46.8034 52.7627 46.8034C64.6002 46.8034 74.0942 37.5049 74.0942 25.9017C74.0942 14.2985 64.6002 5 52.7627 5C40.9209 5 31.4312 14.2985 31.4312 25.9017ZM85 70.4707C85 59.7297 70.1495 57.0423 52.7624 57.0423C35.2808 57.0423 20.5247 59.8222 20.5247 70.5716C20.5247 81.3126 35.3753 84 52.7624 84C70.2439 84 85 81.2201 85 70.4707Z"/>
</mask>
<path fill-rule="evenodd" clip-rule="evenodd" d="M31.4312 25.9017C31.4312 37.5049 40.9209 46.8034 52.7627 46.8034C64.6002 46.8034 74.0942 37.5049 74.0942 25.9017C74.0942 14.2985 64.6002 5 52.7627 5C40.9209 5 31.4312 14.2985 31.4312 25.9017ZM85 70.4707C85 59.7297 70.1495 57.0423 52.7624 57.0423C35.2808 57.0423 20.5247 59.8222 20.5247 70.5716C20.5247 81.3126 35.3753 84 52.7624 84C70.2439 84 85 81.2201 85 70.4707Z" fill="#72DC60" fill-opacity="0.35"/>
<path d="M52.7627 47.8034C40.3879 47.8034 30.4312 38.0762 30.4312 25.9017H32.4312C32.4312 36.9335 41.4539 45.8034 52.7627 45.8034V47.8034ZM75.0942 25.9017C75.0942 38.0764 65.133 47.8034 52.7627 47.8034V45.8034C64.0673 45.8034 73.0942 36.9333 73.0942 25.9017H75.0942ZM52.7627 4C65.133 4 75.0942 13.727 75.0942 25.9017H73.0942C73.0942 14.87 64.0673 6 52.7627 6V4ZM30.4312 25.9017C30.4312 13.7271 40.3879 4 52.7627 4V6C41.4539 6 32.4312 14.8699 32.4312 25.9017H30.4312ZM52.7624 56.0423C61.4779 56.0423 69.6755 56.712 75.7252 58.7825C78.7558 59.8197 81.3202 61.2323 83.1351 63.1546C84.9725 65.1008 86 67.5276 86 70.4707H84C84 68.0432 83.1712 66.1062 81.6808 64.5276C80.1679 62.9252 77.9329 61.652 75.0775 60.6747C69.3552 58.7163 61.434 58.0423 52.7624 58.0423V56.0423ZM19.5247 70.5716C19.5247 67.6288 20.5446 65.196 22.373 63.2399C24.1795 61.3072 26.7345 59.8812 29.7601 58.8312C35.7993 56.7353 43.9981 56.0423 52.7624 56.0423V58.0423C44.0451 58.0423 36.1251 58.7393 30.4158 60.7206C27.5672 61.7093 25.3406 62.9938 23.8341 64.6056C22.3494 66.194 21.5247 68.1397 21.5247 70.5716H19.5247ZM52.7624 85C44.0469 85 35.8493 84.3303 29.7996 82.2598C26.769 81.2226 24.2046 79.81 22.3897 77.8877C20.5522 75.9415 19.5247 73.5146 19.5247 70.5716H21.5247C21.5247 72.9991 22.3535 74.9361 23.8439 76.5147C25.3569 78.1171 27.5918 79.3903 30.4472 80.3676C36.1695 82.326 44.0907 83 52.7624 83V85ZM86 70.4707C86 73.4135 84.9801 75.8463 83.1518 77.8024C81.3452 79.7351 78.7902 81.1611 75.7646 82.2111C69.7254 84.307 61.5266 85 52.7624 85V83C61.4797 83 69.3997 82.303 75.1089 80.3217C77.9575 79.333 80.1841 78.0485 81.6907 76.4367C83.1754 74.8483 84 72.9026 84 70.4707H86Z" fill="url(#paint1_linear_318_1724)" mask="url(#path-4-outside-1_318_1724)"/>
</g>
<defs>
<filter id="filter0_f_318_1724" x="0.911865" y="37.9787" width="66.0172" height="49.6517" filterUnits="userSpaceOnUse" color-interpolation-filters="sRGB">
<feFlood flood-opacity="0" result="BackgroundImageFix"/>
<feBlend mode="normal" in="SourceGraphic" in2="BackgroundImageFix" result="shape"/>
<feGaussianBlur stdDeviation="9" result="effect1_foregroundBlur_318_1724"/>
</filter>
<filter id="filter1_f_318_1724" x="6.36951" y="0.664124" width="52.373" height="52.382" filterUnits="userSpaceOnUse" color-interpolation-filters="sRGB">
<feFlood flood-opacity="0" result="BackgroundImageFix"/>
<feBlend mode="normal" in="SourceGraphic" in2="BackgroundImageFix" result="shape"/>
<feGaussianBlur stdDeviation="9" result="effect1_foregroundBlur_318_1724"/>
</filter>
<filter id="filter2_b_318_1724" x="-4.47522" y="-20" width="114.475" height="129" filterUnits="userSpaceOnUse" color-interpolation-filters="sRGB">
<feFlood flood-opacity="0" result="BackgroundImageFix"/>
<feGaussianBlur in="BackgroundImage" stdDeviation="12"/>
<feComposite in2="SourceAlpha" operator="in" result="effect1_backgroundBlur_318_1724"/>
<feBlend mode="normal" in="SourceGraphic" in2="effect1_backgroundBlur_318_1724" result="shape"/>
</filter>
<linearGradient id="paint0_linear_318_1724" x1="3.99997" y1="11.0437" x2="46.9487" y2="52.0399" gradientUnits="userSpaceOnUse">
<stop stop-color="#9BF763"/>
<stop offset="1" stop-color="#26AB5B"/>
</linearGradient>
<linearGradient id="paint1_linear_318_1724" x1="74.7366" y1="14.2036" x2="13.6263" y2="68.1919" gradientUnits="userSpaceOnUse">
<stop stop-color="white" stop-opacity="0.25"/>
<stop offset="1" stop-color="white" stop-opacity="0"/>
</linearGradient>
</defs>
</svg>
