<svg width="102" height="102" viewBox="0 0 102 102" fill="none" xmlns="http://www.w3.org/2000/svg">
<path fill-rule="evenodd" clip-rule="evenodd" d="M70.9994 38.5C70.9994 56.4493 56.4486 71 38.4994 71C29.8798 71 21.6133 67.5759 15.5184 61.481C9.42346 55.386 5.99937 47.1195 5.99937 38.5C5.99937 20.5507 20.5501 6 38.4994 6C56.4486 6 70.9994 20.5507 70.9994 38.5ZM59 76C59 66.6112 66.6112 59 76 59C80.5087 59 84.8327 60.7911 88.0208 63.9792C91.2089 67.1673 93 71.4913 93 76C93 85.3888 85.3888 93 76 93C66.6112 93 59 85.3888 59 76Z" fill="url(#paint0_linear_301_327)"/>
<g filter="url(#filter0_f_301_327)">
<path d="M75.5 64C69.1487 64 64 69.1487 64 75.5C64 81.8513 69.1487 87 75.5 87C81.8513 87 87 81.8513 87 75.5C87 72.45 85.7884 69.5249 83.6317 67.3683C81.4751 65.2116 78.55 64 75.5 64Z" fill="#0062FF" fill-opacity="0.5"/>
</g>
<g filter="url(#filter1_f_301_327)">
<path d="M37 59C49.1503 59 59 49.1503 59 37C59 24.8497 49.1503 15 37 15C24.8497 15 15 24.8497 15 37C15 42.8348 17.3178 48.4305 21.4436 52.5563C25.5694 56.6821 31.1652 59 37 59Z" fill="#0062FF" fill-opacity="0.5"/>
</g>
<g filter="url(#filter2_b_301_327)">
<g filter="url(#filter3_b_301_327)">
<mask id="path-4-outside-1_301_327" maskUnits="userSpaceOnUse" x="15.0002" y="14.9999" width="71" height="71" fill="black">
<rect fill="white" x="15.0002" y="14.9999" width="71" height="71"/>
<path d="M50.5002 15.9999C69.5541 15.9999 85.0002 31.4461 85.0002 50.4999C85.0002 69.5538 69.5541 84.9999 50.5002 84.9999C31.4464 84.9999 16.0002 69.5538 16.0002 50.4999C16.0002 41.35 19.6351 32.5748 26.1051 26.1048C32.5751 19.6347 41.3503 15.9999 50.5002 15.9999Z"/>
</mask>
<path d="M50.5002 15.9999C69.5541 15.9999 85.0002 31.4461 85.0002 50.4999C85.0002 69.5538 69.5541 84.9999 50.5002 84.9999C31.4464 84.9999 16.0002 69.5538 16.0002 50.4999C16.0002 41.35 19.6351 32.5748 26.1051 26.1048C32.5751 19.6347 41.3503 15.9999 50.5002 15.9999Z" fill="#3EA0FE" fill-opacity="0.35"/>
<path d="M16.0002 50.4999L15.0002 50.4999L16.0002 50.4999ZM50.5002 14.9999C70.1063 14.9999 86.0002 30.8938 86.0002 50.4999L84.0002 50.4999C84.0002 31.9984 69.0018 16.9999 50.5002 16.9999L50.5002 14.9999ZM86.0002 50.4999C86.0002 70.106 70.1064 85.9999 50.5002 85.9999L50.5002 83.9999C69.0018 83.9999 84.0002 69.0015 84.0002 50.4999L86.0002 50.4999ZM50.5002 85.9999C30.8941 85.9999 15.0002 70.1061 15.0002 50.4999L17.0002 50.4999C17.0002 69.0015 31.9987 83.9999 50.5002 83.9999L50.5002 85.9999ZM15.0002 50.4999C15.0002 41.0848 18.7404 32.0552 25.398 25.3976L26.8122 26.8119C20.5297 33.0943 17.0002 41.6152 17.0002 50.4999L15.0002 50.4999ZM25.398 25.3976C32.0555 18.7401 41.0851 14.9999 50.5002 14.9999L50.5002 16.9999C41.6155 16.9999 33.0946 20.5294 26.8122 26.8119L25.398 25.3976Z" fill="url(#paint1_linear_301_327)" mask="url(#path-4-outside-1_301_327)"/>
</g>
</g>
<g filter="url(#filter4_bd_301_327)">
<mask id="path-6-inside-2_301_327" fill="white">
<path fill-rule="evenodd" clip-rule="evenodd" d="M37.0001 48L63.0001 48C64.1848 48 65.2586 47.3028 65.7406 46.2205C66.2225 45.1383 66.0225 43.8737 65.2299 42.9931L56.2299 32.9931C55.1216 31.7616 53.2247 31.6618 51.9932 32.7701C50.7616 33.8785 50.6618 35.7754 51.7702 37.0069L56.264 42L37.0001 42C35.3432 42 34.0001 43.3432 34.0001 45C34.0001 46.6569 35.3432 48 37.0001 48ZM37.0001 54C35.8153 54 34.7416 54.6973 34.2596 55.7795C33.7776 56.8618 33.9776 58.1263 34.7702 59.0069L43.7702 69.0069C44.8786 70.2384 46.7754 70.3383 48.007 69.2299C49.2385 68.1215 49.3383 66.2247 48.2299 64.9931L43.7361 60H63.0001C64.6569 60 66.0001 58.6569 66.0001 57C66.0001 55.3432 64.6569 54 63.0001 54H37.0001Z"/>
</mask>
<path fill-rule="evenodd" clip-rule="evenodd" d="M37.0001 48L63.0001 48C64.1848 48 65.2586 47.3028 65.7406 46.2205C66.2225 45.1383 66.0225 43.8737 65.2299 42.9931L56.2299 32.9931C55.1216 31.7616 53.2247 31.6618 51.9932 32.7701C50.7616 33.8785 50.6618 35.7754 51.7702 37.0069L56.264 42L37.0001 42C35.3432 42 34.0001 43.3432 34.0001 45C34.0001 46.6569 35.3432 48 37.0001 48ZM37.0001 54C35.8153 54 34.7416 54.6973 34.2596 55.7795C33.7776 56.8618 33.9776 58.1263 34.7702 59.0069L43.7702 69.0069C44.8786 70.2384 46.7754 70.3383 48.007 69.2299C49.2385 68.1215 49.3383 66.2247 48.2299 64.9931L43.7361 60H63.0001C64.6569 60 66.0001 58.6569 66.0001 57C66.0001 55.3432 64.6569 54 63.0001 54H37.0001Z" fill="url(#paint2_linear_301_327)"/>
<path d="M63.0001 48V48.2V48ZM37.0001 48V47.8V48ZM65.7406 46.2205L65.5579 46.1392L65.5579 46.1392L65.7406 46.2205ZM65.2299 42.9931L65.3786 42.8593L65.2299 42.9931ZM56.2299 32.9931L56.3786 32.8593L56.2299 32.9931ZM51.9932 32.7701L52.127 32.9188V32.9188L51.9932 32.7701ZM51.7702 37.0069L51.9188 36.8731L51.7702 37.0069ZM56.264 42V42.2H56.713L56.4126 41.8662L56.264 42ZM37.0001 42V42.2V42ZM34.2596 55.7795L34.0769 55.6981H34.0769L34.2596 55.7795ZM34.7702 59.0069L34.6215 59.1407H34.6215L34.7702 59.0069ZM43.7702 69.0069L43.6215 69.1407L43.7702 69.0069ZM48.007 69.2299L47.8732 69.0812H47.8732L48.007 69.2299ZM48.2299 64.9931L48.0813 65.1269L48.2299 64.9931ZM43.7361 60V59.8H43.2871L43.5875 60.1338L43.7361 60ZM63.0001 47.8L37.0001 47.8V48.2L63.0001 48.2V47.8ZM65.5579 46.1392C65.108 47.1493 64.1058 47.8 63.0001 47.8V48.2C64.2638 48.2 65.4091 47.4563 65.9233 46.3019L65.5579 46.1392ZM65.0813 43.1269C65.821 43.9488 66.0077 45.1291 65.5579 46.1392L65.9233 46.3019C66.4374 45.1475 66.224 43.7987 65.3786 42.8593L65.0813 43.1269ZM56.0813 33.1269L65.0813 43.1269L65.3786 42.8593L56.3786 32.8593L56.0813 33.1269ZM52.127 32.9188C53.2764 31.8843 55.0468 31.9775 56.0813 33.1269L56.3786 32.8593C55.1963 31.5457 53.173 31.4392 51.8594 32.6215L52.127 32.9188ZM51.9188 36.8731C50.8843 35.7237 50.9775 33.9533 52.127 32.9188L51.8594 32.6215C50.5457 33.8038 50.4392 35.8271 51.6215 37.1407L51.9188 36.8731ZM56.4126 41.8662L51.9188 36.8731L51.6215 37.1407L56.1153 42.1338L56.4126 41.8662ZM37.0001 42.2L56.264 42.2V41.8L37.0001 41.8V42.2ZM34.2001 45C34.2001 43.4536 35.4537 42.2 37.0001 42.2L37.0001 41.8C35.2327 41.8 33.8001 43.2327 33.8001 45H34.2001ZM37.0001 47.8C35.4537 47.8 34.2001 46.5464 34.2001 45H33.8001C33.8001 46.7673 35.2327 48.2 37.0001 48.2V47.8ZM34.4423 55.8609C34.8921 54.8508 35.8943 54.2 37.0001 54.2V53.8C35.7363 53.8 34.591 54.5437 34.0769 55.6981L34.4423 55.8609ZM34.9188 58.8731C34.1791 58.0512 33.9924 56.871 34.4423 55.8609L34.0769 55.6981C33.5627 56.8525 33.7761 58.2014 34.6215 59.1407L34.9188 58.8731ZM43.9188 68.8731L34.9188 58.8731L34.6215 59.1407L43.6215 69.1407L43.9188 68.8731ZM47.8732 69.0812C46.7237 70.1157 44.9533 70.0226 43.9188 68.8731L43.6215 69.1407C44.8038 70.4543 46.8271 70.5608 48.1407 69.3786L47.8732 69.0812ZM48.0813 65.1269C49.1158 66.2763 49.0226 68.0468 47.8732 69.0812L48.1407 69.3786C49.4544 68.1963 49.5609 66.173 48.3786 64.8593L48.0813 65.1269ZM43.5875 60.1338L48.0813 65.1269L48.3786 64.8593L43.8848 59.8662L43.5875 60.1338ZM63.0001 59.8H43.7361V60.2H63.0001V59.8ZM65.8001 57C65.8001 58.5464 64.5465 59.8 63.0001 59.8V60.2C64.7674 60.2 66.2001 58.7673 66.2001 57H65.8001ZM63.0001 54.2C64.5465 54.2 65.8001 55.4536 65.8001 57H66.2001C66.2001 55.2327 64.7674 53.8 63.0001 53.8V54.2ZM37.0001 54.2H63.0001V53.8H37.0001V54.2Z" fill="url(#paint3_linear_301_327)" fill-opacity="0.5" mask="url(#path-6-inside-2_301_327)"/>
</g>
<defs>
<filter id="filter0_f_301_327" x="49" y="49" width="53" height="53" filterUnits="userSpaceOnUse" color-interpolation-filters="sRGB">
<feFlood flood-opacity="0" result="BackgroundImageFix"/>
<feBlend mode="normal" in="SourceGraphic" in2="BackgroundImageFix" result="shape"/>
<feGaussianBlur stdDeviation="7.5" result="effect1_foregroundBlur_301_327"/>
</filter>
<filter id="filter1_f_301_327" x="0" y="0" width="74" height="74" filterUnits="userSpaceOnUse" color-interpolation-filters="sRGB">
<feFlood flood-opacity="0" result="BackgroundImageFix"/>
<feBlend mode="normal" in="SourceGraphic" in2="BackgroundImageFix" result="shape"/>
<feGaussianBlur stdDeviation="7.5" result="effect1_foregroundBlur_301_327"/>
</filter>
<filter id="filter2_b_301_327" x="-8.99976" y="-9.00006" width="119" height="119" filterUnits="userSpaceOnUse" color-interpolation-filters="sRGB">
<feFlood flood-opacity="0" result="BackgroundImageFix"/>
<feGaussianBlur in="BackgroundImage" stdDeviation="12"/>
<feComposite in2="SourceAlpha" operator="in" result="effect1_backgroundBlur_301_327"/>
<feBlend mode="normal" in="SourceGraphic" in2="effect1_backgroundBlur_301_327" result="shape"/>
</filter>
<filter id="filter3_b_301_327" x="-8.99976" y="-9.00006" width="119" height="119" filterUnits="userSpaceOnUse" color-interpolation-filters="sRGB">
<feFlood flood-opacity="0" result="BackgroundImageFix"/>
<feGaussianBlur in="BackgroundImage" stdDeviation="12"/>
<feComposite in2="SourceAlpha" operator="in" result="effect1_backgroundBlur_301_327"/>
<feBlend mode="normal" in="SourceGraphic" in2="effect1_backgroundBlur_301_327" result="shape"/>
</filter>
<filter id="filter4_bd_301_327" x="19" y="17" width="62.0001" height="68.0001" filterUnits="userSpaceOnUse" color-interpolation-filters="sRGB">
<feFlood flood-opacity="0" result="BackgroundImageFix"/>
<feGaussianBlur in="BackgroundImage" stdDeviation="7.5"/>
<feComposite in2="SourceAlpha" operator="in" result="effect1_backgroundBlur_301_327"/>
<feColorMatrix in="SourceAlpha" type="matrix" values="0 0 0 0 0 0 0 0 0 0 0 0 0 0 0 0 0 0 127 0" result="hardAlpha"/>
<feOffset dx="5" dy="5"/>
<feGaussianBlur stdDeviation="5"/>
<feColorMatrix type="matrix" values="0 0 0 0 0.15375 0 0 0 0 0.522433 0 0 0 0 0.9 0 0 0 0.5 0"/>
<feBlend mode="normal" in2="effect1_backgroundBlur_301_327" result="effect2_dropShadow_301_327"/>
<feBlend mode="normal" in="SourceGraphic" in2="effect2_dropShadow_301_327" result="shape"/>
</filter>
<linearGradient id="paint0_linear_301_327" x1="92.9796" y1="54.7852" x2="44.5757" y2="76.1173" gradientUnits="userSpaceOnUse">
<stop stop-color="#39AFFD"/>
<stop offset="1" stop-color="#477FFF"/>
</linearGradient>
<linearGradient id="paint1_linear_301_327" x1="65.497" y1="19.0727" x2="17.5002" y2="77.9999" gradientUnits="userSpaceOnUse">
<stop stop-color="white" stop-opacity="0.25"/>
<stop offset="1" stop-color="white" stop-opacity="0"/>
</linearGradient>
<linearGradient id="paint2_linear_301_327" x1="63.7313" y1="38.862" x2="28.0752" y2="39.841" gradientUnits="userSpaceOnUse">
<stop stop-color="white"/>
<stop offset="1" stop-color="white" stop-opacity="0.2"/>
</linearGradient>
<linearGradient id="paint3_linear_301_327" x1="37.4471" y1="44.7472" x2="64.6199" y2="44.8735" gradientUnits="userSpaceOnUse">
<stop stop-color="white"/>
<stop offset="1" stop-color="white" stop-opacity="0"/>
</linearGradient>
</defs>
</svg>
