<svg width="32" height="31" viewBox="0 0 32 31" fill="none" xmlns="http://www.w3.org/2000/svg">
<g clip-path="url(#clip0_301_1853)">
<path opacity="0.06" d="M23.9185 0H15.7474V6.17963C15.9938 6.22069 16.2402 6.26175 16.5071 6.32334V0.759622H23.939C25.7662 0.759622 27.5318 1.47818 28.8047 2.79212C30.0981 4.065 30.8372 5.83061 30.8372 7.65781C30.8372 7.69887 30.8372 7.76046 30.8372 7.80152C30.8167 8.70486 30.6114 9.58766 30.2624 10.4089C30.1392 10.7168 29.9749 11.0043 29.8107 11.2917C29.7491 11.3943 29.6875 11.497 29.6054 11.5996C29.4822 11.7639 29.359 11.9281 29.2359 12.0924C29.1332 12.2155 29.0306 12.3182 28.9279 12.4414C28.8868 12.4824 28.8663 12.503 28.8252 12.544C28.7637 12.6056 28.6815 12.6877 28.6199 12.7493C28.4762 12.893 28.3325 13.0162 28.1888 13.1189C28.1067 13.1805 28.0246 13.2421 27.9219 13.3242C27.7371 13.4474 27.5524 13.5705 27.3471 13.6937C27.2855 13.7348 27.2034 13.7758 27.1418 13.8169C26.9159 13.9401 26.6901 14.0427 26.4643 14.1249C26.3821 14.1454 26.3206 14.1865 26.2384 14.207C25.9099 14.3302 25.5815 14.4123 25.2324 14.4739C25.3146 14.7202 25.3762 14.9666 25.4172 15.1924C25.7457 15.1308 26.0537 15.0487 26.3616 14.9461C26.4643 14.905 26.5669 14.8845 26.649 14.8434C26.8338 14.7818 27.0186 14.6997 27.1828 14.6176C27.2855 14.5765 27.3881 14.5149 27.4908 14.4739C27.6345 14.4123 27.7577 14.3302 27.8809 14.248C28.0246 14.1659 28.1477 14.0838 28.2709 14.0017C28.3325 13.9606 28.3941 13.9196 28.4557 13.8785C28.4762 13.8785 28.4762 13.858 28.4968 13.858C28.5994 13.7758 28.7226 13.6937 28.8252 13.6116C28.8663 13.5705 28.9279 13.5295 28.969 13.4884C29.1743 13.3036 29.4001 13.0983 29.5849 12.893C29.7902 12.6877 29.9544 12.4619 30.1392 12.2155C30.324 11.9692 30.4882 11.7023 30.6524 11.4149C31.2684 10.3268 31.6174 9.05387 31.6174 7.7194C31.5558 3.42856 28.1272 0 23.9185 0Z" fill="#28E7C5"/>
<path opacity="0.1943" d="M30.8159 7.80139C30.2411 4.14699 27.3257 1.25222 23.6303 0.759489C23.2607 0.718429 22.8707 0.677368 22.5011 0.677368H13.4883V6.03578H13.9194C14.0632 6.03578 14.1863 6.03578 14.3301 6.03578V1.49858H22.5832C24.5747 1.51911 26.4429 2.29926 27.8595 3.73639C29.2351 5.11192 30.0357 6.91859 30.0973 8.86897C30.0973 8.95109 30.0973 9.03321 30.0973 9.0948C30.0973 9.85442 29.9947 10.573 29.7894 11.271C29.7278 11.4558 29.6662 11.6406 29.6046 11.8253C29.4404 12.277 29.2145 12.7081 28.9476 13.1187C28.9476 13.1187 28.9476 13.1187 28.9476 13.1393C28.8039 13.3651 28.6602 13.5704 28.496 13.7757C28.4754 13.7962 28.4754 13.8168 28.4549 13.8373C28.4139 13.8989 28.3523 13.9605 28.2907 14.0426C28.1675 14.1863 28.0443 14.33 27.9006 14.4532L27.8801 14.4737C27.7774 14.5764 27.6748 14.679 27.5516 14.7612C27.4284 14.8638 27.3257 14.9665 27.2026 15.0691C27.0589 15.1718 26.9357 15.2744 26.792 15.3771C26.6688 15.4592 26.5456 15.5413 26.4429 15.6029C26.176 15.7672 25.8886 15.9109 25.6217 16.034C25.6628 16.3215 25.7039 16.5884 25.7244 16.8758C25.9913 16.7731 26.2376 16.65 26.484 16.5268C26.6482 16.4447 26.792 16.3625 26.9562 16.2599C27.0383 16.2188 27.0999 16.1572 27.1615 16.1162C27.2231 16.0751 27.2847 16.034 27.3463 15.993C27.4695 15.9109 27.5721 15.8287 27.6748 15.7466C27.7774 15.6645 27.8595 15.6029 27.9622 15.5208C28.1059 15.3976 28.2291 15.295 28.3728 15.1718C28.5781 14.9665 28.7834 14.7612 28.9682 14.5559C29.1529 14.3506 29.3377 14.1247 29.502 13.8784C29.6662 13.632 29.8304 13.4062 29.9536 13.1393C30.2616 12.5644 30.5285 11.969 30.6927 11.3121C30.898 10.5935 31.0007 9.83389 31.0007 9.07427C30.9186 8.66366 30.8775 8.23253 30.8159 7.80139Z" fill="#28E7C5"/>
<path opacity="0.3286" d="M30.2413 10.4088C30.2413 9.89557 30.1797 9.38231 30.0771 8.86905C29.3791 5.09148 26.3611 2.13511 22.563 1.49867C22.0703 1.41655 21.557 1.37549 21.0438 1.37549H11.2508V6.03587H12.1541V2.25829H21.0643C21.3517 2.25829 21.6597 2.27882 21.9471 2.29935C23.8154 2.50466 25.5604 3.32587 26.8949 4.68087C28.2294 5.97428 29.0301 7.65777 29.2559 9.48496C29.2969 9.83398 29.3175 10.183 29.3175 10.532C29.3175 11.0453 29.2764 11.5585 29.1738 12.0513C29.1122 12.4208 29.0095 12.7698 28.9069 13.1188C28.9069 13.1394 28.9069 13.1394 28.9069 13.1394C28.8658 13.2625 28.8247 13.4063 28.7632 13.5294C28.6194 13.899 28.4552 14.248 28.2499 14.597C28.2088 14.6586 28.1678 14.7202 28.1267 14.7818C27.9625 15.0282 27.7982 15.295 27.6135 15.5209C27.5929 15.5619 27.5724 15.5825 27.5519 15.603C27.4492 15.7262 27.3466 15.8494 27.2234 15.9931C27.1618 16.0547 27.1002 16.1368 27.0386 16.1984C26.977 16.26 26.936 16.3216 26.8744 16.3626L26.8538 16.3832C26.6896 16.5474 26.5254 16.6911 26.3611 16.8348C26.1353 17.0401 25.8889 17.2044 25.6425 17.3891C25.6425 17.5123 25.6425 17.6355 25.6425 17.7792C25.6425 18.005 25.6425 18.2514 25.622 18.4772C25.7452 18.3951 25.8889 18.313 26.0121 18.2309C26.0942 18.1898 26.1558 18.1282 26.2379 18.0872C26.4022 17.964 26.5664 17.8408 26.7307 17.7176C26.7922 17.6766 26.8538 17.615 26.936 17.5534C27.1618 17.3686 27.3671 17.1633 27.5724 16.958C27.7777 16.7527 27.983 16.5063 28.1883 16.2805C28.3731 16.0547 28.5579 15.8083 28.7016 15.5619C28.8658 15.3156 29.0095 15.0692 29.1532 14.8023C29.4407 14.2685 29.6665 13.6937 29.8513 13.0983C29.9539 12.7698 30.036 12.4208 30.0976 12.0718C30.1798 11.5585 30.2413 11.0247 30.2413 10.4909C30.2413 10.5115 30.2413 10.4499 30.2413 10.4088Z" fill="#28E7C5"/>
<path opacity="0.4629" d="M29.5845 11.8456C29.5845 11.7635 29.5845 11.6608 29.5845 11.5787C29.564 10.8601 29.4408 10.1621 29.2765 9.50512C28.3527 5.95337 25.54 3.16125 21.9472 2.31951C21.2081 2.13473 20.428 2.05261 19.6273 2.05261H8.99258V6.05602H9.97804V3.03807H19.6273C20.2843 3.03807 20.9207 3.09966 21.5366 3.24337C23.2201 3.59239 24.7393 4.43413 25.9712 5.66595C27.2235 6.89777 28.0652 8.45807 28.4143 10.1416C28.5374 10.7369 28.599 11.3734 28.599 11.9893C28.599 12.2357 28.599 12.482 28.5785 12.7078C28.558 13.0774 28.4964 13.4675 28.4143 13.8165V13.837C28.3732 14.0423 28.3321 14.2271 28.2706 14.4324C28.2295 14.5556 28.209 14.6788 28.1679 14.8019C28.0858 15.0483 27.9831 15.3152 27.8805 15.5616C27.7984 15.7669 27.7162 15.9516 27.6136 16.1364C27.552 16.2801 27.4699 16.4033 27.3877 16.547C27.2646 16.7729 27.1003 16.9987 26.9566 17.2245C26.9361 17.2656 26.9156 17.2861 26.895 17.3066C26.7102 17.553 26.5049 17.7994 26.2996 18.0252C26.2175 18.1073 26.1354 18.1894 26.0738 18.2716C26.0533 18.2921 26.0327 18.3126 26.0122 18.3332C25.9096 18.4358 25.7864 18.5385 25.6837 18.6411C25.6632 19.0312 25.6221 19.4007 25.54 19.7908C25.3963 19.955 25.2321 20.1193 25.0884 20.2835C25.0268 20.3451 24.9857 20.3862 24.9241 20.4478C25.1294 20.3246 25.3142 20.2014 25.499 20.0577C25.6427 19.955 25.7659 19.8524 25.9096 19.7497C25.9506 19.7087 26.0122 19.6676 26.0533 19.6266C26.3818 19.3597 26.6692 19.0722 26.9566 18.7643C27.1619 18.559 27.3467 18.3332 27.5109 18.1073C27.6957 17.861 27.8805 17.6146 28.0447 17.3477C28.209 17.1013 28.3527 16.8344 28.4964 16.5675C28.7838 16.0132 29.0096 15.4384 29.1944 14.843C29.2971 14.535 29.3792 14.2066 29.4408 13.8781C29.5024 13.5291 29.564 13.1595 29.5845 12.79C29.605 12.5231 29.6256 12.2357 29.6256 11.9688C29.5845 11.9277 29.5845 11.8866 29.5845 11.8456Z" fill="#28E7C5"/>
<path opacity="0.5971" d="M28.9274 13.1394C28.9274 12.893 28.9069 12.6467 28.8864 12.4003C28.8043 11.6201 28.6605 10.8605 28.4142 10.1214C27.3671 6.85711 24.8008 4.29082 21.5365 3.22324C20.4895 2.87423 19.3603 2.68945 18.2106 2.68945H6.73416V24.1231H18.1901C20.1405 24.1231 21.9882 23.6098 23.569 22.686C24.0618 22.3986 24.5545 22.0701 24.9856 21.7005C24.9856 21.7005 24.9856 21.7005 25.0061 21.68C25.6631 21.1462 26.2585 20.5098 26.7717 19.8323C26.9565 19.6064 27.1208 19.3601 27.2645 19.1137C27.4287 18.8468 27.593 18.5594 27.7572 18.272C28.0446 17.7176 28.2705 17.1428 28.4552 16.5474C28.5579 16.2395 28.64 15.911 28.7016 15.5825C28.7837 15.2335 28.8248 14.8845 28.8658 14.5354C28.9069 14.1659 28.9274 13.7758 28.9274 13.4063V13.3857C28.9274 13.3242 28.9274 13.2215 28.9274 13.1394ZM18.1901 23.1171H7.80174V3.77756H18.2106C19.1345 3.77756 20.0378 3.90074 20.9206 4.16764C22.4604 4.6193 23.8975 5.44052 25.0677 6.61074C26.2174 7.76044 27.0386 9.13597 27.4903 10.6552C27.7367 11.4764 27.8599 12.3592 27.8804 13.242C27.8804 13.3036 27.8804 13.3447 27.8804 13.4063C27.8804 13.6526 27.8804 13.9195 27.8393 14.1659C27.8393 14.2686 27.8188 14.3712 27.8188 14.4533C27.7777 14.8023 27.7161 15.1514 27.6546 15.5004C27.634 15.5825 27.6135 15.6441 27.593 15.7262V15.7467C27.5314 15.9931 27.4698 16.2395 27.3877 16.4858C27.2645 16.8554 27.1208 17.2044 26.9565 17.5329C26.8333 17.7792 26.7102 18.0051 26.587 18.2309C26.4227 18.4978 26.2585 18.7852 26.0532 19.0316C25.8889 19.278 25.7042 19.5038 25.4989 19.7296C25.3552 19.8939 25.1909 20.0581 25.0472 20.2223C24.9856 20.2839 24.9446 20.325 24.883 20.3866C23.0763 22.1727 20.6948 23.1171 18.1901 23.1171Z" fill="#28E7C5"/>
<path opacity="0.7314" d="M28.2702 14.6172C28.2702 14.5557 28.2702 14.5146 28.2702 14.453C28.2702 14.3093 28.2497 14.1861 28.2497 14.0629C28.2497 14.0219 28.2497 14.0013 28.2497 13.9603C28.2292 13.6729 28.1881 13.3854 28.1471 13.098C28.0034 12.2563 27.798 11.4556 27.4901 10.696C26.2993 7.69853 23.9178 5.33754 20.9204 4.18784C19.6475 3.69512 18.272 3.42822 16.8143 3.42822H4.51666V26.4017H16.7938C18.7442 26.4017 20.6124 25.9089 22.2138 25.0261C22.8502 24.6771 23.4456 24.287 24.0205 23.8148C25.0265 22.9936 25.8887 22.0082 26.5662 20.9201C26.7099 20.6737 26.8537 20.4479 26.9768 20.2015C27.2848 19.6061 27.5517 18.9902 27.757 18.3332C27.8596 18.0253 27.9418 17.6968 28.0033 17.3888C28.0855 17.0604 28.1265 16.7113 28.1881 16.3623C28.2292 15.9928 28.2702 15.6232 28.2702 15.2332C28.2702 15.1305 28.2702 15.0279 28.2702 14.9252C28.2702 14.802 28.2702 14.6994 28.2702 14.6172ZM16.7938 25.252H5.64583V4.53686H16.7938C18.0667 4.53686 19.2985 4.76269 20.4482 5.19383C21.8032 5.70709 23.0555 6.50777 24.1026 7.55482C25.1702 8.62239 25.9708 9.87474 26.4841 11.2297C26.7921 12.0304 26.9974 12.8722 27.0795 13.7344C27.1 14.0013 27.1205 14.2888 27.1411 14.5557C27.1411 14.6583 27.1411 14.761 27.1411 14.8841C27.1411 14.9457 27.1411 15.0073 27.1411 15.0894C27.1411 15.4385 27.1205 15.7875 27.0795 16.1365C27.0795 16.157 27.0795 16.1981 27.0795 16.2186C27.0384 16.4855 26.9974 16.7729 26.9358 17.0398C26.9152 17.1219 26.8947 17.2041 26.8742 17.2862C26.8331 17.4504 26.7921 17.5941 26.751 17.7379C26.7099 17.9226 26.6483 18.1074 26.5868 18.2716C26.4225 18.7233 26.2377 19.175 26.0119 19.6061C25.9298 19.7704 25.8477 19.9346 25.745 20.0783C25.6013 20.3247 25.4371 20.571 25.2728 20.8174C24.9238 21.3101 24.5543 21.7618 24.1231 22.1929C23.9589 22.3777 23.7741 22.542 23.5893 22.6857C21.7005 24.3486 19.319 25.252 16.7938 25.252Z" fill="#28E7C5"/>
<path opacity="0.8657" d="M27.5936 16.137C27.5936 16.0343 27.5936 15.9112 27.5936 15.8085V15.788C27.5936 15.7469 27.5936 15.6853 27.5936 15.6443C27.5731 15.3568 27.5525 15.0694 27.5115 14.8025C27.4909 14.6793 27.4704 14.5562 27.4704 14.433C27.4294 14.1661 27.3883 13.8992 27.3267 13.6528C27.1419 12.8316 26.875 12.0104 26.526 11.2508C25.3147 8.58183 23.1591 6.42615 20.4901 5.19433C19.2583 4.64001 17.9238 4.27047 16.5278 4.12675C16.2814 4.10622 16.035 4.08569 15.7681 4.08569C15.6244 4.08569 15.5012 4.08569 15.3575 4.08569H2.25919V28.5989H15.3781C17.3284 28.5989 19.1556 28.1472 20.7981 27.326C23.1796 26.1353 25.13 24.1849 26.3413 21.8034C26.6081 21.2696 26.834 20.7358 27.0188 20.1609C27.1214 19.8324 27.2241 19.4834 27.3062 19.1344C27.3883 18.7854 27.4499 18.4569 27.5115 18.0874C27.5731 17.7178 27.5936 17.3483 27.6141 16.9787C27.6347 16.7529 27.6347 16.5476 27.6347 16.3218C27.5936 16.2807 27.5936 16.1986 27.5936 16.137ZM15.337 27.4081H3.44994V5.29698H15.3575C15.4807 5.29698 15.6039 5.29698 15.7271 5.29698C15.9734 5.29698 16.2198 5.31751 16.4867 5.33804C17.8828 5.48176 19.2172 5.87183 20.4285 6.50827C21.4345 7.02153 22.3584 7.69903 23.1796 8.52024C23.8981 9.25933 24.5141 10.0805 25.0068 10.9634C25.5611 11.9488 25.9512 13.0164 26.177 14.1456C26.2181 14.3919 26.2591 14.6383 26.3002 14.9052C26.3207 15.1515 26.3618 15.3774 26.3618 15.6237C26.3823 15.8701 26.3823 16.0959 26.3823 16.3423C26.3823 16.4039 26.3823 16.4655 26.3823 16.5271C26.3823 16.6297 26.3823 16.7529 26.3618 16.8556C26.3413 17.2456 26.3002 17.6357 26.2591 18.0052C26.2591 18.0463 26.2591 18.0668 26.2386 18.1079C26.1975 18.4364 26.1154 18.7649 26.0333 19.0934C25.9717 19.3192 25.9101 19.5245 25.8485 19.7298C25.8075 19.853 25.7664 19.9762 25.7253 20.0993C25.52 20.6537 25.2737 21.1875 24.9862 21.7212C24.9862 21.7418 24.9657 21.7418 24.9657 21.7623C24.473 22.6246 23.8571 23.4458 23.1385 24.1643C22.8306 24.4723 22.5226 24.7392 22.1941 25.0061C20.2848 26.5664 17.8828 27.4081 15.337 27.4081Z" fill="#28E7C5"/>
<path d="M26.9563 17.5944C26.9563 17.4712 26.9563 17.348 26.9358 17.2043C26.9358 17.1427 26.9358 17.1017 26.9358 17.0401C26.9358 16.8348 26.9153 16.6295 26.8947 16.4242C26.8947 16.3831 26.8947 16.3215 26.8742 16.2804C26.8332 15.9725 26.7921 15.6851 26.751 15.3976C26.71 15.1923 26.6689 15.0076 26.6279 14.8023C26.5663 14.5559 26.5047 14.3095 26.4225 14.0632C26.0941 12.9545 25.6219 11.928 25.0265 10.9631C23.8973 9.11537 22.3165 7.59612 20.4482 6.50802C19.2369 5.80999 17.923 5.29673 16.5064 5.0093C16.26 4.96824 16.0137 4.90665 15.7468 4.88612C15.2746 4.82453 14.8024 4.78347 14.3097 4.76294C14.1865 4.76294 14.0428 4.76294 13.8991 4.76294H3.05176e-05V30.8159H13.9401C19.7091 30.8159 24.6364 27.0383 26.3199 21.8031C26.4225 21.4951 26.5047 21.2077 26.5663 20.8998C26.6484 20.5508 26.7305 20.2223 26.7716 19.8733C26.8332 19.5037 26.8742 19.1547 26.8947 18.7851C26.9153 18.4567 26.9358 18.1487 26.9358 17.8202C26.9563 17.7381 26.9563 17.656 26.9563 17.5944ZM13.9401 29.543H1.27291V6.03582H13.8991C14.0428 6.03582 14.1659 6.03582 14.3097 6.03582C14.8024 6.05635 15.2746 6.09741 15.7468 6.159C15.9931 6.20006 16.2395 6.24112 16.5064 6.30271C18.6621 6.77491 20.633 7.86302 22.2138 9.44385C23.6099 10.881 24.6364 12.585 25.1702 14.4327C25.2523 14.6791 25.3139 14.9254 25.355 15.1513C25.4166 15.4592 25.4782 15.7467 25.5192 16.0546C25.5603 16.342 25.6013 16.6089 25.6219 16.8964C25.6424 17.0606 25.6424 17.2454 25.6424 17.4301C25.6424 17.5533 25.6424 17.6765 25.6424 17.8202C25.6424 18.0461 25.6424 18.2924 25.6219 18.5183C25.6219 18.5593 25.6219 18.6209 25.6219 18.662C25.6013 19.052 25.5603 19.4216 25.4782 19.8117C25.4576 19.8938 25.4371 19.9964 25.4371 20.0786C25.396 20.3455 25.3344 20.5918 25.2523 20.8587C25.1702 21.1667 25.0881 21.4541 24.9854 21.7415C24.9854 21.7415 24.9854 21.762 24.9649 21.7826C24.7185 22.4806 24.39 23.1786 24 23.8151C23.5072 24.6363 22.9119 25.4164 22.2138 26.1145C21.7622 26.5661 21.2694 26.9767 20.7562 27.3463C18.8058 28.7629 16.4243 29.543 13.9401 29.543Z" fill="#28E7C5"/>
</g>
<defs>
<clipPath id="clip0_301_1853">
<rect width="31.5551" height="30.816" fill="white"/>
</clipPath>
</defs>
</svg>
