<svg width="150" height="34" viewBox="0 0 150 34" fill="none" xmlns="http://www.w3.org/2000/svg">
<path d="M64.6768 22.7045C63.4061 22.7045 62.2904 22.2396 61.3917 21.3409C60.8958 20.845 60.5239 20.2562 60.276 19.6054H72.3006C72.8275 16.9091 72.1147 14.5538 70.1622 12.5704C68.6437 11.0518 66.8152 10.308 64.6768 10.308C62.5384 10.308 60.7099 11.0518 59.1913 12.5704C57.6727 14.0889 56.929 15.9174 56.929 18.0558C56.929 20.1942 57.6727 22.0227 59.1913 23.5413C60.7099 25.0598 62.5384 25.8036 64.6768 25.8036C66.8152 25.8036 68.6437 25.0598 70.1622 23.5413L67.9618 21.3409C67.0631 22.2396 65.9474 22.7045 64.6768 22.7045ZM64.6768 13.4071C65.9474 13.4071 67.0631 13.872 67.9618 14.7707C68.4887 15.2976 68.8606 15.8554 69.0775 16.5062H60.276C60.5239 15.8554 60.8958 15.2976 61.3917 14.7707C62.2904 13.872 63.4061 13.4071 64.6768 13.4071Z" fill="white"/>
<path d="M78.0212 25.8036V21.1549H81.1203V18.0558H78.0212V16.9091C78.0212 15.9484 78.3621 15.1116 79.0439 14.4298C79.7257 13.748 80.5315 13.4071 81.4922 13.4071V10.308C79.6637 10.308 78.1142 10.9588 76.8435 12.2294C75.5729 13.5001 74.9221 15.0806 74.9221 16.9091V25.8036H78.0212Z" fill="white"/>
<path d="M83.8926 10.308V25.8036H86.9917V10.308H83.8926Z" fill="white"/>
<path d="M101.897 25.8036C101.897 27.0743 101.432 28.19 100.533 29.0887C99.6342 29.9875 98.5186 30.4523 97.2479 30.4523C95.9773 30.4523 94.8616 29.9875 93.9628 29.0887L91.7625 31.2891C93.281 32.8077 95.1095 33.5514 97.2479 33.5514C99.3863 33.5514 101.215 32.8077 102.733 31.2891C104.252 29.7395 104.996 27.911 104.996 25.8036V10.308H103.446L101.897 11.8576C100.533 10.8348 98.9834 10.308 97.2479 10.308C95.1095 10.308 93.281 11.0518 91.7625 12.5704C90.2439 14.0889 89.5001 15.9174 89.5001 18.0558C89.5001 20.1942 90.2439 22.0227 91.7625 23.5413C93.281 25.0598 95.1095 25.8036 97.2479 25.8036C98.9524 25.8036 100.502 25.2768 101.897 24.2541V25.8036ZM93.9628 21.3409C93.0641 20.4421 92.5992 19.3264 92.5992 18.0558C92.5992 16.7852 93.0641 15.6695 93.9628 14.7707C94.8616 13.872 95.9773 13.4071 97.2479 13.4071C98.5186 13.4071 99.6342 13.872 100.533 14.7707C101.432 15.6695 101.897 16.7852 101.897 18.0558C101.897 19.3264 101.432 20.4421 100.533 21.3409C99.6342 22.2396 98.5186 22.7045 97.2479 22.7045C95.9773 22.7045 94.8616 22.2396 93.9628 21.3409Z" fill="white"/>
<path d="M119.859 24.2541L121.409 25.8036H122.959V10.308H119.859V11.8576C118.465 10.8348 116.915 10.308 115.211 10.308C113.072 10.308 111.244 11.0518 109.725 12.5704C108.207 14.0889 107.463 15.9174 107.463 18.0558C107.463 20.1942 108.207 22.0227 109.725 23.5413C111.244 25.0598 113.072 25.8036 115.211 25.8036C116.946 25.8036 118.496 25.2768 119.859 24.2541ZM111.926 21.3409C111.027 20.4421 110.562 19.3264 110.562 18.0558C110.562 16.7852 111.027 15.6695 111.926 14.7707C112.824 13.872 113.94 13.4071 115.211 13.4071C116.481 13.4071 117.597 13.872 118.496 14.7707C119.395 15.6695 119.859 16.7852 119.859 18.0558C119.859 19.3264 119.395 20.4421 118.496 21.3409C117.597 22.2396 116.481 22.7045 115.211 22.7045C113.94 22.7045 112.824 22.2396 111.926 21.3409Z" fill="white"/>
<path d="M128.525 10.308V6.21484H125.426V19.2025C125.426 21.031 126.077 22.6115 127.347 23.8822C128.618 25.1528 130.167 25.8036 131.996 25.8036V22.7045C131.035 22.7045 130.229 22.3636 129.548 21.6818C128.866 21 128.525 20.1632 128.525 19.2025V13.4071H131.624V10.308H128.525Z" fill="white"/>
<path d="M142.208 22.7045C140.938 22.7045 139.822 22.2396 138.923 21.3409C138.427 20.845 138.055 20.2562 137.808 19.6054H149.832C150.359 16.9091 149.646 14.5538 147.694 12.5704C146.175 11.0518 144.347 10.308 142.208 10.308C140.07 10.308 138.241 11.0518 136.723 12.5704C135.204 14.0889 134.46 15.9174 134.46 18.0558C134.46 20.1942 135.204 22.0227 136.723 23.5413C138.241 25.0598 140.07 25.8036 142.208 25.8036C144.347 25.8036 146.175 25.0598 147.694 23.5413L145.493 21.3409C144.595 22.2396 143.479 22.7045 142.208 22.7045ZM142.208 13.4071C143.479 13.4071 144.595 13.872 145.493 14.7707C146.02 15.2976 146.392 15.8554 146.609 16.5062H137.808C138.055 15.8554 138.427 15.2976 138.923 14.7707C139.822 13.872 140.938 13.4071 142.208 13.4071Z" fill="white"/>
<g clip-path="url(#clip0_2_4133)">
<path opacity="0.06" d="M22.1981 0H14.6145V5.73531C14.8432 5.77342 15.0718 5.81153 15.3195 5.86869V0.705005H22.2171C23.9129 0.705005 25.5516 1.3719 26.733 2.59137C27.9334 3.77273 28.6193 5.41139 28.6193 7.10721C28.6193 7.14532 28.6193 7.20248 28.6193 7.24059C28.6003 8.07898 28.4097 8.89831 28.0858 9.66047C27.9715 9.94629 27.8191 10.213 27.6666 10.4798C27.6095 10.5751 27.5523 10.6703 27.4761 10.7656C27.3618 10.9181 27.2474 11.0705 27.1331 11.2229C27.0378 11.3372 26.9426 11.4325 26.8473 11.5468C26.8092 11.5849 26.7901 11.604 26.752 11.6421C26.6949 11.6993 26.6186 11.7755 26.5615 11.8327C26.4281 11.966 26.2947 12.0804 26.1613 12.1756C26.0851 12.2328 26.0089 12.29 25.9136 12.3662C25.7421 12.4805 25.5707 12.5948 25.3801 12.7091C25.323 12.7473 25.2467 12.7854 25.1896 12.8235C24.98 12.9378 24.7704 13.0331 24.5608 13.1093C24.4846 13.1283 24.4274 13.1664 24.3512 13.1855C24.0463 13.2998 23.7415 13.376 23.4175 13.4332C23.4938 13.6619 23.5509 13.8905 23.589 14.1001C23.8939 14.0429 24.1797 13.9667 24.4655 13.8715C24.5608 13.8333 24.6561 13.8143 24.7323 13.7762C24.9038 13.719 25.0752 13.6428 25.2277 13.5666C25.323 13.5285 25.4182 13.4713 25.5135 13.4332C25.6469 13.376 25.7612 13.2998 25.8755 13.2236C26.0089 13.1474 26.1232 13.0712 26.2376 12.995C26.2947 12.9568 26.3519 12.9187 26.409 12.8806C26.4281 12.8806 26.4281 12.8616 26.4472 12.8616C26.5424 12.7854 26.6567 12.7091 26.752 12.6329C26.7901 12.5948 26.8473 12.5567 26.8854 12.5186C27.0759 12.3471 27.2855 12.1566 27.457 11.966C27.6476 11.7755 27.8 11.5659 27.9715 11.3372C28.143 11.1086 28.2954 10.8609 28.4478 10.5941C29.0195 9.58426 29.3434 8.4029 29.3434 7.16437C29.2862 3.18205 26.1042 0 22.1981 0Z" fill="#28E7C5"/>
<path opacity="0.1943" d="M28.6003 7.24071C28.0668 3.84906 25.3611 1.16242 21.9313 0.705123C21.5883 0.667015 21.2263 0.628906 20.8833 0.628906H12.5186V5.60205H12.9187C13.0521 5.60205 13.1664 5.60205 13.2998 5.60205V1.39107H20.9596C22.8078 1.41013 24.5417 2.13419 25.8565 3.46798C27.1331 4.74461 27.8762 6.42138 27.9334 8.23153C27.9334 8.30774 27.9334 8.38396 27.9334 8.44112C27.9334 9.14613 27.8381 9.81302 27.6476 10.4609C27.5904 10.6324 27.5333 10.8038 27.4761 10.9753C27.3237 11.3945 27.1141 11.7947 26.8664 12.1757C26.8664 12.1757 26.8664 12.1757 26.8664 12.1948C26.733 12.4044 26.5996 12.5949 26.4472 12.7855C26.4281 12.8045 26.4281 12.8236 26.4091 12.8426C26.3709 12.8998 26.3138 12.957 26.2566 13.0332C26.1423 13.1666 26.028 13.2999 25.8946 13.4143L25.8755 13.4333C25.7803 13.5286 25.685 13.6239 25.5707 13.7001C25.4563 13.7953 25.3611 13.8906 25.2467 13.9859C25.1134 14.0812 24.999 14.1764 24.8657 14.2717C24.7513 14.3479 24.637 14.4241 24.5417 14.4813C24.294 14.6337 24.0273 14.7671 23.7796 14.8814C23.8177 15.1482 23.8558 15.3959 23.8748 15.6627C24.1226 15.5674 24.3512 15.4531 24.5799 15.3387C24.7323 15.2625 24.8657 15.1863 25.0181 15.091C25.0943 15.0529 25.1515 14.9958 25.2086 14.9577C25.2658 14.9195 25.323 14.8814 25.3801 14.8433C25.4945 14.7671 25.5897 14.6909 25.685 14.6147C25.7803 14.5385 25.8565 14.4813 25.9518 14.4051C26.0851 14.2908 26.1995 14.1955 26.3328 14.0812C26.5234 13.8906 26.7139 13.7001 26.8854 13.5095C27.0569 13.319 27.2284 13.1094 27.3808 12.8807C27.5333 12.6521 27.6857 12.4425 27.8 12.1948C28.0858 11.6613 28.3335 11.1087 28.486 10.499C28.6765 9.83208 28.7718 9.12707 28.7718 8.42207C28.6956 8.04099 28.6574 7.64085 28.6003 7.24071Z" fill="#28E7C5"/>
<path opacity="0.3286" d="M28.0668 9.6607C28.0668 9.18434 28.0096 8.70799 27.9143 8.23163C27.2665 4.72566 24.4655 1.98186 20.9405 1.39118C20.4832 1.31496 20.0069 1.27686 19.5305 1.27686H10.4417V5.60216H11.28V2.09619H19.5496C19.8163 2.09619 20.1021 2.11524 20.3689 2.13429C22.1028 2.32484 23.7224 3.087 24.9609 4.34458C26.1995 5.54499 26.9426 7.10744 27.1522 8.80326C27.1903 9.12718 27.2093 9.4511 27.2093 9.77502C27.2093 10.2514 27.1712 10.7277 27.076 11.185C27.0188 11.528 26.9235 11.8519 26.8283 12.1758C26.8283 12.1949 26.8283 12.1949 26.8283 12.1949C26.7901 12.3092 26.752 12.4426 26.6949 12.5569C26.5615 12.8999 26.4091 13.2238 26.2185 13.5478C26.1804 13.6049 26.1423 13.6621 26.1042 13.7192C25.9518 13.9479 25.7993 14.1956 25.6278 14.4052C25.6088 14.4433 25.5897 14.4624 25.5707 14.4814C25.4754 14.5957 25.3801 14.7101 25.2658 14.8434C25.2086 14.9006 25.1515 14.9768 25.0943 15.034C25.0372 15.0911 24.999 15.1483 24.9419 15.1864L24.9228 15.2055C24.7704 15.3579 24.618 15.4913 24.4655 15.6247C24.2559 15.8152 24.0273 15.9676 23.7986 16.1391C23.7986 16.2534 23.7986 16.3678 23.7986 16.5011C23.7986 16.7107 23.7986 16.9394 23.7796 17.149C23.8939 17.0728 24.0273 16.9966 24.1416 16.9203C24.2178 16.8822 24.275 16.8251 24.3512 16.787C24.5036 16.6726 24.6561 16.5583 24.8085 16.444C24.8657 16.4059 24.9228 16.3487 24.999 16.2916C25.2086 16.1201 25.3992 15.9295 25.5897 15.739C25.7803 15.5484 25.9708 15.3198 26.1614 15.1102C26.3328 14.9006 26.5043 14.6719 26.6377 14.4433C26.7901 14.2146 26.9235 13.986 27.0569 13.7383C27.3237 13.2429 27.5333 12.7094 27.7047 12.1568C27.8 11.8519 27.8762 11.528 27.9334 11.2041C28.0096 10.7277 28.0668 10.2323 28.0668 9.73691C28.0668 9.75597 28.0668 9.69881 28.0668 9.6607Z" fill="#28E7C5"/>
<path opacity="0.4629" d="M27.457 10.9941C27.457 10.9179 27.457 10.8226 27.457 10.7464C27.438 10.0795 27.3237 9.43168 27.1712 8.82194C26.3138 5.52557 23.7034 2.9342 20.3689 2.15298C19.6829 1.98149 18.9589 1.90527 18.2158 1.90527H8.3457V5.62084H9.2603V2.81987H18.2158C18.8255 2.81987 19.4162 2.87704 19.9878 3.01042C21.5503 3.33434 22.9603 4.11556 24.1035 5.25881C25.2658 6.40206 26.047 7.85018 26.371 9.41262C26.4853 9.96519 26.5424 10.5559 26.5424 11.1275C26.5424 11.3561 26.5424 11.5848 26.5234 11.7944C26.5043 12.1374 26.4472 12.4994 26.371 12.8233V12.8424C26.3329 13.0329 26.2947 13.2044 26.2376 13.3949C26.1995 13.5093 26.1804 13.6236 26.1423 13.7379C26.0661 13.9666 25.9708 14.2143 25.8756 14.4429C25.7993 14.6335 25.7231 14.805 25.6278 14.9764C25.5707 15.1098 25.4945 15.2241 25.4182 15.3575C25.3039 15.5671 25.1515 15.7767 25.0181 15.9863C24.9991 16.0244 24.98 16.0435 24.961 16.0625C24.7895 16.2912 24.5989 16.5198 24.4084 16.7294C24.3322 16.8056 24.2559 16.8819 24.1988 16.9581C24.1797 16.9771 24.1607 16.9962 24.1416 17.0152C24.0463 17.1105 23.932 17.2058 23.8368 17.3011C23.8177 17.6631 23.7796 18.0061 23.7034 18.3681C23.57 18.5205 23.4176 18.673 23.2842 18.8254C23.227 18.8826 23.1889 18.9207 23.1318 18.9778C23.3223 18.8635 23.4938 18.7492 23.6653 18.6158C23.7986 18.5205 23.913 18.4253 24.0463 18.33C24.0845 18.2919 24.1416 18.2538 24.1797 18.2157C24.4846 17.968 24.7514 17.7012 25.0181 17.4154C25.2087 17.2248 25.3801 17.0152 25.5326 16.8056C25.7041 16.577 25.8756 16.3483 26.028 16.1006C26.1804 15.872 26.3138 15.6243 26.4472 15.3766C26.7139 14.8621 26.9235 14.3286 27.095 13.776C27.1903 13.4902 27.2665 13.1854 27.3237 12.8805C27.3808 12.5566 27.438 12.2136 27.457 11.8706C27.4761 11.6229 27.4952 11.3561 27.4952 11.1084C27.457 11.0703 27.457 11.0322 27.457 10.9941Z" fill="#28E7C5"/>
<path opacity="0.5971" d="M26.8473 12.1947C26.8473 11.966 26.8283 11.7374 26.8092 11.5087C26.733 10.7847 26.5996 10.0797 26.371 9.39371C25.3992 6.36409 23.0174 3.98232 19.9878 2.9915C19.0161 2.66758 17.9681 2.49609 16.901 2.49609H6.24976V22.3887H16.882C18.6921 22.3887 20.407 21.9123 21.8742 21.0549C22.3315 20.7881 22.7888 20.4832 23.1889 20.1403C23.1889 20.1403 23.1889 20.1403 23.208 20.1212C23.8177 19.6258 24.3703 19.0351 24.8466 18.4063C25.0181 18.1967 25.1706 17.9681 25.3039 17.7394C25.4564 17.4917 25.6088 17.225 25.7612 16.9582C26.028 16.4438 26.2376 15.9102 26.4091 15.3577C26.5044 15.0719 26.5806 14.767 26.6377 14.4621C26.714 14.1382 26.7521 13.8143 26.7902 13.4904C26.8283 13.1474 26.8473 12.7854 26.8473 12.4424V12.4233C26.8473 12.3662 26.8473 12.2709 26.8473 12.1947ZM16.882 21.455H7.24057V3.50597H16.901C17.7585 3.50597 18.5969 3.62029 19.4162 3.86799C20.8453 4.28719 22.1791 5.04935 23.2651 6.13544C24.3322 7.20248 25.0943 8.47911 25.5135 9.88912C25.7422 10.6513 25.8565 11.4706 25.8756 12.2899C25.8756 12.3471 25.8756 12.3852 25.8756 12.4424C25.8756 12.671 25.8756 12.9187 25.8375 13.1474C25.8375 13.2427 25.8184 13.3379 25.8184 13.4141C25.7803 13.7381 25.7231 14.062 25.666 14.3859C25.6469 14.4621 25.6279 14.5193 25.6088 14.5955V14.6146C25.5516 14.8432 25.4945 15.0719 25.4183 15.3005C25.3039 15.6435 25.1706 15.9674 25.0181 16.2723C24.9038 16.5009 24.7895 16.7105 24.6752 16.9201C24.5227 17.1678 24.3703 17.4346 24.1797 17.6632C24.0273 17.8919 23.8558 18.1015 23.6653 18.3111C23.5319 18.4635 23.3795 18.6159 23.2461 18.7684C23.1889 18.8255 23.1508 18.8636 23.0937 18.9208C21.4169 20.5785 19.2066 21.455 16.882 21.455Z" fill="#28E7C5"/>
<path opacity="0.7314" d="M26.2376 13.5667C26.2376 13.5095 26.2376 13.4714 26.2376 13.4142C26.2376 13.2808 26.2185 13.1665 26.2185 13.0522C26.2185 13.0141 26.2185 12.995 26.2185 12.9569C26.1995 12.6902 26.1614 12.4234 26.1233 12.1567C25.9899 11.3754 25.7993 10.6323 25.5135 9.92731C24.4084 7.1454 22.1981 4.95417 19.4162 3.88713C18.2348 3.42983 16.9582 3.18213 15.6054 3.18213H4.19189V24.5038H15.5863C17.3964 24.5038 19.1304 24.0465 20.6166 23.2271C21.2073 22.9032 21.7599 22.5412 22.2934 22.1029C23.227 21.3408 24.0273 20.4262 24.6561 19.4163C24.7895 19.1876 24.9228 18.978 25.0372 18.7494C25.323 18.1968 25.5707 17.6252 25.7612 17.0155C25.8565 16.7297 25.9327 16.4248 25.9899 16.139C26.0661 15.8341 26.1042 15.5102 26.1614 15.1863C26.1995 14.8433 26.2376 14.5003 26.2376 14.1383C26.2376 14.043 26.2376 13.9477 26.2376 13.8525C26.2376 13.7381 26.2376 13.6429 26.2376 13.5667ZM15.5863 23.4367H5.23987V4.21105H15.5863C16.7677 4.21105 17.9109 4.42065 18.9779 4.82079C20.2355 5.29714 21.3978 6.04026 22.3696 7.01202C23.3604 8.00284 24.1035 9.16514 24.5799 10.4227C24.8657 11.1658 25.0562 11.9471 25.1324 12.7473C25.1515 12.995 25.1706 13.2618 25.1896 13.5095C25.1896 13.6048 25.1896 13.7 25.1896 13.8144C25.1896 13.8715 25.1896 13.9287 25.1896 14.0049C25.1896 14.3288 25.1706 14.6527 25.1324 14.9767C25.1324 14.9957 25.1324 15.0338 25.1324 15.0529C25.0943 15.3006 25.0562 15.5674 24.9991 15.8151C24.98 15.8913 24.961 15.9675 24.9419 16.0437C24.9038 16.1961 24.8657 16.3295 24.8276 16.4629C24.7895 16.6344 24.7323 16.8059 24.6751 16.9583C24.5227 17.3775 24.3512 17.7967 24.1416 18.1968C24.0654 18.3493 23.9892 18.5017 23.8939 18.6351C23.7605 18.8637 23.6081 19.0924 23.4557 19.321C23.1318 19.7783 22.7888 20.1975 22.3886 20.5977C22.2362 20.7691 22.0647 20.9216 21.8932 21.055C20.1403 22.5983 17.93 23.4367 15.5863 23.4367Z" fill="#28E7C5"/>
<path opacity="0.8657" d="M25.6088 14.9768C25.6088 14.8815 25.6088 14.7672 25.6088 14.6719V14.6529C25.6088 14.6148 25.6088 14.5576 25.6088 14.5195C25.5898 14.2527 25.5707 13.986 25.5326 13.7383C25.5135 13.624 25.4945 13.5096 25.4945 13.3953C25.4564 13.1476 25.4183 12.8999 25.3611 12.6712C25.1896 11.9091 24.9419 11.1469 24.618 10.4419C23.4938 7.96486 21.4931 5.96417 19.0161 4.82092C17.8728 4.30646 16.6343 3.96348 15.3386 3.8301C15.11 3.81105 14.8813 3.79199 14.6336 3.79199C14.5002 3.79199 14.3859 3.79199 14.2525 3.79199H2.09595V26.5427H14.2716C16.0817 26.5427 17.7775 26.1235 19.3019 25.3613C21.5122 24.2562 23.3223 22.446 24.4465 20.2358C24.6942 19.7403 24.9038 19.2449 25.0753 18.7114C25.1706 18.4066 25.2658 18.0826 25.3421 17.7587C25.4183 17.4348 25.4754 17.1299 25.5326 16.7869C25.5898 16.444 25.6088 16.101 25.6279 15.758C25.6469 15.5484 25.6469 15.3579 25.6469 15.1483C25.6088 15.1102 25.6088 15.034 25.6088 14.9768ZM14.2335 25.4375H3.20109V4.91619H14.2525C14.3668 4.91619 14.4812 4.91619 14.5955 4.91619C14.8241 4.91619 15.0528 4.93524 15.3005 4.9543C16.5962 5.08768 17.8347 5.44971 18.9589 6.04039C19.8926 6.51674 20.75 7.14553 21.5122 7.9077C22.1791 8.59365 22.7507 9.35581 23.208 10.1751C23.7224 11.0897 24.0845 12.0806 24.2941 13.1285C24.3322 13.3572 24.3703 13.5858 24.4084 13.8335C24.4275 14.0622 24.4656 14.2718 24.4656 14.5004C24.4846 14.7291 24.4846 14.9387 24.4846 15.1673C24.4846 15.2245 24.4846 15.2817 24.4846 15.3388C24.4846 15.4341 24.4846 15.5484 24.4656 15.6437C24.4465 16.0057 24.4084 16.3678 24.3703 16.7107C24.3703 16.7488 24.3703 16.7679 24.3512 16.806C24.3131 17.1109 24.2369 17.4157 24.1607 17.7206C24.1035 17.9302 24.0464 18.1207 23.9892 18.3113C23.9511 18.4256 23.913 18.5399 23.8749 18.6543C23.6843 19.1687 23.4557 19.6641 23.1889 20.1595C23.1889 20.1786 23.1699 20.1786 23.1699 20.1976C22.7126 20.9979 22.1409 21.7601 21.4741 22.427C21.1882 22.7128 20.9024 22.9605 20.5976 23.2082C18.8255 24.6563 16.5962 25.4375 14.2335 25.4375Z" fill="#28E7C5"/>
<path d="M25.0181 16.3293C25.0181 16.215 25.0181 16.1006 24.9991 15.9672C24.9991 15.9101 24.9991 15.872 24.9991 15.8148C24.9991 15.6243 24.98 15.4337 24.961 15.2432C24.961 15.2051 24.961 15.1479 24.9419 15.1098C24.9038 14.824 24.8657 14.5572 24.8276 14.2905C24.7895 14.0999 24.7514 13.9284 24.7133 13.7379C24.6561 13.5093 24.599 13.2806 24.5227 13.052C24.2179 12.023 23.7796 11.0703 23.2271 10.1748C22.1791 8.4599 20.7119 7.04989 18.978 6.04002C17.8538 5.39217 16.6343 4.91582 15.3196 4.64906C15.0909 4.61095 14.8623 4.55379 14.6146 4.53473C14.1763 4.47757 13.7381 4.43946 13.2808 4.42041C13.1664 4.42041 13.0331 4.42041 12.8997 4.42041H0V28.6002H12.9378C18.292 28.6002 22.865 25.0942 24.4275 20.2354C24.5227 19.9496 24.599 19.6828 24.6561 19.397C24.7323 19.0731 24.8085 18.7682 24.8467 18.4443C24.9038 18.1013 24.9419 17.7774 24.961 17.4344C24.98 17.1296 24.9991 16.8437 24.9991 16.5389C25.0181 16.4627 25.0181 16.3864 25.0181 16.3293ZM12.9378 27.4188H1.18136V5.60177H12.8997C13.0331 5.60177 13.1474 5.60177 13.2808 5.60177C13.7381 5.62082 14.1763 5.65893 14.6146 5.71609C14.8432 5.7542 15.0719 5.79231 15.3196 5.84947C17.3203 6.28772 19.1495 7.29759 20.6166 8.76476C21.9123 10.0986 22.865 11.6801 23.3604 13.3949C23.4366 13.6236 23.4938 13.8522 23.5319 14.0618C23.5891 14.3476 23.6462 14.6144 23.6844 14.9002C23.7225 15.167 23.7606 15.4147 23.7796 15.6814C23.7987 15.8339 23.7987 16.0054 23.7987 16.1768C23.7987 16.2912 23.7987 16.4055 23.7987 16.5389C23.7987 16.7485 23.7987 16.9771 23.7796 17.1867C23.7796 17.2248 23.7796 17.282 23.7796 17.3201C23.7606 17.6821 23.7225 18.0251 23.6462 18.3871C23.6272 18.4633 23.6081 18.5586 23.6081 18.6348C23.57 18.8825 23.5129 19.1112 23.4366 19.3589C23.3604 19.6447 23.2842 19.9115 23.1889 20.1782C23.1889 20.1782 23.1889 20.1973 23.1699 20.2163C22.9412 20.8642 22.6364 21.512 22.2743 22.1027C21.817 22.8649 21.2645 23.5889 20.6166 24.2368C20.1974 24.656 19.7401 25.037 19.2638 25.38C17.4536 26.6948 15.2433 27.4188 12.9378 27.4188Z" fill="#28E7C5"/>
</g>
<path fill-rule="evenodd" clip-rule="evenodd" d="M44.8189 9.10209H38.0528V22.7641H44.8189C48.5916 22.7641 51.6499 19.7057 51.6499 15.9331C51.6499 12.1604 48.5916 9.10209 44.8189 9.10209ZM35.0024 6.05176V25.8144H44.8189C50.2762 25.8144 54.7002 21.3904 54.7002 15.9331C54.7002 10.4758 50.2762 6.05176 44.8189 6.05176H35.0024Z" fill="white"/>
<defs>
<clipPath id="clip0_2_4133">
<rect width="29.2863" height="28.6003" fill="white"/>
</clipPath>
</defs>
</svg>
