<svg width="360" height="641" viewBox="0 0 360 641" fill="none" xmlns="http://www.w3.org/2000/svg">
<g opacity="0.12">
<path d="M179.777 0L180.046 262.802V377.34L179.79 640" stroke="#28E7C5" stroke-linecap="round" stroke-linejoin="round"/>
<path d="M-2.4224 640L147.397 377.34V262.802L-2.89703 0" stroke="#28E7C5" stroke-linecap="round" stroke-linejoin="round"/>
<path d="M362.45 0L212.697 262.802V377.34L362.001 640" stroke="#28E7C5" stroke-linecap="round" stroke-linejoin="round"/>
<path d="M-184.845 480.163L49.4456 377.341V262.802L-184.777 160.274" stroke="#28E7C5" stroke-linecap="round" stroke-linejoin="round"/>
<path d="M-184.845 448.142L16.7974 377.341V262.802L-184.845 192.184" stroke="#28E7C5" stroke-linecap="round" stroke-linejoin="round"/>
<path d="M-184.845 533.52L82.0949 377.341V262.802L-184.845 107.023" stroke="#28E7C5" stroke-linecap="round" stroke-linejoin="round"/>
<path d="M-184.633 640L114.748 377.34V262.802L-184.845 0.633301" stroke="#28E7C5" stroke-linecap="round" stroke-linejoin="round"/>
<path d="M544.94 192.135L343.301 262.803L343.297 377.341L545 448.21" stroke="#28E7C5" stroke-linecap="round" stroke-linejoin="round"/>
<path d="M544.997 160.131L310.653 262.802L310.649 377.34L544.94 480.251" stroke="#28E7C5" stroke-linecap="round" stroke-linejoin="round"/>
<path d="M544.997 106.809L278 262.802V377.341L544.94 533.697" stroke="#28E7C5" stroke-linecap="round" stroke-linejoin="round"/>
<path d="M544.94 0.164551L245.347 262.802V377.34L544.213 640" stroke="#28E7C5" stroke-linecap="round" stroke-linejoin="round"/>
<path d="M544.94 108.076H-184.845" stroke="#28E7C5" stroke-linecap="round" stroke-linejoin="round"/>
<path d="M544.94 211.591H-184.845" stroke="#28E7C5" stroke-linecap="round" stroke-linejoin="round"/>
<path d="M544.94 176.558H-184.845" stroke="#28E7C5" stroke-linecap="round" stroke-linejoin="round"/>
<path d="M544.94 137.17H-184.845" stroke="#28E7C5" stroke-linecap="round" stroke-linejoin="round"/>
<path d="M544.94 262.809H-184.845" stroke="#28E7C5" stroke-linecap="round" stroke-linejoin="round"/>
<path d="M544.94 67.9648H-184.845" stroke="#28E7C5" stroke-linecap="round" stroke-linejoin="round"/>
<path d="M544.94 159.244H-184.845" stroke="#28E7C5" stroke-linecap="round" stroke-linejoin="round"/>
<path d="M544.94 190.508H-184.845" stroke="#28E7C5" stroke-linecap="round" stroke-linejoin="round"/>
<path d="M544.94 247.167H-184.845" stroke="#28E7C5" stroke-linecap="round" stroke-linejoin="round"/>
<path d="M544.94 238.221H-184.845" stroke="#28E7C5" stroke-linecap="round" stroke-linejoin="round"/>
<path d="M544.94 232.872H-184.845" stroke="#28E7C5" stroke-linecap="round" stroke-linejoin="round"/>
<path d="M544.94 242.955H-184.845" stroke="#28E7C5" stroke-linecap="round" stroke-linejoin="round"/>
<path d="M544.94 254.35H-184.845" stroke="#28E7C5" stroke-linecap="round" stroke-linejoin="round"/>
<path d="M544.94 250.945H-184.845" stroke="#28E7C5" stroke-linecap="round" stroke-linejoin="round"/>
<path d="M544.94 257.432H-184.845" stroke="#28E7C5" stroke-linecap="round" stroke-linejoin="round"/>
<path d="M544.94 260.242H-184.845" stroke="#28E7C5" stroke-linecap="round" stroke-linejoin="round"/>
<path d="M544.94 9.12932H-184.845" stroke="#28E7C5" stroke-linecap="round" stroke-linejoin="round"/>
<path d="M544.94 219.751H-184.845" stroke="#28E7C5" stroke-linecap="round" stroke-linejoin="round"/>
<path d="M544.94 201.984H-184.845" stroke="#28E7C5" stroke-linecap="round" stroke-linejoin="round"/>
<path d="M544.94 226.77H-184.845" stroke="#28E7C5" stroke-linecap="round" stroke-linejoin="round"/>
<path d="M-184.845 377.34H544.94" stroke="#28E7C5" stroke-linecap="round" stroke-linejoin="round"/>
<path d="M-184.845 348.708H544.94" stroke="#28E7C5" stroke-linecap="round" stroke-linejoin="round"/>
<path d="M-184.845 320.076H544.94" stroke="#28E7C5" stroke-linecap="round" stroke-linejoin="round"/>
<path d="M-184.845 291.441H544.94" stroke="#28E7C5" stroke-linecap="round" stroke-linejoin="round"/>
<path d="M-184.845 262.809H544.94" stroke="#28E7C5" stroke-linecap="round" stroke-linejoin="round"/>
<path d="M544.781 377.34H-184.845" stroke="#28E7C5" stroke-linecap="round" stroke-linejoin="round"/>
<path d="M544.94 379.914H-184.845" stroke="#28E7C5" stroke-linecap="round" stroke-linejoin="round"/>
<path d="M544.94 382.729H-184.845" stroke="#28E7C5" stroke-linecap="round" stroke-linejoin="round"/>
<path d="M544.94 385.824H-184.845" stroke="#28E7C5" stroke-linecap="round" stroke-linejoin="round"/>
<path d="M544.94 389.235H-184.845" stroke="#28E7C5" stroke-linecap="round" stroke-linejoin="round"/>
<path d="M544.94 393.022H-184.845" stroke="#28E7C5" stroke-linecap="round" stroke-linejoin="round"/>
<path d="M544.94 397.247H-184.845" stroke="#28E7C5" stroke-linecap="round" stroke-linejoin="round"/>
<path d="M544.94 401.993H-184.845" stroke="#28E7C5" stroke-linecap="round" stroke-linejoin="round"/>
<path d="M544.94 407.357H-184.845" stroke="#28E7C5" stroke-linecap="round" stroke-linejoin="round"/>
<path d="M544.94 413.472H-184.845" stroke="#28E7C5" stroke-linecap="round" stroke-linejoin="round"/>
<path d="M544.94 420.509H-184.845" stroke="#28E7C5" stroke-linecap="round" stroke-linejoin="round"/>
<path d="M544.94 428.695H-184.845" stroke="#28E7C5" stroke-linecap="round" stroke-linejoin="round"/>
<path d="M544.94 438.327H-184.845" stroke="#28E7C5" stroke-linecap="round" stroke-linejoin="round"/>
<path d="M544.94 449.833H-184.845" stroke="#28E7C5" stroke-linecap="round" stroke-linejoin="round"/>
<path d="M544.94 463.82H-185" stroke="#28E7C5" stroke-linecap="round" stroke-linejoin="round"/>
<path d="M544.94 481.182H-184.845" stroke="#28E7C5" stroke-linecap="round" stroke-linejoin="round"/>
<path d="M544.94 503.314H-184.845" stroke="#28E7C5" stroke-linecap="round" stroke-linejoin="round"/>
<path d="M544.94 532.492H-184.845" stroke="#28E7C5" stroke-linecap="round" stroke-linejoin="round"/>
<path d="M544.94 572.715H-184.845" stroke="#28E7C5" stroke-linecap="round" stroke-linejoin="round"/>
<path d="M544.94 631.721H-184.845" stroke="#28E7C5" stroke-linecap="round" stroke-linejoin="round"/>
</g>
</svg>
