<svg width="360" height="641" fill="none" xmlns="http://www.w3.org/2000/svg"><g opacity=".12" stroke="#28E7C5" stroke-linecap="round" stroke-linejoin="round"><path d="M179.777 0l.269 262.802V377.34L179.79 640m-182.212 0l149.819-262.66V262.802L-2.897 0M362.45 0L212.697 262.802V377.34L362.001 640"/><path d="M-184.845 480.163l234.29-102.822V262.802l-234.222-102.528"/><path d="M-184.845 448.142l201.642-70.801V262.802l-201.642-70.618"/><path d="M-184.845 533.52l266.94-156.179V262.802l-266.94-155.779"/><path d="M-184.633 640l299.381-262.66V262.802L-184.845.633M544.94 192.135l-201.639 70.668-.004 114.538L545 448.21"/><path d="M544.997 160.131L310.653 262.802l-.004 114.538L544.94 480.251"/><path d="M544.997 106.809L278 262.802v114.539l266.94 156.356"/><path d="M544.94.165L245.347 262.802V377.34L544.213 640m.727-531.924h-729.785M544.94 211.591h-729.785m729.785-35.033h-729.785M544.94 137.17h-729.785M544.94 262.809h-729.785M544.94 67.965h-729.785m729.785 91.279h-729.785m729.785 31.264h-729.785m729.785 56.659h-729.785m729.785-8.946h-729.785m729.785-5.349h-729.785m729.785 10.083h-729.785M544.94 254.35h-729.785m729.785-3.405h-729.785m729.785 6.487h-729.785m729.785 2.81h-729.785M544.94 9.13h-729.785M544.94 219.751h-729.785m729.785-17.767h-729.785M544.94 226.77h-729.785m0 150.57H544.94m-729.785-28.632H544.94m-729.785-28.632H544.94m-729.785-28.635H544.94m-729.785-28.632H544.94m-.159 114.531h-729.626m729.785 2.574h-729.785m729.785 2.815h-729.785m729.785 3.095h-729.785m729.785 3.411h-729.785m729.785 3.787h-729.785m729.785 4.225h-729.785m729.785 4.746h-729.785m729.785 5.364h-729.785m729.785 6.115h-729.785m729.785 7.037h-729.785m729.785 8.186h-729.785m729.785 9.632h-729.785m729.785 11.506h-729.785M544.94 463.82H-185m729.94 17.362h-729.785m729.785 22.132h-729.785m729.785 29.178h-729.785m729.785 40.223h-729.785m729.785 59.006h-729.785"/></g></svg>